<svg xmlns="http://www.w3.org/2000/svg" xmlns:xlink="http://www.w3.org/1999/xlink" viewBox="0 0 750 500"><defs><style>.cls-1{fill:#0d3885;}.cls-2{fill:#fff;}.cls-3{fill:#ecf3ff;}.cls-4{fill:#b2ccfc;}.cls-5{isolation:isolate;}.cls-6{fill:#5a94fd;}.cls-7{fill:#1869f8;}.cls-8{fill:#c7dafc;}.cls-9{fill:#548ff9;}.cls-10{fill:#0050f0;}.cls-11{clip-path:url(#clip-path);}.cls-12{fill:#f8bea1;}.cls-13{fill:#ff498a;}.cls-14{fill:#732a24;}</style><clipPath id="clip-path"><path class="cls-1" d="M468.32,353.82l11.24-6.54c7.07,18.18,15.95,24.72,16.41,25.07l-11.24,6.53C484.26,378.54,475.39,372,468.32,353.82Z"/></clipPath></defs><title>vector-4</title><g id="BACKGROUND"><rect class="cls-2" width="750" height="500"/><ellipse class="cls-3" cx="364.66" cy="304.51" rx="251.4" ry="145.62" transform="translate(-0.86 1.03) rotate(-0.16)"/></g><g id="OBJECTS"><path class="cls-4" d="M507.78,72.93c-2.54-1.47-4.62-.3-4.63,2.63l-.37,133.3a10.13,10.13,0,0,0,4.59,8l148,85.43c2.54,1.47,4.61.29,4.62-2.64l.38-133.29a10.11,10.11,0,0,0-4.6-8Z"/><path class="cls-1" d="M507,72.57l-.32-.12-.21,0-.19,0-.24,0-.14,0h-.36l-.35,0-.08,0-.25.07-.08,0a2.1,2.1,0,0,0-.3.15l8.84-5.14h0l.23-.12h0l.08,0,.12,0a.61.61,0,0,1,.13,0l.08,0h.05l.27,0h.52l.13,0,.12,0,.19,0,.1,0,.1,0,.33.11.11,0,.07,0a6.27,6.27,0,0,1,.58.29l148,85.43a7.1,7.1,0,0,1,.87.6l.27.24c.13.12.27.23.4.36l.18.18.15.16.18.19c.13.15.25.3.37.46l.12.16.07.09.12.16.26.4c.09.13.16.26.24.39l0,0,0,0,.18.32.2.39.16.36v0c.06.14.11.28.17.41s.11.29.15.44a1.87,1.87,0,0,1,.07.22l0,.09a1,1,0,0,0,0,.16c.05.17.09.35.13.53s0,.21.05.32l0,.16,0,.16a6.92,6.92,0,0,1,.06.9l-.38,133.3a3.25,3.25,0,0,1-1.35,3l-8.83,5.13a3.23,3.23,0,0,0,1.34-3l.38-133.29a6.41,6.41,0,0,0-.09-1.06l0-.17a7.56,7.56,0,0,0-.23-1l0-.1a9.44,9.44,0,0,0-.4-1.08v0a10.88,10.88,0,0,0-.54-1.08l0,0a9.16,9.16,0,0,0-.64-1l-.06-.09c-.22-.28-.44-.55-.68-.81l-.15-.16c-.19-.2-.38-.37-.58-.55l-.27-.23a7.1,7.1,0,0,0-.87-.6l-148-85.43a4.48,4.48,0,0,0-.58-.29Z"/><g class="cls-5"><path class="cls-6" d="M507.6,65.57c-2.55-1.47-4.62-.3-4.63,2.63l0,9.18,157.2,90.76,0-9.18a10.1,10.1,0,0,0-4.59-8Z"/><path class="cls-7" d="M668.94,152.92s0-.1,0-.15l0-.17c0-.11,0-.21-.06-.32a5.11,5.11,0,0,0-.13-.53c0-.05,0-.1,0-.16l0-.09a1.87,1.87,0,0,1-.07-.22c0-.15-.1-.29-.16-.43l-.16-.42v0l-.17-.36c-.06-.13-.13-.26-.2-.39a2,2,0,0,0-.18-.32v0l0,0-.24-.39c-.09-.13-.17-.26-.27-.39l-.12-.17-.06-.08-.12-.17c-.12-.15-.25-.31-.38-.45s-.12-.13-.17-.19l-.16-.17-.17-.18c-.13-.13-.27-.24-.41-.36a3,3,0,0,0-.27-.23,8,8,0,0,0-.86-.61l-148-85.43c-.22-.12-.43-.23-.64-.32l-.21-.07-.16-.06a.85.85,0,0,1-.17-.06l-.41-.08-.17,0h-.48a1.33,1.33,0,0,0-.28,0h-.09l-.17,0-.24.08a1.67,1.67,0,0,0-.23.12h0l-8.83,5.14A2.1,2.1,0,0,1,505,65h0a2.57,2.57,0,0,1,.74,0h.07a3.6,3.6,0,0,1,.75.16l.17.06a5.7,5.7,0,0,1,.85.39l148,85.43a7.1,7.1,0,0,1,.87.6l.27.24c.19.17.39.35.58.54l.15.16c.23.26.46.53.67.81l.07.09a11,11,0,0,1,.64,1l0,0a10.88,10.88,0,0,1,.54,1.08v0a8.93,8.93,0,0,1,.4,1.09l0,.09a9.18,9.18,0,0,1,.23,1l0,.16a6.39,6.39,0,0,1,.08,1.06l0,9.18L669,163l0-9.18A7,7,0,0,0,668.94,152.92Z"/></g><path class="cls-2" d="M628.63,139.8c-1.59-.93-2.89-.19-2.89,1.65a6.33,6.33,0,0,0,2.87,5c1.6.92,2.9.18,2.9-1.65A6.31,6.31,0,0,0,628.63,139.8Z"/><path class="cls-2" d="M638.55,145.52c-1.6-.92-2.9-.18-2.9,1.65a6.33,6.33,0,0,0,2.88,5c1.6.92,2.9.18,2.9-1.65A6.33,6.33,0,0,0,638.55,145.52Z"/><path class="cls-2" d="M648.47,151.25c-1.6-.92-2.9-.18-2.9,1.65a6.35,6.35,0,0,0,2.88,5c1.6.92,2.9.18,2.9-1.65A6.33,6.33,0,0,0,648.47,151.25Z"/><polygon class="cls-2" points="532.8 125.99 532.81 129.95 521.2 123.12 521.19 119.17 532.8 125.99"/><g class="cls-5"><polygon class="cls-2" points="603.04 241.92 603.05 245.87 561.68 221.55 561.68 217.6 603.04 241.92"/><polygon class="cls-2" points="615.29 221.14 615.29 225.09 561.63 193.53 561.62 189.58 615.29 221.14"/><polygon class="cls-2" points="639.24 225.89 639.25 229.85 561.61 184.19 561.6 180.24 639.24 225.89"/><polygon class="cls-2" points="615.9 240.15 615.9 244.1 540.37 199.69 540.36 195.74 615.9 240.15"/><polygon class="cls-2" points="569.52 203.56 569.53 207.51 540.35 190.35 540.34 186.4 569.52 203.56"/><polygon class="cls-2" points="639.2 207.21 639.21 211.17 561.57 165.51 561.56 161.56 639.2 207.21"/><polygon class="cls-2" points="554.65 185.48 554.66 189.44 540.33 181.01 540.32 177.06 554.65 185.48"/><polygon class="cls-2" points="634.88 195.34 634.89 199.3 561.55 156.18 561.54 152.22 634.88 195.34"/><polygon class="cls-2" points="626.95 209.34 626.96 213.29 540.29 162.33 540.28 158.38 626.95 209.34"/><polygon class="cls-2" points="554.6 157.47 554.6 161.42 540.27 152.99 540.26 149.04 554.6 157.47"/><polygon class="cls-2" points="554.58 148.13 554.58 152.08 540.25 143.65 540.24 139.7 554.58 148.13"/><polygon class="cls-2" points="626.89 181.32 626.9 185.27 540.23 134.31 540.23 130.36 626.89 181.32"/><polygon class="cls-2" points="609.53 160.34 609.53 164.3 521.18 112.35 521.17 108.39 609.53 160.34"/></g><polygon class="cls-2" points="644.96 181.18 644.97 185.13 639.74 182.06 639.73 178.1 644.96 181.18"/><polygon class="cls-2" points="532.86 154.01 532.87 157.97 521.26 151.14 521.25 147.19 532.86 154.01"/><polygon class="cls-2" points="554.63 176.15 554.64 180.1 540.31 171.67 540.3 167.72 554.63 176.15"/><polygon class="cls-2" points="554.71 213.5 554.72 217.46 540.39 209.03 540.38 205.08 554.71 213.5"/><path class="cls-7" d="M395.51,419.38c2.31,1.34,2.32,3.5,0,4.83l-9.33,5.42-114.37-66,9.32-5.42a9.21,9.21,0,0,1,8.34,0Z"/><path class="cls-4" d="M271.84,363.59l114.37,66-61.08,35.5a9.18,9.18,0,0,1-8.34,0l-106-61.21c-2.3-1.33-2.31-3.49,0-4.83Zm30,40a15.75,15.75,0,0,1,10.38-1.23l2.43-2.54q-9.24-2.86-17.14.3l-5.37,2.37c-3.35,1.45-6.33,1.48-9,.08l-4.64,2.24c1.56,1.08,1.65,2.11.24,3.09a10.23,10.23,0,0,1-1.64.9l-4.79,2.11c-2.59,1.23-4.19,2.62-4.78,4.2s-.15,3.19,1.3,4.86l4.56-1.19q-1.32-2,2.14-3.88l1.25-.63,5.48-2.44a8.12,8.12,0,0,0,3.13-2.37,3.14,3.14,0,0,0,.55-2.73,18.52,18.52,0,0,0,10.53-.79l5.36-2.35m12.59,21.86,4.64-2.24q-2.36-1.62-.21-3.11a12.72,12.72,0,0,1,1.65-.91l4.76-2.1c2.54-1.19,4.14-2.55,4.77-4.1s.21-3.16-1.26-4.87l-4.56,1.13c.86,1.34.13,2.63-2.16,3.85l-1.26.64-5.48,2.44a8.3,8.3,0,0,0-3.16,2.38,3,3,0,0,0-.48,2.77,18.18,18.18,0,0,0-10.55.72l-5.38,2.36a15.66,15.66,0,0,1-10.37,1.23L283,428.2a25.12,25.12,0,0,0,17.9-.62l4.64-2.06c3.28-1.45,6.28-1.47,9-.07"/><path class="cls-2" d="M328.82,408.12c1.47,1.71,1.89,3.34,1.26,4.87s-2.23,2.91-4.77,4.1l-4.76,2.1a12.72,12.72,0,0,0-1.65.91q-2.14,1.48.21,3.11l-4.64,2.24c-2.69-1.4-5.69-1.38-9,.07l-4.64,2.06a25.12,25.12,0,0,1-17.9.62l2.46-2.56a15.66,15.66,0,0,0,10.37-1.23l5.38-2.36a18.18,18.18,0,0,1,10.55-.72,3,3,0,0,1,.48-2.77,8.3,8.3,0,0,1,3.16-2.38l5.48-2.44,1.26-.64c2.29-1.22,3-2.51,2.16-3.85Z"/><path class="cls-2" d="M314.69,399.82l-2.43,2.54a15.75,15.75,0,0,0-10.38,1.23l-5.36,2.35a18.52,18.52,0,0,1-10.53.79,3.14,3.14,0,0,1-.55,2.73,8.12,8.12,0,0,1-3.13,2.37l-5.48,2.44-1.25.63q-3.46,1.85-2.14,3.88L268.88,420c-1.45-1.67-1.89-3.3-1.3-4.86s2.19-3,4.78-4.2l4.79-2.11a10.23,10.23,0,0,0,1.64-.9c1.41-1,1.32-2-.24-3.09l4.64-2.24c2.66,1.4,5.64,1.37,9-.08l5.37-2.37Q305.44,397,314.69,399.82Z"/><path class="cls-8" d="M348.52,228.72l158.33,91.22a5.06,5.06,0,0,1,0,8.76L391.54,395.75a5,5,0,0,1-5.15,0L227.16,300a5.07,5.07,0,0,1,.21-8.8l116.22-62.58A5.06,5.06,0,0,1,348.52,228.72Z"/><path class="cls-4" d="M491.29,305c3.82,2.21,3.85,5.81,0,8l-99.86,58a15.23,15.23,0,0,1-13.82,0l-153-88.31c-3.83-2.21-3.86-5.79-.06-8l99.86-58a15.27,15.27,0,0,1,13.84,0Z"/><path class="cls-8" d="M277,254.9l48-27.51a8.56,8.56,0,0,1,8.55,0l139.13,80.29a2.15,2.15,0,0,1,0,3.73l-48,27.51a8.56,8.56,0,0,1-8.55,0L277,258.63A2.15,2.15,0,0,1,277,254.9Z"/><path class="cls-8" d="M287.44,302.3l20.79-11.66a6.59,6.59,0,0,1,6.52,0L355.21,314a1.75,1.75,0,0,1,0,3.05l-20.8,11.67a6.62,6.62,0,0,1-6.52,0l-40.46-23.35A1.76,1.76,0,0,1,287.44,302.3Z"/><path class="cls-1" d="M494.17,309.12a5.51,5.51,0,0,1-.06.57,4.21,4.21,0,0,1-.16.55,4.55,4.55,0,0,1-.26.55,5.57,5.57,0,0,1-.4.59,6,6,0,0,1-.6.65,8.32,8.32,0,0,1-1.24.92l-.12.07-99.86,58a10.91,10.91,0,0,1-2.14.94,15.46,15.46,0,0,1-1.84.46c-.41.07-.83.13-1.25.17s-.72.06-1.08.07-.67,0-1,0l-1-.05c-.32,0-.64-.06-1-.11s-.65-.1-1-.17-.69-.15-1-.25a11.07,11.07,0,0,1-1.19-.4,10.21,10.21,0,0,1-1.41-.68l-153-88.31c-1.93-1.11-2.9-2.58-2.89-4l0,7.69c0,1.46,1,2.93,2.89,4l153,88.31a10.21,10.21,0,0,0,1.41.68c.38.15.78.28,1.19.4s.67.18,1,.25.65.12,1,.17.63.08.95.11l1,.05c.33,0,.67,0,1,0s.72,0,1.08-.07.84-.1,1.24-.17a15.16,15.16,0,0,0,1.85-.46,10.91,10.91,0,0,0,2.14-.94l99.86-58,.12-.07a8.21,8.21,0,0,0,1.23-.92,6.12,6.12,0,0,0,.61-.65,4.29,4.29,0,0,0,.39-.59,4.65,4.65,0,0,0,.27-.55,4.12,4.12,0,0,0,.15-.55,3.7,3.7,0,0,0,.07-.57v-.08l0-7.69Z"/><path class="cls-7" d="M528.86,183.16a.62.62,0,0,0,0-.13.62.62,0,0,0,0-.13s0-.09,0-.13,0-.09,0-.13l0-.14a.59.59,0,0,0,0-.14c0-.05,0-.1,0-.15a.74.74,0,0,0,0-.14.83.83,0,0,0,0-.15s0-.09,0-.14,0-.09-.05-.14,0-.09,0-.13a1.12,1.12,0,0,1,0-.13l-.06-.13-.06-.14c0-.05-.05-.09-.07-.14l-.09-.17-.15-.26a2.29,2.29,0,0,0-.18-.29l-.17-.25-.12-.16-.11-.13-.1-.12-.11-.12-.11-.11a.57.57,0,0,0-.11-.11l-.12-.11-.12-.11-.12-.1-.12-.09-.12-.08-.12-.08-.11-.07,0,0L361,83.24l-.08,0-.12-.06-.1,0-.11,0-.11,0-.11,0-.11,0-.12,0-.11,0h-.39l-.16,0-.18,0a.88.88,0,0,0-.22.1L355,85.41l.22-.1.19,0,.15,0h.27l.12,0,.12,0,.11,0,.11,0,.11,0,.11,0,.11,0,.11.06.11,0,.09,0L522.09,181h0l.12.07.11.08.12.08.12.09.12.1.12.11.12.11.12.11.11.12.1.11.11.13.1.12.12.16.18.26.18.28.15.26.09.18.06.13.06.14.06.13s0,.09,0,.13a.78.78,0,0,1,.05.14.69.69,0,0,1,0,.13c0,.05,0,.1.05.15s0,.09,0,.14,0,.1,0,.15l0,.14,0,.14a.68.68,0,0,1,0,.14.59.59,0,0,1,0,.13c0,.05,0,.09,0,.14a.62.62,0,0,0,0,.13v.13s0,.08,0,.12a.62.62,0,0,0,0,.13.53.53,0,0,1,0,.13.66.66,0,0,1,0,.14s0,.08,0,.13v0L501.1,308.91a.43.43,0,0,0,0,.11.74.74,0,0,0,0,.14.78.78,0,0,1-.05.14l-.06.16a1.74,1.74,0,0,1-.11.18,1.24,1.24,0,0,1-.46.45l4.07-2.36a1.32,1.32,0,0,0,.46-.45,1.14,1.14,0,0,0,.1-.19,1,1,0,0,0,.07-.15c0-.05,0-.1.05-.15l0-.13a.43.43,0,0,0,0-.11l23.65-122.7v0a.68.68,0,0,1,0-.14s0-.09,0-.13,0-.09,0-.13v-.26Z"/><path class="cls-4" d="M522.09,181a5.75,5.75,0,0,1,2.65,5.25L501.1,308.91c-.25,1.34-1.37,1.74-2.68,1L333.28,214.55a5.75,5.75,0,0,1-2.66-5.26l23.64-122.7c.25-1.33,1.37-1.74,2.67-1Z"/><path class="cls-2" d="M338,210.1a2.16,2.16,0,0,1-.28-.52L359.86,94.45l157.54,91a2.28,2.28,0,0,1,.29.52L495.5,301.05Z"/><path class="cls-9" d="M323,234.94l5.45,3.14.19.09.16.05.14,0,.13,0,.13,0h.42l.17,0,.26-.07a1.36,1.36,0,0,0,.3-.13l3.11-1.8h0a1.4,1.4,0,0,0,.18-.13l.08-.09.06-.09,0-.07,0-.08v-.08h0v-2.15a.17.17,0,0,1,0,.07.24.24,0,0,1,0,.08.3.3,0,0,1,0,.08l0,.08a1.29,1.29,0,0,1-.26.22h0l-3.1,1.8a1.73,1.73,0,0,1-.31.14l-.25.06-.18,0h-.42l-.13,0-.13,0-.14,0-.16-.06a.61.61,0,0,1-.18-.09L323,232.77a.68.68,0,0,1-.4-.56v2.17A.71.71,0,0,0,323,234.94Z"/><path class="cls-9" d="M332.19,237.75v2.17a.68.68,0,0,0,.4.56l5.43,3.13.2.1.16,0,.14,0,.14,0h.55l.17,0,.25-.07a1.36,1.36,0,0,0,.3-.13L343,241.8h0l.17-.13.09-.09.05-.09,0-.07,0-.08s0-.05,0-.07v-2.18h0a.25.25,0,0,1,0,.08.19.19,0,0,1,0,.07l0,.08-.06.08-.08.09a1.4,1.4,0,0,1-.18.13h0l-3.11,1.8a1.38,1.38,0,0,1-.3.14l-.26.06-.17,0h-.42l-.13,0-.13,0-.14,0-.17-.05-.2-.1-5.43-3.13A.71.71,0,0,1,332.19,237.75Z"/><path class="cls-9" d="M341.77,243.28v2.17a.7.7,0,0,0,.41.56l5.44,3.14.19.09.16,0,.14,0,.13,0,.13,0h.42l.17,0,.26-.07a1.36,1.36,0,0,0,.3-.13l3.11-1.8h0l.17-.13.09-.09L353,247l0-.07,0-.08s0-.05,0-.08h0v-2.15a.17.17,0,0,1,0,.07.24.24,0,0,1,0,.08l0,.08-.06.08-.08.09a1.4,1.4,0,0,1-.18.13h0l-3.11,1.8a1.38,1.38,0,0,1-.3.14l-.26.06-.17,0h-.15a.33.33,0,0,1-.14,0h-.13l-.13,0-.13,0-.14,0-.16-.06a.66.66,0,0,1-.19-.09l-5.45-3.14A.68.68,0,0,1,341.77,243.28Z"/><path class="cls-9" d="M351.37,248.82V251a.68.68,0,0,0,.4.56l5.43,3.13a.72.72,0,0,0,.2.09,1,1,0,0,0,.16.06l.15,0,.13,0h.55l.17,0,.26-.07a1.6,1.6,0,0,0,.3-.13l3.1-1.81h0a.83.83,0,0,0,.17-.12.76.76,0,0,0,.09-.09.41.41,0,0,0,.05-.09.25.25,0,0,0,0-.07.24.24,0,0,0,0-.08.17.17,0,0,0,0-.07v-2.18h0a.17.17,0,0,0,0,.07.31.31,0,0,0,0,.08l0,.08-.06.08-.08.09-.17.13h0l-3.11,1.8a1,1,0,0,1-.3.13l-.25.07-.18,0H358l-.13,0-.14,0-.14,0-.16,0a1.24,1.24,0,0,1-.2-.1l-5.43-3.13A.66.66,0,0,1,351.37,248.82Z"/><path class="cls-9" d="M360.94,254.35v2.17a.68.68,0,0,0,.4.56l5.45,3.14.18.09.16.05.14,0,.13,0H368l.18,0,.25-.07a1.69,1.69,0,0,0,.31-.13l3.1-1.8h0l.17-.13.09-.09a.41.41,0,0,0,.05-.09.25.25,0,0,0,0-.07.24.24,0,0,0,0-.08.22.22,0,0,0,0-.08h0V255.7s0,.05,0,.07l0,.08a.59.59,0,0,0,0,.08s0,0-.06.08l-.08.09-.17.13h0l-3.11,1.8a1.38,1.38,0,0,1-.3.14l-.26.06-.17,0h-.42l-.13,0-.13,0-.14,0-.16-.06a.66.66,0,0,1-.19-.09l-5.44-3.14A.7.7,0,0,1,360.94,254.35Z"/><path class="cls-9" d="M370.54,259.89v2.17a.68.68,0,0,0,.4.55l5.43,3.14a.88.88,0,0,0,.2.09l.17.06a.58.58,0,0,0,.14,0l.13,0h.55l.17,0,.26-.07a1.36,1.36,0,0,0,.3-.13l3.11-1.81h0l.18-.12.08-.09.06-.09,0-.07a.24.24,0,0,0,0-.08.17.17,0,0,0,0-.07v-2.18h0s0,.05,0,.07,0,.06,0,.08a.3.3,0,0,1,0,.08l-.05.08a.76.76,0,0,1-.09.09,1.26,1.26,0,0,1-.17.13h0l-3.1,1.8a1.3,1.3,0,0,1-.3.13l-.26.07-.17,0h-.42l-.13,0-.13,0-.15,0-.16-.05-.2-.1-5.43-3.13A.68.68,0,0,1,370.54,259.89Z"/><path class="cls-9" d="M380.12,265.42v2.17a.66.66,0,0,0,.4.55l5.43,3.14a.88.88,0,0,0,.2.09.85.85,0,0,0,.17.06l.14,0,.13,0h.55l.17,0,.26-.07a1.36,1.36,0,0,0,.3-.13l3.11-1.81h0l.18-.12.08-.09.06-.09,0-.07a.24.24,0,0,0,0-.08.17.17,0,0,0,0-.07v-2.18h0s0,.05,0,.07,0,.06,0,.08l0,.08-.05.08-.09.09a1.26,1.26,0,0,1-.17.13h0l-3.1,1.8a1.2,1.2,0,0,1-.31.13l-.25.07-.17,0h-.42l-.13,0-.14,0-.14,0-.16-.05-.2-.1L380.52,266A.68.68,0,0,1,380.12,265.42Z"/><path class="cls-9" d="M389.71,271v2.17a.67.67,0,0,0,.39.55l5.45,3.14a.72.72,0,0,0,.2.09.76.76,0,0,0,.16.06l.14,0,.14,0h.54l.18,0,.25-.07a1.36,1.36,0,0,0,.3-.13l3.11-1.81h0l.17-.12a.39.39,0,0,0,.08-.1.24.24,0,0,0,.06-.08.21.21,0,0,0,0-.07l0-.08a.25.25,0,0,1,0-.08h0V272.3h0a.17.17,0,0,1,0,.07.24.24,0,0,1,0,.08l0,.08-.06.08-.08.09a1.4,1.4,0,0,1-.18.13h0l-3.11,1.8a1.36,1.36,0,0,1-.3.13l-.26.07-.17,0h-.55l-.13,0-.14,0-.17-.05-.2-.1-5.44-3.14A.67.67,0,0,1,389.71,271Z"/><path class="cls-9" d="M399.29,276.49v2.17a.67.67,0,0,0,.41.55l5.43,3.14a.66.66,0,0,0,.19.09l.17.06.14,0,.13,0h.14v-2.16l-.13,0-.13,0-.14,0-.17-.05a1.24,1.24,0,0,1-.2-.1l-5.43-3.13A.68.68,0,0,1,399.29,276.49Z"/><path class="cls-9" d="M406,282.58h.28l.18,0,.25-.07a1.36,1.36,0,0,0,.3-.13l3.11-1.81h0l.17-.12.08-.09.06-.09,0-.07,0-.08v-2.25h0a.17.17,0,0,1,0,.07.24.24,0,0,1,0,.08.3.3,0,0,1,0,.08l-.05.08-.08.09a1.4,1.4,0,0,1-.18.13h0l-3.1,1.8a1,1,0,0,1-.3.13l-.26.07-.17,0h-.42v2.16Z"/><polygon class="cls-9" points="405.89 280.4 405.89 280.41 405.89 280.41 405.89 280.4"/><path class="cls-9" d="M408.88,282v2.17a.64.64,0,0,0,.39.54l5.44,3.15a1.21,1.21,0,0,0,.2.09l.16.06.15,0,.13,0h.55l.17,0a1.22,1.22,0,0,0,.26-.06,1.94,1.94,0,0,0,.3-.13l3.1-1.81h0a.76.76,0,0,0,.17-.13.26.26,0,0,0,.09-.09.22.22,0,0,0,.05-.08.25.25,0,0,0,0-.07s0-.05,0-.08,0-.05,0-.08h0v-2.08l0,.08,0,.08-.06.08-.08.09-.17.13h0l-3.11,1.8a1.36,1.36,0,0,1-.3.13l-.25.07-.18,0h-.55l-.13,0-.14,0-.17-.05-.19-.1-5.45-3.14A.67.67,0,0,1,408.88,282Z"/><path class="cls-9" d="M418.46,287.56v2.17a.66.66,0,0,0,.4.55l5.43,3.14a1.21,1.21,0,0,0,.2.09,1,1,0,0,0,.16.06l.14,0,.14,0h.55l.17,0a1,1,0,0,0,.25-.06,1.36,1.36,0,0,0,.3-.13l3.11-1.81h0l.17-.12.09-.1a.22.22,0,0,0,.05-.08.25.25,0,0,0,0-.07l0-.08s0,0,0-.08h0V288.9h0a.17.17,0,0,1,0,.07.24.24,0,0,1,0,.08l0,.08-.06.08-.08.09a1.4,1.4,0,0,1-.18.13h0l-3.11,1.8a1.36,1.36,0,0,1-.3.13l-.26.07-.17,0h-.55l-.13,0-.14,0-.17,0-.19-.1-5.43-3.13A.7.7,0,0,1,418.46,287.56Z"/><path class="cls-9" d="M428.06,293.1v2.17a.65.65,0,0,0,.39.54l5.44,3.15a1.76,1.76,0,0,0,.2.09l.17.06.14,0,.13,0h.55l.17,0a1.1,1.1,0,0,0,.26-.06,1.36,1.36,0,0,0,.3-.13l3.11-1.81h0a.83.83,0,0,0,.18-.13.34.34,0,0,0,.08-.09l.06-.08,0-.07a.24.24,0,0,0,0-.08.19.19,0,0,0,0-.08h0v-2.15s0,.05,0,.07,0,.05,0,.08l0,.08-.05.08-.09.09a1.26,1.26,0,0,1-.17.13h0l-3.1,1.8a1.94,1.94,0,0,1-.3.13l-.26.07-.17,0h-.55l-.14,0-.14,0-.16-.05-.2-.1-5.45-3.14A.67.67,0,0,1,428.06,293.1Z"/><path class="cls-9" d="M438,299.19a.68.68,0,0,1-.4-.56v2.17a.66.66,0,0,0,.4.55l7.63,4.41.2.09v-2.17a.66.66,0,0,1-.19-.09Z"/><path class="cls-9" d="M446,305.91l.14,0,.14,0h.55l.17,0a1,1,0,0,0,.25-.06,2.08,2.08,0,0,0,.3-.13l3.11-1.81h0a1.09,1.09,0,0,0,.17-.13l.09-.09a.22.22,0,0,0,.05-.08l0-.08s0-.05,0-.07,0-.05,0-.08h0v-2.17h0a.19.19,0,0,1,0,.08.24.24,0,0,1,0,.08l0,.07-.06.08a.39.39,0,0,1-.08.1l-.18.12h0l-3.11,1.81a1.36,1.36,0,0,1-.3.13l-.26.07-.17,0h-.55l-.13,0-.14,0-.17-.06v2.17Z"/><polygon class="cls-9" points="445.86 303.68 445.86 303.68 445.86 303.68 445.86 303.68"/><path class="cls-9" d="M462.92,308.08a.25.25,0,0,1,0,.08.19.19,0,0,1,0,.07l0,.08-.05.08-.09.09a.84.84,0,0,1-.17.13h0l-3.1,1.8a1.64,1.64,0,0,1-.3.14l-.26.06-.17,0h-.42l-.13,0-.13,0-.15,0-.16-.05-.2-.1L449.81,306a.62.62,0,0,1-.38-.54v2.17a.67.67,0,0,0,.39.54l7.69,4.44.19.1.17.05.14,0,.13,0h.55l.17,0,.26-.07a1.36,1.36,0,0,0,.3-.13l3.11-1.8h0a1.4,1.4,0,0,0,.18-.13l.08-.09.06-.09,0-.07a.24.24,0,0,0,0-.08.17.17,0,0,0,0-.07v-2.18Z"/><path class="cls-9" d="M313.66,240.36l5.44,3.14.19.1.16.05.14,0,.13,0h.55l.18,0a1.14,1.14,0,0,0,.25-.06l.31-.13,5.39-3.14h0a1.09,1.09,0,0,0,.17-.13l.09-.09a.35.35,0,0,0,.05-.08l0-.08s0-.05,0-.07,0-.06,0-.08h0v-2.17h0a.22.22,0,0,1,0,.08.19.19,0,0,1,0,.07l0,.08-.06.08-.08.09a.83.83,0,0,1-.18.13h0l-5.4,3.14a1.36,1.36,0,0,1-.3.13l-.26.07-.17,0h-.55l-.13,0-.14,0-.16,0-.19-.09-5.44-3.15a.67.67,0,0,1-.41-.56v2.17A.67.67,0,0,0,313.66,240.36Z"/><path class="cls-9" d="M329.05,249.19l.14,0,.13,0,.13,0h.42l.17,0a2,2,0,0,0,.26-.06,2.08,2.08,0,0,0,.3-.13L336,245.9h0a.59.59,0,0,0,.17-.13.76.76,0,0,0,.09-.09.35.35,0,0,0,.05-.08.3.3,0,0,0,0-.08.19.19,0,0,0,0-.07.22.22,0,0,0,0-.08h0v-2.17h0s0,.05,0,.08l0,.08,0,.07a.56.56,0,0,1-.05.08l-.09.09a1.09,1.09,0,0,1-.17.13h0l-5.39,3.14a1.94,1.94,0,0,1-.3.13,1.22,1.22,0,0,1-.26.06l-.17,0h-.55l-.14,0-.14,0-.16-.06v2.17Z"/><path class="cls-9" d="M328.69,246.87l-5.43-3.14a.66.66,0,0,1-.4-.56v2.17a.67.67,0,0,0,.4.56l5.43,3.14.2.09V247A1.21,1.21,0,0,1,328.69,246.87Z"/><polygon class="cls-9" points="328.89 246.96 328.89 246.96 328.89 246.96 328.89 246.96"/><path class="cls-9" d="M304.32,245.79l10.1,5.84.2.1.17.05.14,0,.13,0,.13,0h.42l.17,0,.26-.06a1.64,1.64,0,0,0,.3-.14l5.39-3.13h0a1.26,1.26,0,0,0,.17-.13l.09-.09a.35.35,0,0,0,.05-.08l0-.08s0-.05,0-.07,0-.06,0-.08h0v-2.17h0v.08l0,.07,0,.08-.06.08-.08.09a1.09,1.09,0,0,1-.17.13h0l-5.4,3.14a2.08,2.08,0,0,1-.3.13,1.83,1.83,0,0,1-.25.06l-.17,0h-.42l-.13,0-.14,0-.14,0-.16-.06-.2-.09-10.1-5.85a.68.68,0,0,1-.4-.56v2.17A.71.71,0,0,0,304.32,245.79Z"/><path class="cls-9" d="M346,248.8s0,0,0,.07a.59.59,0,0,1,0,.08.24.24,0,0,1-.06.08l-.08.09a1.09,1.09,0,0,1-.17.13h0l-5.4,3.14a1.36,1.36,0,0,1-.3.13,3.12,3.12,0,0,1-.43.09h-.55l-.13,0-.14,0-.16-.05-.19-.09-5.44-3.15a.66.66,0,0,1-.4-.56v2.17a.67.67,0,0,0,.4.56l5.45,3.14.19.1.16.05.13,0,.14,0h.54l.18,0a1.22,1.22,0,0,0,.26-.06,2.71,2.71,0,0,0,.3-.13l5.39-3.14h0a1.29,1.29,0,0,0,.26-.22.35.35,0,0,0,0-.08.3.3,0,0,0,0-.08.19.19,0,0,0,0-.07.25.25,0,0,0,0-.08h0v-2.17h0S346,248.77,346,248.8Z"/><path class="cls-9" d="M318.42,251.44v2.17a.71.71,0,0,0,.4.56L328.94,260l.19.09.16.05.14,0,.13,0h.55l.17,0,.26-.07a1.36,1.36,0,0,0,.3-.13l5.4-3.13h0l.17-.13.08-.09.06-.09a.21.21,0,0,0,0-.07l0-.08a.22.22,0,0,1,0-.08h0v-2.15a.17.17,0,0,1,0,.07.24.24,0,0,1,0,.08l0,.08-.06.08-.08.09a1.4,1.4,0,0,1-.18.13h0l-5.39,3.13a1.38,1.38,0,0,1-.3.14l-.26.06-.17,0h-.42l-.13,0-.13,0-.14,0-.16-.06a.66.66,0,0,1-.19-.09L318.82,252A.67.67,0,0,1,318.42,251.44Z"/><path class="cls-9" d="M295,251.21l15,8.67.2.1v-2.17l-.2-.09L295,249a.67.67,0,0,1-.41-.56v2.17A.67.67,0,0,0,295,251.21Z"/><path class="cls-9" d="M310.38,260l.14,0,.13,0,.13,0h.42l.17,0,.26-.06a1.38,1.38,0,0,0,.3-.14l5.39-3.13h0a.83.83,0,0,0,.18-.13l.08-.09a.35.35,0,0,0,0-.08.3.3,0,0,0,0-.08.19.19,0,0,0,0-.07.22.22,0,0,0,0-.08h0V254h0s0,.05,0,.08,0,0,0,.08l0,.07a.56.56,0,0,1-.05.08l-.09.09a1.09,1.09,0,0,1-.17.13h0l-5.39,3.14-.3.13a1.22,1.22,0,0,1-.26.06l-.17,0h-.55l-.14,0-.14,0-.16-.06V260Z"/><polygon class="cls-9" points="310.22 257.81 310.22 257.81 310.22 257.81 310.22 257.81"/><path class="cls-9" d="M298.41,256.63a1.4,1.4,0,0,0,.18-.13l.08-.09.06-.09,0-.07a.24.24,0,0,0,0-.08.22.22,0,0,0,0-.08h0v-2.15a.17.17,0,0,1,0,.07.24.24,0,0,1,0,.08l0,.08-.05.08-.09.09a1.26,1.26,0,0,1-.17.13h0l-7.68,4.46a1.64,1.64,0,0,1-.3.14l-.26.06-.17,0h-.42l-.13,0-.14,0-.13,0L289,259a.66.66,0,0,1-.19-.09l-5.45-3.14a.68.68,0,0,1-.4-.56v2.17a.7.7,0,0,0,.41.56l5.44,3.14.19.09.16.05.14,0,.13,0H290l.17,0,.26-.07a1.36,1.36,0,0,0,.3-.13l7.69-4.46Z"/><path class="cls-9" d="M308,262.16l.17-.12.08-.09a.47.47,0,0,0,.06-.09.21.21,0,0,0,0-.07l0-.08a.17.17,0,0,1,0-.07v-2.18h0a.17.17,0,0,1,0,.07.19.19,0,0,1,0,.08l0,.08-.06.08-.08.09a1.4,1.4,0,0,1-.18.13h0l-7.69,4.46a1.36,1.36,0,0,1-.3.13l-.25.07-.18,0h-.41l-.13,0-.14,0-.14,0-.16-.05-.2-.1L293,261.34a.7.7,0,0,1-.41-.56V263a.66.66,0,0,0,.4.55l5.43,3.14a.72.72,0,0,0,.2.09,1,1,0,0,0,.16.06l.15,0,.13,0h.55l.17,0,.26-.07a1.6,1.6,0,0,0,.3-.13l7.68-4.47Z"/><path class="cls-9" d="M313.77,259.55v2.17a.67.67,0,0,0,.4.56l5.45,3.14a.66.66,0,0,0,.19.09l.16.06.13,0,.14,0h.55l.17,0a2.44,2.44,0,0,0,.26-.06,2.71,2.71,0,0,0,.3-.13l5.39-3.14h0a.59.59,0,0,0,.17-.13.76.76,0,0,0,.09-.09.35.35,0,0,0,.05-.08.3.3,0,0,0,0-.08.19.19,0,0,0,0-.07.25.25,0,0,0,0-.08h0v-2.17h0s0,.05,0,.08,0,.05,0,.07l0,.08a.56.56,0,0,1-.05.08l-.09.09a1.09,1.09,0,0,1-.17.13h0l-5.4,3.14a1.36,1.36,0,0,1-.3.13,1.14,1.14,0,0,1-.25.06l-.18,0h-.55l-.13,0a.7.7,0,0,1-.14,0l-.16,0-.19-.09-5.44-3.15A.66.66,0,0,1,313.77,259.55Z"/><path class="cls-9" d="M317.59,267.69l.17-.12a.39.39,0,0,0,.08-.1.24.24,0,0,0,.06-.08l0-.07a.24.24,0,0,1,0-.08s0-.05,0-.08h0V265h0a.19.19,0,0,1,0,.08.24.24,0,0,1,0,.08l0,.08-.06.08-.08.09a1.4,1.4,0,0,1-.18.13h0L309.89,270a1,1,0,0,1-.3.13l-.25.07-.18,0h-.42l-.13,0-.13,0-.14,0-.17,0L308,270l-5.43-3.13a.7.7,0,0,1-.41-.56v2.17a.66.66,0,0,0,.4.55l5.43,3.14a.72.72,0,0,0,.2.09,1,1,0,0,0,.16.06l.14,0,.14,0h.55l.17,0,.26-.07a1.94,1.94,0,0,0,.3-.13l7.68-4.47Z"/><path class="cls-9" d="M355.56,254.34l0,.08a.25.25,0,0,1,0,.07.22.22,0,0,1-.05.08l-.09.09a.76.76,0,0,1-.17.13h0l-5.39,3.14a2.08,2.08,0,0,1-.3.13,1.1,1.1,0,0,1-.26.06l-.17,0h-.55l-.13,0-.14,0-.17-.06-.2-.09-5.43-3.14a.66.66,0,0,1-.4-.56v2.17a.7.7,0,0,0,.41.56l5.43,3.13.19.1.17.06.14,0,.13,0,.14,0H349l.18,0,.25-.06a1.38,1.38,0,0,0,.3-.14l5.4-3.13h0a.83.83,0,0,0,.18-.13l.08-.09.06-.08,0-.08a.19.19,0,0,0,0-.07.22.22,0,0,0,0-.08h0v-2.17h0A.22.22,0,0,1,355.56,254.34Z"/><path class="cls-9" d="M345.85,262.38l.17-.12.09-.09a.41.41,0,0,0,.05-.09.25.25,0,0,0,0-.07s0-.05,0-.08,0-.05,0-.07v-2.18h0v.07l0,.08,0,.08-.06.08-.08.09-.17.13h0l-5.4,3.13a1,1,0,0,1-.3.13l-.25.07-.17,0h-.42l-.13,0-.14,0-.14,0-.16-.05-.2-.1-5.43-3.13a.68.68,0,0,1-.4-.56v2.17a.66.66,0,0,0,.4.55l5.43,3.14a.72.72,0,0,0,.2.09.85.85,0,0,0,.17.06l.14,0,.13,0h.55l.17,0,.26-.07a1.6,1.6,0,0,0,.3-.13l5.39-3.14Z"/><path class="cls-9" d="M323.76,267.82l5.43,3.13.2.1.16.06.14,0,.14,0,.13,0h.41l.18,0,.25-.06a1.38,1.38,0,0,0,.3-.14l5.4-3.13h0a.83.83,0,0,0,.18-.13l.08-.09.06-.08,0-.08a.19.19,0,0,0,0-.07.22.22,0,0,0,0-.08h0V265.1h0a.22.22,0,0,1,0,.08.31.31,0,0,1,0,.08.25.25,0,0,1,0,.07.22.22,0,0,1-.05.08.76.76,0,0,1-.09.09.59.59,0,0,1-.17.13h0l-5.39,3.14a2.08,2.08,0,0,1-.3.13,1.1,1.1,0,0,1-.26.06l-.17,0h-.55l-.13,0-.14,0-.17-.06-.2-.09-5.43-3.14a.67.67,0,0,1-.4-.56v2.17A.7.7,0,0,0,323.76,267.82Z"/><path class="cls-9" d="M327.18,273.23l.17-.12a.43.43,0,0,0,.09-.1.22.22,0,0,0,.05-.08.25.25,0,0,0,0-.07s0-.05,0-.08,0,0,0-.08h0v-2.16h0v.07l0,.08,0,.08-.06.08-.08.09-.17.13h0l-7.68,4.46a1.94,1.94,0,0,1-.3.13l-.26.07-.17,0h-.55l-.14,0-.14,0-.16-.05-.2-.1-5.43-3.13a.68.68,0,0,1-.4-.56V274a.68.68,0,0,0,.4.55l5.43,3.14a1.76,1.76,0,0,0,.2.09l.17.06.14,0,.13,0h.55a.86.86,0,0,0,.17,0,1.1,1.1,0,0,0,.26-.06,1.36,1.36,0,0,0,.3-.13l7.68-4.47Z"/><path class="cls-9" d="M365.14,259.87a.19.19,0,0,1,0,.07.2.2,0,0,1,0,.08.22.22,0,0,1-.05.08,1.29,1.29,0,0,1-.26.22h0l-5.39,3.14a1.6,1.6,0,0,1-.3.13,1.22,1.22,0,0,1-.26.06l-.18,0h-.54l-.14,0-.13,0-.16-.05-.19-.09L352,260.33a.66.66,0,0,1-.4-.56v2.17a.69.69,0,0,0,.41.56l5.44,3.14a.66.66,0,0,0,.19.09l.16.06.14,0,.13,0h.55l.17,0a2,2,0,0,0,.26-.06,2.08,2.08,0,0,0,.3-.13l5.4-3.14h0a.83.83,0,0,0,.18-.13l.08-.09.06-.08,0-.08a.19.19,0,0,0,0-.07.25.25,0,0,0,0-.08h0v-2.17h0A.22.22,0,0,1,365.14,259.87Z"/><path class="cls-9" d="M374.73,265.41a.31.31,0,0,1,0,.08l0,.07-.06.08-.08.09a.83.83,0,0,1-.18.13h0L369,269a2.08,2.08,0,0,1-.3.13,1.14,1.14,0,0,1-.25.06l-.18,0h-.55l-.13,0-.14,0-.17-.06L367,269l-5.43-3.14a.69.69,0,0,1-.41-.56v2.17a.68.68,0,0,0,.4.56l5.43,3.13.2.1.16.06.14,0,.14,0,.13,0h.13a.33.33,0,0,0,.14,0h.15l.17,0,.26-.06a2,2,0,0,0,.3-.14l5.39-3.13h0a1.09,1.09,0,0,0,.17-.13l.08-.09.06-.08s0-.05,0-.08a.19.19,0,0,1,0-.07s0-.05,0-.08h0v-2.17h0A.22.22,0,0,1,374.73,265.41Z"/><path class="cls-9" d="M342.67,267.92l5.45,3.15.18.09.16,0,.14,0,.13,0h.55l.18,0,.26-.07a1.94,1.94,0,0,0,.3-.13l5.39-3.14h0l.17-.13.09-.1a.22.22,0,0,0,.05-.08.25.25,0,0,0,0-.07s0-.05,0-.08,0,0,0-.08h0v-2.08l0,.08,0,.08-.06.08-.08.09a1.4,1.4,0,0,1-.18.13h0l-5.4,3.13a1,1,0,0,1-.3.13l-.26.07-.17,0h-.42l-.13,0-.13,0-.14,0-.16-.06a.66.66,0,0,1-.19-.09l-5.44-3.14a.7.7,0,0,1-.41-.56v2.17A.66.66,0,0,0,342.67,267.92Z"/><path class="cls-9" d="M352.26,273.46l5.43,3.14a1.76,1.76,0,0,0,.2.09l.17.06.14,0,.13,0h.55l.17,0,.26-.07a1.36,1.36,0,0,0,.3-.13l5.4-3.14h0l.18-.12a.39.39,0,0,0,.08-.1.22.22,0,0,0,.05-.08.25.25,0,0,0,0-.07.24.24,0,0,0,0-.08.19.19,0,0,0,0-.08h0v-2.16h0s0,.05,0,.07l0,.08a.3.3,0,0,1,0,.08l0,.08-.09.09-.17.13h0l-5.39,3.13a1.6,1.6,0,0,1-.3.13l-.26.07-.17,0h-.42l-.13,0-.13,0-.15,0-.16-.05a1.24,1.24,0,0,1-.2-.1l-5.43-3.13a.68.68,0,0,1-.4-.56v2.17A.68.68,0,0,0,352.26,273.46Z"/><path class="cls-9" d="M384.31,270.94a.24.24,0,0,1,0,.08.25.25,0,0,1,0,.07.22.22,0,0,1-.05.08l-.08.09a.83.83,0,0,1-.18.13h0l-5.4,3.14a2.08,2.08,0,0,1-.3.13,1.1,1.1,0,0,1-.26.06l-.17,0h-.55l-.13,0-.14,0-.17-.06-.2-.09-5.43-3.14a.68.68,0,0,1-.4-.56V273a.68.68,0,0,0,.4.56l5.43,3.13.2.1.16.06.14,0,.14,0,.13,0h.42l.17,0,.25-.06a1.38,1.38,0,0,0,.3-.14l5.4-3.13h0a1.09,1.09,0,0,0,.17-.13l.08-.09.06-.08,0-.08,0-.07V273h0v-2.17h0A.22.22,0,0,1,384.31,270.94Z"/><path class="cls-9" d="M361.84,279l5.43,3.14a.88.88,0,0,0,.2.09l.17.06.14,0,.13,0h.55l.17,0,.26-.07a1.36,1.36,0,0,0,.3-.13l5.39-3.14h0a.83.83,0,0,0,.17-.12l.09-.09a.41.41,0,0,0,.05-.09.25.25,0,0,0,0-.07.24.24,0,0,0,0-.08.17.17,0,0,0,0-.07v-2.18h0s0,0,0,.07,0,.06,0,.08,0,.05,0,.08a.56.56,0,0,0-.05.08l-.09.09-.17.13h0L369.2,280a1.3,1.3,0,0,1-.3.13l-.26.07-.17,0h-.42l-.13,0-.14,0-.14,0-.16-.05-.2-.1-5.43-3.13a.68.68,0,0,1-.4-.56v2.17A.68.68,0,0,0,361.84,279Z"/><path class="cls-9" d="M333.34,273.35l5.44,3.14a.66.66,0,0,0,.19.09l.16.06.14,0,.13,0,.13,0H340l.17,0a2,2,0,0,0,.26-.06,1.38,1.38,0,0,0,.3-.14l5.4-3.13h0a.83.83,0,0,0,.18-.13l.08-.09.06-.08,0-.08,0-.08v-.07h0v-2.17h0a.22.22,0,0,1,0,.08.19.19,0,0,1,0,.07.2.2,0,0,1,0,.08.22.22,0,0,1-.05.08l-.09.09a.76.76,0,0,1-.17.13h0l-5.39,3.14a2.71,2.71,0,0,1-.3.13,1.22,1.22,0,0,1-.26.06l-.18,0h-.54l-.14,0-.13,0-.16-.05-.19-.09-5.45-3.15a.66.66,0,0,1-.4-.56v2.17A.7.7,0,0,0,333.34,273.35Z"/><path class="cls-9" d="M342.93,278.89l5.43,3.13.2.1.16.05.14,0,.14,0,.13,0h.42l.17,0,.26-.06a2,2,0,0,0,.3-.14l5.39-3.13h0a1.09,1.09,0,0,0,.17-.13l.09-.09.05-.08,0-.08s0-.05,0-.07,0-.05,0-.08h0v-2.17h0a.22.22,0,0,1,0,.08.19.19,0,0,1,0,.07l0,.08-.06.08-.08.09a.83.83,0,0,1-.18.13h0l-5.4,3.14a2.08,2.08,0,0,1-.3.13,1.14,1.14,0,0,1-.25.06l-.18,0H349l-.13,0-.14,0-.17-.06-.19-.09-5.43-3.14a.69.69,0,0,1-.41-.56v2.17A.68.68,0,0,0,342.93,278.89Z"/><path class="cls-9" d="M352.51,284.42l5.43,3.13.2.1.16.06.14,0,.14,0,.13,0h.13a.33.33,0,0,0,.14,0h.15l.17,0,.25-.06a1.38,1.38,0,0,0,.3-.14l5.4-3.13h0a1.09,1.09,0,0,0,.17-.13l.08-.09a.42.42,0,0,0,.06-.08s0-.05,0-.08l0-.07a.22.22,0,0,1,0-.08h0V281.7h0a.22.22,0,0,1,0,.08.31.31,0,0,1,0,.08.25.25,0,0,1,0,.07.22.22,0,0,1-.05.08l-.08.09a.83.83,0,0,1-.18.13h0l-5.4,3.14a2.08,2.08,0,0,1-.3.13,1.1,1.1,0,0,1-.26.06l-.17,0h-.55l-.13,0-.14,0-.17-.06-.19-.09-5.43-3.14a.69.69,0,0,1-.41-.56v2.17A.68.68,0,0,0,352.51,284.42Z"/><path class="cls-9" d="M393.91,276.48l0,.07,0,.08a.24.24,0,0,1-.06.08l-.08.09a1.09,1.09,0,0,1-.17.13h0l-5.4,3.14a2.08,2.08,0,0,1-.3.13,1,1,0,0,1-.25.06l-.17,0h-.55l-.14,0-.14,0-.16-.06-.2-.09-5.45-3.15a.67.67,0,0,1-.39-.54v2.16a.67.67,0,0,0,.39.55l5.44,3.14.2.1.17.05.14,0,.13,0,.13,0h.42l.17,0,.26-.06a1.38,1.38,0,0,0,.3-.14l5.39-3.13h0a.76.76,0,0,0,.17-.13l.09-.09a.35.35,0,0,0,0-.08l0-.08s0-.05,0-.07a.22.22,0,0,0,0-.08h0v-2.17h0A.22.22,0,0,0,393.91,276.48Z"/><path class="cls-9" d="M371.42,284.52l5.45,3.15a1.21,1.21,0,0,0,.2.09V285.6l-.2-.1-5.44-3.14a.67.67,0,0,1-.39-.55V284A.64.64,0,0,0,371.42,284.52Z"/><path class="cls-9" d="M377.23,287.82l.14,0,.14,0h.55l.17,0a1,1,0,0,0,.25-.06,1.36,1.36,0,0,0,.3-.13l5.4-3.14h0l.17-.12a.39.39,0,0,0,.08-.1l.06-.08,0-.07,0-.08V284h0v-2.16h0a.17.17,0,0,1,0,.07.24.24,0,0,1,0,.08l0,.08-.05.08-.08.09a1.4,1.4,0,0,1-.18.13h0l-5.39,3.13a1.36,1.36,0,0,1-.3.13l-.26.07-.17,0h-.55l-.13,0-.14,0-.17,0v2.16Z"/><polygon class="cls-9" points="377.07 285.6 377.07 285.6 377.07 285.6 377.07 285.6"/><path class="cls-9" d="M362.09,290l5.44,3.14.2.1.17.05.14,0,.13,0,.13,0h.42l.17,0,.26-.06a1.38,1.38,0,0,0,.3-.14l5.39-3.13h0a.59.59,0,0,0,.17-.13.76.76,0,0,0,.09-.09.35.35,0,0,0,.05-.08.3.3,0,0,0,0-.08.19.19,0,0,0,0-.07.25.25,0,0,0,0-.08h0v-2.17h0a.22.22,0,0,0,0,.08l0,.07a.19.19,0,0,1,0,.08.24.24,0,0,1-.06.08l-.08.09a1.09,1.09,0,0,1-.17.13h0l-5.4,3.14a2.08,2.08,0,0,1-.3.13,1.83,1.83,0,0,1-.25.06l-.17,0h-.42l-.13,0-.14,0-.14,0-.16-.06-.2-.09-5.45-3.15a.67.67,0,0,1-.39-.54v2.16A.67.67,0,0,0,362.09,290Z"/><path class="cls-9" d="M365.53,295.37a1.09,1.09,0,0,0,.17-.13.34.34,0,0,0,.08-.09l.06-.08,0-.07,0-.08v-.08h0v-2.15a.17.17,0,0,1,0,.07.24.24,0,0,1,0,.08.59.59,0,0,1,0,.08l0,.08-.08.09a1.4,1.4,0,0,1-.18.13h0l-7.69,4.46a1.36,1.36,0,0,1-.3.13l-.25.07-.18,0h-.55l-.13,0-.14,0-.17-.05-.19-.1-34.2-19.74a.68.68,0,0,1-.4-.56v2.17a.66.66,0,0,0,.4.55l34.2,19.75a1.21,1.21,0,0,0,.2.09l.16.06.14,0,.14,0h.55l.17,0a1.22,1.22,0,0,0,.26-.06,1.94,1.94,0,0,0,.3-.13l7.68-4.47Z"/><path class="cls-9" d="M396.42,288l.13,0H397l.17,0,.26-.06a1.64,1.64,0,0,0,.3-.14l5.39-3.13h0a.76.76,0,0,0,.17-.13l.09-.09a.35.35,0,0,0,.05-.08.3.3,0,0,0,0-.08s0-.05,0-.07,0-.05,0-.08h0v-2.17h0V282l0,.08,0,.07-.06.08-.08.09a.83.83,0,0,1-.18.13h0l-5.4,3.14a2.08,2.08,0,0,1-.3.13,1,1,0,0,1-.25.06l-.17,0h-.55l-.14,0V288Z"/><polygon class="cls-9" points="396.29 285.79 396.29 285.79 396.29 285.79 396.29 285.79"/><path class="cls-9" d="M396.15,285.76l-.16-.06-.2-.09-5.43-3.14a.65.65,0,0,1-.4-.56v2.17a.68.68,0,0,0,.4.56l5.43,3.13a1.24,1.24,0,0,0,.2.1l.17.06.14,0v-2.17Z"/><path class="cls-9" d="M381,290.06l5.43,3.14a.72.72,0,0,0,.2.09.76.76,0,0,0,.16.06l.14,0,.14,0v-2.17l-.13,0-.14,0-.17-.05-.2-.1L381,287.9a.68.68,0,0,1-.4-.56v2.17A.67.67,0,0,0,381,290.06Z"/><path class="cls-9" d="M387.22,293.42h.41l.18,0,.25-.07a1.36,1.36,0,0,0,.3-.13l5.4-3.14h0l.18-.12a.39.39,0,0,0,.08-.1l.06-.08,0-.07a.24.24,0,0,0,0-.08.19.19,0,0,0,0-.08h0v-2.16h0a.17.17,0,0,1,0,.07.24.24,0,0,1,0,.08.3.3,0,0,1,0,.08l0,.08a.76.76,0,0,1-.09.09.84.84,0,0,1-.17.13h0L388.37,291a1.36,1.36,0,0,1-.3.13l-.26.07-.17,0h-.42l-.13,0v2.17Z"/><polygon class="cls-9" points="387.09 291.24 387.09 291.24 387.09 291.24 387.09 291.24"/><path class="cls-9" d="M371.68,295.49l5.43,3.13.2.1.17,0,.14,0v-2.17l-.14,0-.16-.06-.2-.09-5.43-3.14a.67.67,0,0,1-.4-.56v2.17A.68.68,0,0,0,371.68,295.49Z"/><path class="cls-9" d="M377.75,298.83l.13,0h.42l.17,0,.26-.06a1.64,1.64,0,0,0,.3-.14l5.39-3.13h0a.76.76,0,0,0,.17-.13l.09-.09a.35.35,0,0,0,.05-.08l0-.08s0-.05,0-.07,0,0,0-.08h0v-2.17h0v.08l0,.07,0,.08-.06.08-.08.09a1.09,1.09,0,0,1-.17.13h0l-5.4,3.14a2.08,2.08,0,0,1-.3.13,1,1,0,0,1-.25.06l-.17,0h-.55l-.14,0v2.17Z"/><polygon class="cls-9" points="377.62 296.64 377.62 296.64 377.62 296.64 377.62 296.64"/><path class="cls-9" d="M375.1,300.9a.83.83,0,0,0,.18-.13.24.24,0,0,0,.08-.09l.06-.08,0-.07a.24.24,0,0,0,0-.08.19.19,0,0,0,0-.08h0V298.2h0a.17.17,0,0,1,0,.07.24.24,0,0,1,0,.08.3.3,0,0,1,0,.08l-.05.08-.09.09a.84.84,0,0,1-.17.13h0l-7.68,4.46a1.36,1.36,0,0,1-.3.13l-.26.07-.17,0h-.55l-.13,0-.14,0-.17-.05-.19-.1-5.44-3.13a.71.71,0,0,1-.4-.56v2.16a.66.66,0,0,0,.4.56l5.43,3.14a1.21,1.21,0,0,0,.2.09l.16.06.14,0,.14,0h.55l.17,0a1,1,0,0,0,.25-.06,1.36,1.36,0,0,0,.3-.13l7.69-4.47Z"/><path class="cls-9" d="M413.08,287.55s0,.05,0,.07a.2.2,0,0,1,0,.08.22.22,0,0,1,0,.08l-.09.09a.76.76,0,0,1-.17.13h0l-5.39,3.14a2.71,2.71,0,0,1-.3.13,2,2,0,0,1-.26.06l-.17,0h-.42l-.13,0-.13,0-.14,0-.17-.06-.2-.09L399.94,288a.67.67,0,0,1-.39-.54v2.16a.67.67,0,0,0,.39.55l5.45,3.14.19.1.17,0,.14,0,.13,0,.13,0h.42l.17,0,.26-.06a1.38,1.38,0,0,0,.3-.14l5.4-3.13h0a.83.83,0,0,0,.18-.13L413,290l.06-.08,0-.08a.19.19,0,0,0,0-.07.22.22,0,0,0,0-.08h0v-2.17h0S413.08,287.52,413.08,287.55Z"/><path class="cls-9" d="M390.6,295.59l5.44,3.15a1.21,1.21,0,0,0,.2.09l.16.06.15,0,.13,0h.55l.17,0a1.22,1.22,0,0,0,.26-.06,1.94,1.94,0,0,0,.3-.13l5.39-3.14h0a1.09,1.09,0,0,0,.17-.13l.09-.09a.22.22,0,0,0,.05-.08.25.25,0,0,0,0-.07l0-.08s0-.05,0-.08h0V292.9a.17.17,0,0,1,0,.07.24.24,0,0,1,0,.08l0,.08-.06.08-.08.09a1.4,1.4,0,0,1-.18.13h0l-5.4,3.13a1.36,1.36,0,0,1-.3.13l-.25.07-.18,0h-.54l-.14,0-.14,0-.16-.05-.2-.1-5.45-3.14a.67.67,0,0,1-.39-.55v2.17A.65.65,0,0,0,390.6,295.59Z"/><path class="cls-9" d="M381.26,301l5.45,3.14.19.1.17.05.14,0,.13,0,.14,0h.41l.18,0,.25-.06a1.38,1.38,0,0,0,.3-.14L394,301h0a1.4,1.4,0,0,0,.18-.13l.08-.09.06-.08,0-.08a.19.19,0,0,0,0-.07.25.25,0,0,0,0-.08h0v-2.17h0s0,.05,0,.08,0,.05,0,.07a.2.2,0,0,1,0,.08.35.35,0,0,1-.05.08l-.09.09a.76.76,0,0,1-.17.13h0L388.63,302a2.08,2.08,0,0,1-.3.13,2,2,0,0,1-.26.06l-.17,0h-.42l-.13,0-.13,0-.14,0-.17-.06-.2-.09-5.44-3.15a.67.67,0,0,1-.39-.54v2.16A.67.67,0,0,0,381.26,301Z"/><path class="cls-9" d="M384.7,306.44a.76.76,0,0,0,.17-.13l.09-.09a.22.22,0,0,0,.05-.08.25.25,0,0,0,0-.07s0-.05,0-.08,0-.05,0-.08h0v-2.15a.17.17,0,0,1,0,.07.24.24,0,0,1,0,.08l0,.08-.06.08-.08.09a1.4,1.4,0,0,1-.18.13h0L377,308.75a1.36,1.36,0,0,1-.3.13l-.25.07-.17,0h-.55l-.14,0-.14,0-.16,0a1.24,1.24,0,0,1-.2-.1l-5.45-3.14a.63.63,0,0,1-.38-.55v2.17a.65.65,0,0,0,.39.54l5.44,3.15a1.76,1.76,0,0,0,.2.09l.17.06.14,0,.13,0h.55l.17,0a1.1,1.1,0,0,0,.26-.06,2.08,2.08,0,0,0,.3-.13l7.68-4.47Z"/><path class="cls-9" d="M415.32,299l.14,0,.13,0,.13,0h.42l.17,0,.26-.06a1.38,1.38,0,0,0,.3-.14l5.4-3.13h0a.83.83,0,0,0,.18-.13l.08-.09a.35.35,0,0,0,0-.08.3.3,0,0,0,0-.08.19.19,0,0,0,0-.07.22.22,0,0,0,0-.08h0V293h0s0,.05,0,.08,0,.05,0,.07a.59.59,0,0,1,0,.08.56.56,0,0,1-.05.08l-.09.09a1.09,1.09,0,0,1-.17.13h0l-5.39,3.14-.3.13a1.22,1.22,0,0,1-.26.06l-.17,0h-.55l-.13,0-.15,0-.16-.06v2.17Z"/><polygon class="cls-9" points="415.16 296.77 415.16 296.77 415.16 296.77 415.16 296.77"/><path class="cls-9" d="M415,296.68l-5.43-3.14a.67.67,0,0,1-.4-.56v2.17a.71.71,0,0,0,.4.56l5.43,3.13.2.1v-2.17Z"/><path class="cls-9" d="M400.19,301.13l5.43,3.14a1.21,1.21,0,0,0,.2.09l.16.06.14,0,.14,0h.55l.17,0a1.22,1.22,0,0,0,.26-.06,1.94,1.94,0,0,0,.3-.13l5.39-3.14h0l.17-.12.09-.1a.56.56,0,0,0,.05-.08l0-.07a.24.24,0,0,1,0-.08s0-.05,0-.08h0v-2.16h0a.17.17,0,0,1,0,.07.24.24,0,0,1,0,.08l0,.08-.06.08-.08.09a1.4,1.4,0,0,1-.18.13h0l-5.4,3.13a1.36,1.36,0,0,1-.3.13l-.25.07-.18,0h-.55l-.13,0-.14,0-.17-.05-.19-.1L400.2,299a.7.7,0,0,1-.41-.56v2.16A.66.66,0,0,0,400.19,301.13Z"/><path class="cls-9" d="M390.86,306.56l5.43,3.13.19.1v-2.17l-.2-.09-5.43-3.14a.67.67,0,0,1-.4-.56V306A.7.7,0,0,0,390.86,306.56Z"/><path class="cls-9" d="M396.65,309.84l.14,0,.13,0,.13,0h.42l.17,0,.26-.06a1.38,1.38,0,0,0,.3-.14l5.4-3.13h0a.83.83,0,0,0,.18-.13l.08-.09a.35.35,0,0,0,.05-.08l0-.08a.19.19,0,0,0,0-.07.25.25,0,0,0,0-.08h0v-2.17h0s0,0,0,.08,0,.05,0,.07a.2.2,0,0,1,0,.08.22.22,0,0,1-.05.08l-.09.09a.76.76,0,0,1-.17.13h0l-5.39,3.14a2.71,2.71,0,0,1-.3.13,2.44,2.44,0,0,1-.26.06l-.17,0h-.42l-.13,0-.13,0-.15,0-.16-.06v2.17Z"/><polygon class="cls-9" points="396.49 307.62 396.49 307.62 396.49 307.62 396.49 307.62"/><path class="cls-9" d="M394.28,312a1.09,1.09,0,0,0,.17-.13.76.76,0,0,0,.09-.09.56.56,0,0,0,0-.08l0-.07,0-.08s0,0,0-.08h0v-2.15a.17.17,0,0,1,0,.07.24.24,0,0,1,0,.08l0,.08-.06.08-.08.09a1.4,1.4,0,0,1-.18.13h0l-7.69,4.46a1.36,1.36,0,0,1-.3.13l-.25.07-.17,0h-.55l-.14,0-.14,0-.16-.05-.2-.1-5.43-3.13a.68.68,0,0,1-.4-.56v2.16a.66.66,0,0,0,.4.56l5.43,3.14a1.21,1.21,0,0,0,.2.09l.17.06.14,0,.13,0h.55l.17,0a1.1,1.1,0,0,0,.26-.06,1.6,1.6,0,0,0,.3-.13l7.68-4.47Z"/><path class="cls-9" d="M425.59,304.61h.15l.17,0,.25-.06a1.38,1.38,0,0,0,.3-.14l5.4-3.13h0l.17-.13.08-.09a.42.42,0,0,0,.06-.08l0-.08,0-.07v-.08h0v-2.17h0a.22.22,0,0,1,0,.08.19.19,0,0,1,0,.07.2.2,0,0,1,0,.08.35.35,0,0,1-.05.08l-.08.09a.83.83,0,0,1-.18.13h0l-5.4,3.14a2.08,2.08,0,0,1-.3.13,2,2,0,0,1-.26.06l-.17,0h-.28v2.16Z"/><polygon class="cls-9" points="425.46 302.45 425.46 302.45 425.46 302.45 425.46 302.45"/><path class="cls-9" d="M425.32,302.44l-.13,0-.13,0-.14,0-.17-.06-.19-.09-5.45-3.15a.67.67,0,0,1-.39-.54v2.16a.67.67,0,0,0,.39.55l5.45,3.14.2.1.16,0,.14,0,.14,0,.13,0h.13v-2.16Z"/><path class="cls-9" d="M415.41,309.9l.17.06.14,0,.13,0h.55l.17,0a1.1,1.1,0,0,0,.26-.06,1.36,1.36,0,0,0,.3-.13l5.39-3.14h0a.83.83,0,0,0,.18-.13l.08-.09a.22.22,0,0,0,.05-.08.25.25,0,0,0,0-.07.24.24,0,0,0,0-.08.22.22,0,0,0,0-.08h0V304s0,0,0,.07,0,0,0,.08l0,.08a.56.56,0,0,0-.05.08l-.09.09-.17.13h0l-5.39,3.13a1.94,1.94,0,0,1-.3.13l-.26.07-.17,0h-.55l-.13,0-.15,0-.16-.05a1.24,1.24,0,0,1-.2-.1l-5.45-3.14a.67.67,0,0,1-.38-.55v2.17a.65.65,0,0,0,.39.54l5.44,3.15A1.76,1.76,0,0,0,415.41,309.9Z"/><path class="cls-9" d="M413.21,312.09l.17-.13.08-.09.06-.08s0-.05,0-.08a.19.19,0,0,1,0-.07.19.19,0,0,1,0-.08h0v-2.17h0a.22.22,0,0,1,0,.08.19.19,0,0,1,0,.07l0,.08-.06.08-.08.09a.83.83,0,0,1-.18.13h0l-5.4,3.14a2.08,2.08,0,0,1-.3.13,2,2,0,0,1-.26.06l-.17,0h-.42l-.13,0-.13,0v2.17l.14,0,.13,0h.42l.17,0,.25-.07a1,1,0,0,0,.3-.13l5.4-3.13Z"/><polygon class="cls-9" points="406.39 313.25 406.39 313.25 406.39 313.25 406.39 313.25"/><path class="cls-9" d="M406.25,313.22l-.17-.06-.19-.09-5.45-3.15a.67.67,0,0,1-.39-.55v2.17a.63.63,0,0,0,.38.55l5.45,3.14.2.1.16.05.14,0v-2.17Z"/><path class="cls-9" d="M400.07,321.58l0-.08v-.08h0v-2.17h0a.19.19,0,0,1,0,.08.24.24,0,0,1,0,.08l0,.08a.35.35,0,0,1-.05.08l-.09.09a.67.67,0,0,1-.16.12h0l-1.79,1a1,1,0,0,1-.3.13l-.25.07-.18,0h-.41l-.14,0-.13,0-.14,0-.17-.05-.19-.1-6.17-3.56a.68.68,0,0,1-.4-.55v2.16a.66.66,0,0,0,.4.56L396,323l.2.1.16,0,.14,0,.14,0h.55l.17,0,.26-.07a1.94,1.94,0,0,0,.3-.13l1.78-1h0l.17-.12.08-.09.06-.08Z"/><path class="cls-9" d="M436.52,311.28l.17.05.14,0,.13,0h.55l.17,0,.26-.07a1.36,1.36,0,0,0,.3-.13l5.39-3.13h0a1.4,1.4,0,0,0,.18-.13l.08-.09,0-.08a.3.3,0,0,0,0-.08.24.24,0,0,0,0-.08.17.17,0,0,0,0-.07h0v-2.17h0s0,.05,0,.08,0,.05,0,.07l0,.08-.05.08-.09.09a1.09,1.09,0,0,1-.17.13h0L438.25,309a2,2,0,0,1-.3.14l-.26.06-.17,0h-.42l-.13,0-.13,0-.15,0-.16-.06-.2-.1-7.63-4.4a.69.69,0,0,1-.4-.56v2.17a.66.66,0,0,0,.4.56l7.62,4.4Z"/><path class="cls-9" d="M419.16,312.07l5.45,3.15.19.09.16.05.14,0,.13,0h.55l.17,0a1.1,1.1,0,0,0,.26-.06,2.08,2.08,0,0,0,.3-.13l5.41-3.15h0l.16-.12.08-.09.06-.08,0-.07,0-.08v-.08h0v-2.17h0a.19.19,0,0,1,0,.08.24.24,0,0,1,0,.08.25.25,0,0,1,0,.07.22.22,0,0,1-.05.08l-.08.09a.76.76,0,0,1-.17.13h0L426.52,313a1.94,1.94,0,0,1-.3.13l-.26.07-.18,0h-.55l-.13,0-.14,0-.16-.05-.18-.09-5.45-3.15a.68.68,0,0,1-.4-.56v2.17A.67.67,0,0,0,419.16,312.07Z"/><path class="cls-9" d="M455.86,312.25a.24.24,0,0,1,0,.08l0,.07-.06.08-.08.09a.83.83,0,0,1-.18.13h0l-5.4,3.14a1.36,1.36,0,0,1-.3.13,1.14,1.14,0,0,1-.25.06l-.18,0h-.54l-.14,0-.14,0-.17-.06a1.11,1.11,0,0,1-.19-.09l-7.69-4.44a.67.67,0,0,1-.39-.55V313a.67.67,0,0,0,.39.55l7.69,4.44.2.09.16.06.15,0,.13,0,.13,0h.42l.17,0a2.44,2.44,0,0,0,.26-.06l.3-.13,5.39-3.14h0a1.09,1.09,0,0,0,.17-.13l.09-.09.05-.08,0-.08s0-.05,0-.07,0-.05,0-.08h0v-2.17h0A.22.22,0,0,1,455.86,312.25Z"/><path class="cls-9" d="M446.53,317.68s0,.05,0,.07a.3.3,0,0,1,0,.08l-.05.08-.09.09a1.26,1.26,0,0,1-.17.13h0l-5.39,3.13a1.14,1.14,0,0,1-.3.13l-.26.07-.17,0h-.42l-.13,0-.13,0-.14,0-.17-.05-.2-.1-9.93-5.75a.66.66,0,0,1-.4-.56v2.17a.7.7,0,0,0,.41.56l9.93,5.75.19.1.17,0,.14,0,.13,0H440l.17,0,.26-.07a1.36,1.36,0,0,0,.3-.13l5.4-3.13h0l.18-.13.08-.09.06-.08,0-.08a.24.24,0,0,0,0-.08.17.17,0,0,0,0-.07v-2.18h0S446.53,317.65,446.53,317.68Z"/><path class="cls-9" d="M437.19,323.1a.24.24,0,0,1,0,.08l0,.07-.06.08-.08.09a.83.83,0,0,1-.18.13h0l-5.4,3.14a2.08,2.08,0,0,1-.3.13,1.14,1.14,0,0,1-.25.06l-.18,0h-.54l-.14,0-.14,0-.16-.06-.2-.09L410,315.46a.69.69,0,0,1-.4-.56v2.17a.68.68,0,0,0,.4.56l19.46,11.23.2.1.16.06.15,0,.13,0,.13,0h.42l.17,0a2.44,2.44,0,0,0,.26-.06,2,2,0,0,0,.3-.14l5.39-3.13h0a1.09,1.09,0,0,0,.17-.13l.09-.09a.35.35,0,0,0,.05-.08s0-.05,0-.08,0,0,0-.07,0,0,0-.08h0V323h0A.22.22,0,0,1,437.19,323.1Z"/><path class="cls-9" d="M405.9,319.37v2.16a.66.66,0,0,0,.4.56l6.18,3.57.18.09.16.05.14,0,.13,0,.13,0h.42l.18,0,.25-.07a1.69,1.69,0,0,0,.31-.13l1.77-1h0a1.09,1.09,0,0,0,.17-.13l.08-.09.06-.08s0-.05,0-.08,0-.05,0-.07,0-.06,0-.08h0V321.9h0a.22.22,0,0,1,0,.08.19.19,0,0,1,0,.07l0,.08-.06.08-.08.09a.83.83,0,0,1-.18.13h0l-1.77,1a1.38,1.38,0,0,1-.3.14l-.26.06-.17,0h-.15a.33.33,0,0,1-.14,0h-.13l-.13,0-.13,0-.14,0-.16-.06a.66.66,0,0,1-.19-.09l-6.18-3.56A.71.71,0,0,1,405.9,319.37Z"/><path class="cls-9" d="M410.61,327.66l0-.08s0-.05,0-.08h0v-2.15a.17.17,0,0,1,0,.07.19.19,0,0,1,0,.08.2.2,0,0,1,0,.08.22.22,0,0,1-.05.08s0,.07-.09.09a.7.7,0,0,1-.16.13h0l-1.79,1a2.08,2.08,0,0,1-.3.13,1.1,1.1,0,0,1-.26.06l-.17,0h-.55l-.13,0a.7.7,0,0,1-.14,0l-.16-.05-.19-.09-6.18-3.57a.71.71,0,0,1-.4-.56V325a.68.68,0,0,0,.4.56l6.18,3.56a.61.61,0,0,0,.18.09l.16.06.14,0,.13,0h.55l.18,0a1.83,1.83,0,0,0,.25-.06l.31-.13,1.78-1h0a1.09,1.09,0,0,0,.17-.13l.08-.09.06-.08Z"/><path class="cls-9" d="M421.2,331.51l0,.08,0,.08-.06.08-.08.09-.17.12h0L419,333a1.6,1.6,0,0,1-.3.13l-.26.07-.17,0h-.42l-.13,0-.13,0-.15,0-.16-.05-.2-.1-6.18-3.57a.61.61,0,0,1-.38-.54v2.17a.65.65,0,0,0,.39.54l6.18,3.57a.66.66,0,0,0,.19.09l.17.06.14,0,.13,0h.55l.17,0,.26-.07a1.36,1.36,0,0,0,.3-.13l1.79-1h0L421,334l.09-.09a.41.41,0,0,0,.05-.09.25.25,0,0,0,0-.07s0-.06,0-.08a.22.22,0,0,0,0-.08h0v-2.17h0A.25.25,0,0,0,421.2,331.51Z"/><path class="cls-2" d="M333.46,233c.52.3.52.79,0,1.1l-3.1,1.8a2.09,2.09,0,0,1-1.9,0L323,232.77c-.53-.31-.54-.8,0-1.11l3.11-1.81a2.16,2.16,0,0,1,1.92,0Z"/><path class="cls-2" d="M343,238.53c.53.31.54.8,0,1.11l-3.11,1.8a2.1,2.1,0,0,1-1.92,0l-5.43-3.13a.59.59,0,0,1,0-1.11l3.1-1.81a2.1,2.1,0,0,1,1.92,0Z"/><path class="cls-2" d="M352.63,244.07a.58.58,0,0,1,0,1.1l-3.11,1.8a2.09,2.09,0,0,1-1.9,0l-5.45-3.14a.59.59,0,0,1,0-1.11l3.1-1.81a2.16,2.16,0,0,1,1.92,0Z"/><path class="cls-2" d="M362.21,249.6c.54.31.54.8,0,1.11l-3.11,1.8a2.08,2.08,0,0,1-1.91,0l-5.43-3.13c-.54-.31-.54-.8,0-1.11l3.11-1.81a2.08,2.08,0,0,1,1.91,0Z"/><path class="cls-2" d="M371.81,255.14c.52.3.52.79,0,1.1l-3.11,1.8a2.09,2.09,0,0,1-1.9,0l-5.44-3.14c-.54-.31-.54-.8,0-1.11l3.11-1.81a2.08,2.08,0,0,1,1.91,0Z"/><path class="cls-2" d="M381.39,260.67a.59.59,0,0,1,0,1.11l-3.1,1.8a2.1,2.1,0,0,1-1.92,0l-5.43-3.13c-.53-.31-.54-.8,0-1.11l3.11-1.81a2.1,2.1,0,0,1,1.92,0Z"/><path class="cls-2" d="M391,266.2a.59.59,0,0,1,0,1.11l-3.1,1.8a2.1,2.1,0,0,1-1.92,0L380.52,266c-.53-.31-.54-.8,0-1.11l3.11-1.81a2.1,2.1,0,0,1,1.92,0Z"/><path class="cls-2" d="M400.56,271.74c.53.31.54.8,0,1.11l-3.11,1.8a2.1,2.1,0,0,1-1.92,0l-5.44-3.14c-.52-.3-.52-.79,0-1.1l3.1-1.81a2.09,2.09,0,0,1,1.9,0Z"/><path class="cls-2" d="M410.14,277.27c.53.31.54.8,0,1.11l-3.1,1.8a2.1,2.1,0,0,1-1.92,0l-5.43-3.13a.59.59,0,0,1,0-1.11l3.1-1.81a2.1,2.1,0,0,1,1.92,0Z"/><path class="cls-2" d="M419.73,282.81a.58.58,0,0,1,0,1.11l-3.11,1.8a2.08,2.08,0,0,1-1.91,0l-5.45-3.14a.58.58,0,0,1,0-1.1l3.11-1.81a2.09,2.09,0,0,1,1.9,0Z"/><path class="cls-2" d="M429.31,288.34a.58.58,0,0,1,0,1.11l-3.11,1.8a2.08,2.08,0,0,1-1.91,0l-5.43-3.13c-.54-.31-.54-.8,0-1.11L422,285.2a2.08,2.08,0,0,1,1.91,0Z"/><path class="cls-2" d="M438.91,293.88a.59.59,0,0,1,0,1.11l-3.1,1.8a2.1,2.1,0,0,1-1.92,0l-5.45-3.14a.58.58,0,0,1,0-1.1l3.11-1.81a2.09,2.09,0,0,1,1.9,0Z"/><path class="cls-2" d="M450.68,300.67c.53.31.54.81,0,1.11l-3.11,1.81a2.08,2.08,0,0,1-1.91,0l-7.63-4.4c-.54-.31-.54-.81,0-1.11l3.11-1.81a2.08,2.08,0,0,1,1.91,0Z"/><path class="cls-2" d="M462.52,307.51a.59.59,0,0,1,0,1.11l-3.1,1.8a2.1,2.1,0,0,1-1.92,0L449.81,306a.58.58,0,0,1,0-1.1l3.11-1.8a2.09,2.09,0,0,1,1.9,0Z"/><path class="cls-2" d="M326.41,237.09a.58.58,0,0,1,0,1.1l-5.4,3.14a2.09,2.09,0,0,1-1.9,0l-5.44-3.15a.58.58,0,0,1,0-1.11l5.39-3.13a2.1,2.1,0,0,1,1.92,0Z"/><path class="cls-2" d="M336,242.62c.54.31.54.8,0,1.11l-5.39,3.14a2.1,2.1,0,0,1-1.92,0l-5.43-3.14c-.53-.31-.54-.8,0-1.11l5.4-3.13a2.08,2.08,0,0,1,1.91,0Z"/><path class="cls-2" d="M311.63,239.37l10.1,5.85c.54.31.54.8,0,1.11l-5.4,3.14a2.14,2.14,0,0,1-1.91,0l-10.1-5.85c-.53-.31-.54-.8,0-1.11l5.4-3.14A2.14,2.14,0,0,1,311.63,239.37Z"/><path class="cls-2" d="M345.59,248.16c.52.3.52.79,0,1.1l-5.4,3.14a2.09,2.09,0,0,1-1.9,0l-5.44-3.15c-.54-.31-.54-.8,0-1.11l5.4-3.13a2.08,2.08,0,0,1,1.91,0Z"/><path class="cls-2" d="M336.25,253.59c.52.3.52.79,0,1.1l-5.39,3.13a2.09,2.09,0,0,1-1.9,0L318.82,252c-.53-.31-.54-.8,0-1.11l5.4-3.13a2.1,2.1,0,0,1,1.92,0Z"/><path class="cls-2" d="M317.32,253.47c.54.31.54.8,0,1.11l-5.39,3.14a2.1,2.1,0,0,1-1.92,0L295,249c-.54-.31-.54-.8,0-1.11l5.39-3.13a2.1,2.1,0,0,1,1.92,0Z"/><path class="cls-2" d="M298.41,253.37c.52.3.52.79,0,1.1l-7.68,4.46a2.09,2.09,0,0,1-1.9,0l-5.45-3.14a.59.59,0,0,1,0-1.11l7.68-4.47a2.1,2.1,0,0,1,1.92,0Z"/><path class="cls-2" d="M308,258.9c.53.31.54.8,0,1.11l-7.69,4.46a2.08,2.08,0,0,1-1.91,0L293,261.34c-.54-.31-.54-.8,0-1.11l7.68-4.47a2.1,2.1,0,0,1,1.92,0Z"/><path class="cls-2" d="M326.92,259c.52.3.52.79,0,1.1l-5.4,3.14a2.09,2.09,0,0,1-1.9,0l-5.44-3.15c-.53-.31-.54-.8,0-1.11l5.4-3.13a2.08,2.08,0,0,1,1.91,0Z"/><path class="cls-2" d="M317.58,264.44c.52.3.52.79,0,1.1L309.89,270a2.08,2.08,0,0,1-1.91,0l-5.43-3.13c-.54-.31-.54-.8,0-1.11l7.68-4.47a2.1,2.1,0,0,1,1.92,0Z"/><path class="cls-2" d="M355.17,253.69a.59.59,0,0,1,0,1.11l-5.39,3.14a2.1,2.1,0,0,1-1.92,0l-5.43-3.14a.59.59,0,0,1,0-1.11l5.39-3.13a2.1,2.1,0,0,1,1.92,0Z"/><path class="cls-2" d="M345.83,259.12c.54.31.54.8,0,1.11l-5.4,3.13a2.08,2.08,0,0,1-1.91,0l-5.43-3.13c-.54-.31-.54-.8,0-1.11l5.4-3.14a2.08,2.08,0,0,1,1.91,0Z"/><path class="cls-2" d="M336.5,264.54a.59.59,0,0,1,0,1.11l-5.39,3.14a2.1,2.1,0,0,1-1.92,0l-5.43-3.14a.59.59,0,0,1,0-1.11l5.39-3.13a2.1,2.1,0,0,1,1.92,0Z"/><path class="cls-2" d="M327.16,270c.54.31.54.8,0,1.11l-7.68,4.46a2.1,2.1,0,0,1-1.92,0l-5.43-3.13c-.53-.31-.54-.81,0-1.11l7.69-4.47a2.08,2.08,0,0,1,1.91,0Z"/><path class="cls-2" d="M364.76,259.23c.52.3.52.79,0,1.1l-5.39,3.14a2.09,2.09,0,0,1-1.9,0L352,260.33c-.53-.31-.54-.8,0-1.11l5.39-3.13a2.1,2.1,0,0,1,1.92,0Z"/><path class="cls-2" d="M374.34,264.76c.53.31.54.8,0,1.11L369,269a2.08,2.08,0,0,1-1.91,0l-5.43-3.14c-.54-.31-.54-.8,0-1.11l5.39-3.13a2.1,2.1,0,0,1,1.92,0Z"/><path class="cls-2" d="M355.43,264.66a.58.58,0,0,1,0,1.1l-5.4,3.13a2.09,2.09,0,0,1-1.9,0l-5.44-3.14c-.54-.31-.54-.8,0-1.11l5.4-3.14a2.08,2.08,0,0,1,1.91,0Z"/><path class="cls-2" d="M365,270.19a.59.59,0,0,1,0,1.11l-5.39,3.13a2.1,2.1,0,0,1-1.92,0l-5.43-3.13c-.53-.31-.54-.8,0-1.11l5.4-3.14a2.08,2.08,0,0,1,1.91,0Z"/><path class="cls-2" d="M383.92,270.29c.53.31.54.8,0,1.11l-5.4,3.14a2.1,2.1,0,0,1-1.92,0l-5.43-3.14a.59.59,0,0,1,0-1.11l5.39-3.13a2.1,2.1,0,0,1,1.92,0Z"/><path class="cls-2" d="M374.58,275.72c.54.31.54.8,0,1.11L369.2,280a2.1,2.1,0,0,1-1.92,0l-5.43-3.13c-.53-.31-.54-.8,0-1.11l5.4-3.14a2.08,2.08,0,0,1,1.91,0Z"/><path class="cls-2" d="M346.09,270.08c.52.3.52.79,0,1.1l-5.39,3.14a2.09,2.09,0,0,1-1.9,0l-5.45-3.15a.59.59,0,0,1,0-1.11l5.39-3.13a2.1,2.1,0,0,1,1.92,0Z"/><path class="cls-2" d="M355.67,275.61c.53.31.54.8,0,1.11l-5.4,3.14a2.14,2.14,0,0,1-1.91,0l-5.43-3.14c-.54-.31-.54-.8,0-1.11l5.39-3.13a2.1,2.1,0,0,1,1.92,0Z"/><path class="cls-2" d="M365.25,281.14c.53.31.54.8,0,1.11l-5.4,3.14a2.08,2.08,0,0,1-1.91,0l-5.43-3.14c-.54-.31-.54-.8,0-1.11L357.9,278a2.1,2.1,0,0,1,1.92,0Z"/><path class="cls-2" d="M393.51,275.83c.54.31.54.8,0,1.11l-5.4,3.14a2.14,2.14,0,0,1-1.91,0l-5.45-3.15c-.52-.3-.52-.79,0-1.1l5.4-3.13a2.09,2.09,0,0,1,1.9,0Z"/><path class="cls-2" d="M384.18,281.26a.59.59,0,0,1,0,1.11l-5.39,3.13a2.1,2.1,0,0,1-1.92,0l-5.44-3.14a.58.58,0,0,1,0-1.1l5.39-3.14a2.09,2.09,0,0,1,1.9,0Z"/><path class="cls-2" d="M374.84,286.68c.54.31.54.8,0,1.11l-5.4,3.14a2.14,2.14,0,0,1-1.91,0l-5.45-3.15a.58.58,0,0,1,0-1.1l5.4-3.13a2.09,2.09,0,0,1,1.9,0Z"/><path class="cls-2" d="M365.51,292.11a.58.58,0,0,1,0,1.11l-7.68,4.46a2.08,2.08,0,0,1-1.91,0l-34.2-19.74c-.53-.31-.54-.8,0-1.11l7.69-4.47a2.08,2.08,0,0,1,1.91,0Z"/><path class="cls-2" d="M403.09,281.36c.54.31.54.8,0,1.11l-5.4,3.14a2.08,2.08,0,0,1-1.91,0l-5.43-3.14c-.54-.31-.54-.8,0-1.11l5.4-3.13a2.08,2.08,0,0,1,1.91,0Z"/><path class="cls-2" d="M393.76,286.79a.59.59,0,0,1,0,1.11L388.37,291a2.1,2.1,0,0,1-1.92,0L381,287.9a.59.59,0,0,1,0-1.11l5.39-3.14a2.1,2.1,0,0,1,1.92,0Z"/><path class="cls-2" d="M384.42,292.21c.54.31.54.8,0,1.11l-5.4,3.14a2.14,2.14,0,0,1-1.91,0l-5.43-3.14c-.54-.31-.54-.8,0-1.11l5.4-3.13a2.08,2.08,0,0,1,1.91,0Z"/><path class="cls-2" d="M375.09,297.64a.59.59,0,0,1,0,1.11l-7.68,4.46a2.08,2.08,0,0,1-1.91,0l-5.44-3.13a.59.59,0,0,1,0-1.11l7.68-4.47a2.1,2.1,0,0,1,1.92,0Z"/><path class="cls-2" d="M412.69,286.9a.59.59,0,0,1,0,1.11l-5.39,3.14a2.16,2.16,0,0,1-1.92,0L399.94,288c-.52-.3-.52-.79,0-1.1l5.39-3.13a2.09,2.09,0,0,1,1.9,0Z"/><path class="cls-2" d="M403.35,292.33a.58.58,0,0,1,0,1.11l-5.4,3.13a2.08,2.08,0,0,1-1.91,0l-5.45-3.14a.58.58,0,0,1,0-1.1l5.4-3.14a2.08,2.08,0,0,1,1.91,0Z"/><path class="cls-2" d="M394,297.75a.59.59,0,0,1,0,1.11L388.63,302a2.16,2.16,0,0,1-1.92,0l-5.44-3.15c-.52-.3-.52-.79,0-1.1l5.39-3.13a2.09,2.09,0,0,1,1.9,0Z"/><path class="cls-2" d="M384.68,303.18a.58.58,0,0,1,0,1.11L377,308.75a2.08,2.08,0,0,1-1.91,0l-5.45-3.14a.58.58,0,0,1,0-1.1l7.69-4.47a2.09,2.09,0,0,1,1.9,0Z"/><path class="cls-2" d="M422.26,292.43c.54.31.54.8,0,1.11l-5.39,3.14a2.16,2.16,0,0,1-1.92,0l-5.43-3.14c-.53-.31-.54-.8,0-1.11l5.4-3.13a2.08,2.08,0,0,1,1.91,0Z"/><path class="cls-2" d="M412.93,297.86a.59.59,0,0,1,0,1.11l-5.4,3.13a2.08,2.08,0,0,1-1.91,0L400.2,299c-.54-.31-.54-.81,0-1.11l5.39-3.14a2.1,2.1,0,0,1,1.92,0Z"/><path class="cls-2" d="M403.6,303.28a.59.59,0,0,1,0,1.11l-5.39,3.14a2.16,2.16,0,0,1-1.92,0l-5.43-3.14c-.53-.31-.54-.8,0-1.11l5.4-3.13a2.1,2.1,0,0,1,1.92,0Z"/><path class="cls-2" d="M394.26,308.71a.59.59,0,0,1,0,1.11l-7.69,4.46a2.08,2.08,0,0,1-1.91,0l-5.43-3.13c-.54-.31-.54-.81,0-1.11l7.68-4.47a2.1,2.1,0,0,1,1.92,0Z"/><path class="cls-2" d="M431.86,298c.53.31.54.8,0,1.11l-5.4,3.14a2.14,2.14,0,0,1-1.91,0l-5.45-3.15c-.52-.3-.52-.79,0-1.1l5.39-3.13a2.09,2.09,0,0,1,1.9,0Z"/><path class="cls-2" d="M422.52,303.4a.58.58,0,0,1,0,1.11l-5.39,3.13a2.1,2.1,0,0,1-1.92,0l-5.45-3.14a.58.58,0,0,1,0-1.1l5.4-3.14a2.09,2.09,0,0,1,1.9,0Z"/><path class="cls-2" d="M413.19,308.82c.53.31.54.8,0,1.11l-5.4,3.14a2.14,2.14,0,0,1-1.91,0l-5.45-3.15c-.52-.3-.52-.79,0-1.1l5.39-3.13a2.09,2.09,0,0,1,1.9,0Z"/><path class="cls-2" d="M399.71,318.68a.59.59,0,0,1,0,1.11l-1.79,1a2.08,2.08,0,0,1-1.91,0l-6.17-3.56a.58.58,0,0,1,0-1.1l1.79-1a2.08,2.08,0,0,1,1.91,0Z"/><path class="cls-2" d="M443.63,304.77c.54.31.54.8,0,1.11L438.25,309a2.1,2.1,0,0,1-1.92,0l-7.63-4.4a.59.59,0,0,1,0-1.11l5.39-3.13a2.1,2.1,0,0,1,1.92,0Z"/><path class="cls-2" d="M431.92,308.8a.58.58,0,0,1,0,1.09L426.52,313a2.09,2.09,0,0,1-1.9,0l-5.45-3.15a.59.59,0,0,1,0-1.11l5.41-3.14a2.12,2.12,0,0,1,1.9,0Z"/><path class="cls-2" d="M455.47,311.6c.53.31.54.8,0,1.11l-5.4,3.14a2.08,2.08,0,0,1-1.91,0l-7.69-4.44c-.52-.3-.52-.79,0-1.1l5.39-3.14a2.15,2.15,0,0,1,1.9,0Z"/><path class="cls-2" d="M436.21,311.28l9.93,5.75a.59.59,0,0,1,0,1.11l-5.39,3.13a2.1,2.1,0,0,1-1.92,0l-9.93-5.75a.59.59,0,0,1,0-1.11l5.41-3.14A2.09,2.09,0,0,1,436.21,311.28Z"/><path class="cls-2" d="M436.8,322.45c.53.31.54.8,0,1.11l-5.4,3.14a2.08,2.08,0,0,1-1.91,0L410,315.46a.59.59,0,0,1,0-1.11l5.39-3.13a2.1,2.1,0,0,1,1.92,0Z"/><path class="cls-2" d="M416.16,321.35c.52.3.53.79,0,1.1l-1.77,1a2.09,2.09,0,0,1-1.9,0l-6.18-3.56a.59.59,0,0,1,0-1.11l1.77-1a2.1,2.1,0,0,1,1.92,0Z"/><path class="cls-2" d="M410.27,324.78a.58.58,0,0,1,0,1.1l-1.79,1a2.09,2.09,0,0,1-1.9,0l-6.18-3.57a.59.59,0,0,1,0-1.11l1.79-1a2.11,2.11,0,0,1,1.91,0Z"/><path class="cls-2" d="M420.81,330.86a.59.59,0,0,1,0,1.11L419,333a2.1,2.1,0,0,1-1.92,0l-6.18-3.57a.58.58,0,0,1,0-1.1l1.79-1a2.09,2.09,0,0,1,1.9,0Z"/><polygon class="cls-8" points="405.27 196.15 361.12 169.28 360.2 174.18 404.36 201.05 405.27 196.15"/><polygon class="cls-8" points="359.44 156.69 356.4 154.85 355.48 159.74 358.52 161.59 359.44 156.69"/><polygon class="cls-7" points="361.39 146.31 358.35 144.47 357.43 149.37 360.47 151.21 361.39 146.31"/><polygon class="cls-8" points="363.33 135.93 360.3 134.09 359.38 138.99 362.42 140.83 363.33 135.93"/><polygon class="cls-7" points="402.19 182.71 363.07 158.9 362.15 163.8 401.27 187.61 402.19 182.71"/><polygon class="cls-7" points="417.08 180.21 365.02 148.52 364.1 153.42 416.17 185.1 417.08 180.21"/><polygon class="cls-8" points="415.44 167.64 366.97 138.14 366.05 143.04 414.52 172.54 415.44 167.64"/><polygon class="cls-4" points="401.85 144.11 368.8 123.99 367.99 128.3 401.04 148.42 401.85 144.11"/><polygon class="cls-8" points="373.55 188.71 359.78 179.87 359.14 183.31 372.91 192.14 373.55 188.71"/><path class="cls-6" d="M222.67,163.05,295,121.28l.26,94.42-72.34,41.77Z"/><path class="cls-2" d="M269.31,157.41c3.95-2.28,7.16-.44,7.17,4.09a15.71,15.71,0,0,1-7.12,12.35c-4,2.28-7.17.45-7.18-4.09A15.7,15.7,0,0,1,269.31,157.41Z"/><polygon class="cls-2" points="248.86 183.98 269.18 191.82 278.69 177.66 288.99 185.67 289 190.44 229.49 224.8 229.47 219.1 248.86 183.98"/><path class="cls-4" d="M229.33,167.45l59.51-34.36.15,52.58-10.3-8-9.51,14.17L248.86,184,229.47,219.1Zm40,6.4a15.71,15.71,0,0,0,7.12-12.35c0-4.53-3.22-6.37-7.17-4.09a15.7,15.7,0,0,0-7.13,12.35c0,4.54,3.22,6.37,7.18,4.09"/><polygon class="cls-7" points="222.67 163.05 208.27 154.68 280.61 112.92 295.01 121.28 222.67 163.05"/><polygon class="cls-1" points="222.93 257.47 208.53 249.1 208.27 154.68 222.67 163.05 222.93 257.47"/><g class="cls-5"><polygon class="cls-10" points="160.38 336.05 174.54 327.82 177.8 325.96 163.64 334.19 160.38 336.05"/><polygon class="cls-1" points="187.8 359.67 201.96 351.44 201.95 356.72 187.79 364.95 187.8 359.67"/><polygon class="cls-1" points="156.92 311.49 171.08 303.26 175.68 305.91 161.52 314.14 156.92 311.49"/><g class="cls-5"><path class="cls-1" d="M173.39,317.19,187.55,309a6.42,6.42,0,0,0-2.23,2.17l-14.16,8.22a6.6,6.6,0,0,1,2.23-2.17"/><path class="cls-1" d="M171.16,319.36l14.16-8.22a7,7,0,0,0-.47.86l-14.17,8.23c.15-.31.31-.59.48-.87"/><path class="cls-1" d="M170.68,320.23,184.85,312c-.12.23-.22.48-.32.73L170.37,321c.1-.25.2-.5.31-.73"/><path class="cls-1" d="M170.37,321l14.16-8.23c-.08.23-.15.45-.22.69l-14.16,8.23c.07-.24.14-.47.22-.69"/><path class="cls-1" d="M170.15,321.65l14.16-8.23c-.06.21-.12.42-.17.64L170,322.29c.05-.22.11-.43.17-.64"/><path class="cls-1" d="M170,322.29l14.16-8.23c0,.2-.09.41-.12.62l-14.16,8.23c0-.21.08-.42.12-.62"/><path class="cls-1" d="M169.86,322.91,184,314.68a6,6,0,0,0-.09.61l-14.16,8.23a6,6,0,0,1,.09-.61"/><path class="cls-1" d="M169.77,323.52l14.16-8.23q0,.3-.06.6l-14.17,8.23c0-.2,0-.4.07-.6"/><path class="cls-1" d="M169.7,324.12l14.17-8.23c0,.2,0,.4,0,.6l-14.16,8.23,0-.6"/><path class="cls-1" d="M169.67,324.72l14.16-8.23c0,.19,0,.39,0,.59l-14.16,8.23c0-.2,0-.4,0-.59"/><path class="cls-1" d="M169.65,325.31l14.16-8.23v0c0,.18,0,.37,0,.56l-14.16,8.23c0-.19,0-.38,0-.56v0"/><path class="cls-1" d="M169.66,325.91l14.16-8.23,0,.6-14.16,8.23,0-.6"/><path class="cls-1" d="M169.69,326.51l14.16-8.23c0,.21,0,.41.05.62l-14.16,8.22c0-.2,0-.4-.05-.61"/><path class="cls-1" d="M169.74,327.12l14.16-8.22c0,.2,0,.41.07.62l-14.16,8.23c0-.21-.05-.42-.07-.63"/><path class="cls-1" d="M169.81,327.75,184,319.52c0,.21.06.42.09.63l-14.16,8.23q-.06-.31-.09-.63"/><path class="cls-1" d="M169.9,328.38l14.16-8.23c0,.22.07.43.11.65L170,329c0-.22-.08-.43-.11-.65"/><path class="cls-1" d="M170,329l14.16-8.23c0,.22.09.44.14.66l-14.17,8.23c0-.22-.09-.44-.13-.66"/><path class="cls-1" d="M170.14,329.69l14.17-8.23c0,.23.1.45.15.68l-14.16,8.23c-.05-.23-.11-.45-.16-.68"/><path class="cls-1" d="M170.3,330.37l14.16-8.23.18.68-14.16,8.23-.18-.68"/><path class="cls-1" d="M170.48,331.05l14.16-8.23c.06.22.13.45.2.67l-14.16,8.23c-.07-.22-.14-.45-.2-.67"/><path class="cls-1" d="M170.68,331.72l14.16-8.23.21.67-14.16,8.23-.21-.67"/><path class="cls-1" d="M170.89,332.39l14.16-8.23c.07.21.15.43.23.64L171.12,333c-.08-.21-.16-.43-.23-.64"/><path class="cls-1" d="M171.12,333l14.16-8.23c.07.21.15.42.23.63l-14.16,8.23c-.08-.21-.16-.42-.23-.63"/><path class="cls-1" d="M171.35,333.66l14.16-8.23.25.61-14.16,8.23-.25-.61"/><path class="cls-1" d="M171.6,334.27,185.76,326l.25.6-14.16,8.23-.25-.6"/><path class="cls-1" d="M171.85,334.87,186,326.64l.28.61-14.16,8.23c-.09-.21-.19-.41-.28-.61"/><path class="cls-1" d="M172.13,335.48l14.16-8.23.31.64-14.16,8.23-.31-.64"/><path class="cls-1" d="M172.44,336.12l14.16-8.23c.13.25.25.5.38.74l-14.16,8.23c-.13-.25-.26-.49-.38-.74"/><path class="cls-1" d="M172.82,336.86,187,328.63l.51.92a1,1,0,0,1,.08.14l-14.16,8.23a1,1,0,0,0-.08-.14l-.51-.92"/><path class="cls-1" d="M173.41,337.92l14.16-8.23c.36.6.73,1.19,1.12,1.77l-14.17,8.23q-.57-.87-1.11-1.77"/><path class="cls-1" d="M174.52,339.69l14.17-8.23c.23.35.48.69.72,1l-14.16,8.23-.73-1"/><path class="cls-1" d="M175.25,340.71l14.16-8.23.53.69-14.16,8.23-.53-.69"/><path class="cls-1" d="M175.78,341.4l14.16-8.23.48.6L176.26,342l-.48-.6"/><path class="cls-1" d="M176.26,342l14.16-8.23c.16.19.32.38.49.56l-14.17,8.23-.48-.56"/><path class="cls-1" d="M176.74,342.56l14.17-8.23c.16.19.32.37.49.55l-14.16,8.23-.5-.55"/><path class="cls-1" d="M177.24,343.11l14.16-8.23c.17.19.35.37.52.55l-14.16,8.22c-.18-.17-.35-.35-.52-.54"/><path class="cls-1" d="M177.76,343.65l14.16-8.22.54.53-14.16,8.23-.54-.54"/><path class="cls-1" d="M178.3,344.19,192.46,336l.56.52-14.16,8.23-.56-.52"/><path class="cls-1" d="M178.86,344.71,193,336.48l.57.5-14.16,8.23-.57-.5"/><path class="cls-1" d="M179.43,345.21,193.59,337l.57.46L180,345.67l-.57-.46"/><path class="cls-1" d="M180,345.67l14.16-8.23c.18.15.37.29.56.43l-14.17,8.23-.55-.43"/><path class="cls-1" d="M180.55,346.1l14.17-8.23.54.38-14.16,8.23-.55-.38"/><path class="cls-1" d="M181.1,346.48l14.16-8.23.53.36-14.16,8.23-.53-.36"/><path class="cls-1" d="M181.63,346.84l14.16-8.23.53.32-14.16,8.23-.53-.32"/><path class="cls-1" d="M182.16,347.16l14.16-8.23.12.07.4.22-14.16,8.23-.4-.22-.12-.07"/><path class="cls-1" d="M182.68,347.45l14.16-8.23.51.27-14.16,8.23-.51-.27"/><path class="cls-1" d="M183.19,347.72l14.16-8.23.51.24L183.7,348l-.51-.24"/><path class="cls-1" d="M183.7,348l14.16-8.23.51.21-14.16,8.23-.51-.21"/><path class="cls-1" d="M184.21,348.17l14.16-8.23.51.19-14.16,8.23-.51-.19"/><path class="cls-1" d="M184.72,348.36l14.16-8.23.51.17-14.16,8.23-.51-.17"/><path class="cls-1" d="M185.23,348.53l14.16-8.23.52.15-14.16,8.22-.52-.14"/><path class="cls-1" d="M185.75,348.67l14.16-8.22.53.11-14.16,8.23a5,5,0,0,1-.53-.12"/><path class="cls-1" d="M186.28,348.79l14.16-8.23.55.09-14.16,8.23-.55-.09"/><path class="cls-1" d="M186.83,348.88,201,340.65a5.51,5.51,0,0,0,.57.06l-14.16,8.23a5.51,5.51,0,0,1-.57-.06"/><path class="cls-1" d="M187.4,348.94l14.16-8.23c.2,0,.4,0,.6,0L188,349c-.2,0-.4,0-.6,0"/><path class="cls-1" d="M188,349l14.16-8.23c.22,0,.43,0,.65,0l-14.16,8.23c-.22,0-.43,0-.65,0"/><path class="cls-1" d="M188.65,348.93l14.16-8.23a5.93,5.93,0,0,0,.72-.1l-14.16,8.23a5.93,5.93,0,0,1-.72.1"/><path class="cls-1" d="M189.37,348.83l14.16-8.23a6.33,6.33,0,0,0,.88-.24l-14.16,8.23a6.33,6.33,0,0,1-.88.24"/><path class="cls-1" d="M190.25,348.59l14.16-8.23a5.41,5.41,0,0,0,1-.46l-14.16,8.23a5.41,5.41,0,0,1-1,.46"/></g><polygon class="cls-1" points="200.93 355.72 215.09 347.49 218.34 353.11 204.18 361.34 200.93 355.72"/><polygon class="cls-1" points="168.34 299.25 182.5 291.02 185.74 296.65 171.57 304.88 168.34 299.25"/><polygon class="cls-10" points="160.47 303.75 174.63 295.52 182.5 291.02 168.34 299.25 160.47 303.75"/><g class="cls-5"><path class="cls-10" d="M203.13,350.92l14.16-8.23c0,.12-.07.24-.1.36L203,351.28c0-.12.07-.24.1-.36"/><path class="cls-10" d="M203,351.28l14.16-8.23c-.12.4-.25.79-.39,1.16l-14.16,8.23c.14-.37.27-.76.39-1.16"/><path class="cls-10" d="M202.64,352.44l14.16-8.23c-.16.43-.33.85-.52,1.25l-14.16,8.23c.19-.4.36-.82.52-1.25"/><path class="cls-10" d="M202.12,353.69l14.16-8.23a12.38,12.38,0,0,1-.79,1.44l-14.16,8.23a13.26,13.26,0,0,0,.79-1.44"/><path class="cls-10" d="M201.33,355.13l14.16-8.23c-.13.2-.26.4-.4.59l-14.16,8.23c.14-.19.27-.39.4-.59"/></g><g class="cls-5"><polyline class="cls-10" points="171.57 304.88 185.74 296.65 185.74 296.65 171.58 304.88 171.57 304.88"/><path class="cls-10" d="M171.58,304.87l14.16-8.22a9.83,9.83,0,0,1,1.09,0l-14.16,8.23c-.37,0-.73,0-1.09,0"/><path class="cls-10" d="M172.67,304.83l14.16-8.23c.33,0,.67,0,1,0l-14.16,8.23c-.34,0-.68,0-1,0"/><path class="cls-10" d="M173.68,304.86l14.16-8.23c.32,0,.64.06,1,.1L174.64,305c-.32,0-.64-.08-1-.1"/><path class="cls-10" d="M174.64,305l14.16-8.23q.47.06.93.15l-14.16,8.23-.93-.15"/><path class="cls-10" d="M175.57,305.11l14.16-8.23.92.21-14.17,8.23c-.3-.08-.61-.15-.91-.21"/><path class="cls-10" d="M176.48,305.32l14.17-8.23.36.09-14.16,8.23-.37-.09"/></g><g class="cls-5"><path class="cls-10" d="M201,330.88l14.16-8.23,0,.07L201,331l0-.07"/><path class="cls-10" d="M201,331l14.16-8.23c.13.33.25.67.37,1L201.4,332c-.12-.33-.24-.67-.37-1"/><path class="cls-10" d="M201.4,332l14.16-8.22c.13.35.26.7.37,1.06L201.77,333c-.11-.35-.24-.7-.37-1.06"/><path class="cls-10" d="M201.77,333l14.16-8.22c.13.36.25.73.36,1.1l-14.16,8.23q-.16-.56-.36-1.11"/><path class="cls-10" d="M202.13,334.12l14.16-8.23q.18.57.33,1.14l-14.16,8.23c-.1-.38-.22-.76-.33-1.14"/><path class="cls-10" d="M202.46,335.26,216.62,327c.11.39.21.78.31,1.16l-14.16,8.23c-.1-.38-.2-.77-.31-1.16"/><path class="cls-10" d="M202.77,336.42l14.16-8.23.27,1.17L203,337.59l-.27-1.17"/><path class="cls-10" d="M203,337.59l14.16-8.23.12.6-14.16,8.22-.12-.59"/></g><g class="cls-5"><path class="cls-10" d="M187.94,311.81l14.16-8.23.27.24-14.16,8.23-.27-.24"/><path class="cls-10" d="M188.21,312.05l14.16-8.23,1,.91L189.19,313l-1-.91"/><path class="cls-10" d="M189.19,313l14.16-8.23.93.92-14.16,8.23-.93-.92"/><path class="cls-10" d="M190.12,313.88l14.16-8.23.87.92L191,314.8l-.87-.92"/><path class="cls-10" d="M191,314.8l14.16-8.23c.28.3.56.61.83.92l-14.16,8.23c-.28-.31-.55-.62-.83-.92"/><path class="cls-10" d="M191.82,315.72,206,307.49l.79.92-14.16,8.23-.79-.92"/><path class="cls-10" d="M192.61,316.64l14.16-8.23c.19.24.39.47.58.72l-14.16,8.22-.58-.71"/></g><polygon class="cls-10" points="207.77 340.85 221.93 332.62 221.9 345.35 207.74 353.58 207.77 340.85"/><polygon class="cls-1" points="203.16 338.19 217.32 329.96 221.93 332.62 207.77 340.85 203.16 338.19"/><polygon class="cls-10" points="176.87 300.12 191.03 291.89 202.11 298.29 187.95 306.52 176.87 300.12"/><polygon class="cls-1" points="187.95 306.52 202.11 298.29 202.1 303.58 187.94 311.81 187.95 306.52"/><polygon class="cls-10" points="196.45 315.48 210.61 307.25 218.43 320.8 204.27 329.03 196.45 315.48"/><polygon class="cls-10" points="193.19 317.36 207.35 309.13 210.61 307.25 196.45 315.48 193.19 317.36"/><path class="cls-6" d="M207.73,353.58l-4.6-2.66a14.82,14.82,0,0,1-2.2,4.8l3.25,5.62-7.87,4.47-3.24-5.61a15.23,15.23,0,0,1-5.27-.53V365l-11.09-6.4,0-5.28a45.79,45.79,0,0,1-5.27-5.55l-3.26,1.86-7.81-13.53,3.26-1.86a46.15,46.15,0,0,1-2.16-7.31l-4.6-2.66,0-12.73,4.6,2.65a14.91,14.91,0,0,1,2.19-4.78l-3.24-5.62,7.87-4.49,3.24,5.63a15,15,0,0,1,5.27.53l0-5.29,11.08,6.4v5.29a45.56,45.56,0,0,1,5.25,5.54l3.26-1.87L204.27,329,201,330.88a43.65,43.65,0,0,1,2.16,7.3l4.61,2.66Zm-16.47-5.45c2.38-1.35,3.73-4.29,3.74-8.15a27.84,27.84,0,0,0-12.64-21.89c-3.35-1.94-6.59-2.26-9-.9s-3.73,4.3-3.74,8.16a27.87,27.87,0,0,0,12.63,21.88c3.37,1.94,6.59,2.26,9,.9"/></g><g class="cls-5"><polygon class="cls-10" points="154.09 268.09 162.46 263.23 164.38 262.13 156.01 267 154.09 268.09"/><polygon class="cls-1" points="170.29 282.05 178.66 277.19 178.65 280.31 170.28 285.17 170.29 282.05"/><polygon class="cls-1" points="152.04 253.58 160.41 248.72 163.13 250.28 154.76 255.15 152.04 253.58"/><g class="cls-5"><path class="cls-1" d="M161.78,257l8.36-4.86a3.75,3.75,0,0,0-1.32,1.28l-8.36,4.86a3.76,3.76,0,0,1,1.32-1.28"/><path class="cls-1" d="M160.46,258.23l8.36-4.86c-.1.16-.19.33-.28.51l-8.36,4.86a3.15,3.15,0,0,1,.28-.51"/><path class="cls-1" d="M160.18,258.74l8.36-4.86c-.06.14-.12.28-.18.44L160,259.18c.06-.15.12-.3.19-.44"/><path class="cls-1" d="M160,259.18l8.37-4.86c-.05.13-.09.26-.13.4l-8.37,4.86c0-.14.08-.27.13-.4"/><path class="cls-1" d="M159.86,259.58l8.37-4.86c0,.12-.07.25-.1.38L159.76,260c0-.13.06-.25.1-.38"/><path class="cls-1" d="M159.76,260l8.37-4.86c0,.12,0,.24-.07.37l-8.37,4.86c0-.13,0-.25.07-.37"/><path class="cls-1" d="M159.69,260.33l8.37-4.86a3.37,3.37,0,0,0-.06.36l-8.37,4.86.06-.36"/><path class="cls-1" d="M159.63,260.69l8.37-4.86c0,.11,0,.23,0,.35L159.6,261l0-.35"/><path class="cls-1" d="M159.6,261l8.36-4.86c0,.12,0,.23,0,.35l-8.36,4.87c0-.12,0-.24,0-.36"/><path class="cls-1" d="M159.58,261.4l8.36-4.87c0,.12,0,.24,0,.35l-8.36,4.87c0-.12,0-.24,0-.35"/><path class="cls-1" d="M159.57,261.75l8.36-4.87v0c0,.11,0,.22,0,.33l-8.37,4.86v-.35"/><path class="cls-1" d="M159.57,262.1l8.37-4.86c0,.12,0,.23,0,.35l-8.37,4.87c0-.12,0-.24,0-.36"/><path class="cls-1" d="M159.59,262.46l8.37-4.87c0,.12,0,.24,0,.37l-8.36,4.86,0-.36"/><path class="cls-1" d="M159.62,262.82,168,258c0,.12,0,.24.05.36l-8.37,4.87c0-.13,0-.25,0-.37"/><path class="cls-1" d="M159.66,263.19l8.37-4.87c0,.13,0,.25.05.38l-8.37,4.86c0-.12,0-.25-.05-.37"/><path class="cls-1" d="M159.71,263.56l8.37-4.86c0,.13,0,.25.07.38L159.78,264c0-.13-.05-.26-.07-.39"/><path class="cls-1" d="M159.78,264l8.37-4.87c0,.13,0,.26.07.39l-8.36,4.87c0-.13-.06-.26-.08-.39"/><path class="cls-1" d="M159.86,264.34l8.36-4.87c0,.14.06.27.1.4L160,264.74l-.09-.4"/><path class="cls-1" d="M160,264.74l8.37-4.87c0,.14.07.27.1.4l-8.36,4.87c0-.14-.08-.27-.11-.4"/><path class="cls-1" d="M160.06,265.14l8.36-4.87.12.4-8.37,4.87c0-.14-.08-.27-.11-.4"/><path class="cls-1" d="M160.17,265.54l8.37-4.87c0,.13.08.26.13.39l-8.37,4.87c-.05-.13-.09-.26-.13-.39"/><path class="cls-1" d="M160.3,265.93l8.37-4.87c0,.13.08.26.13.39l-8.37,4.86c-.05-.13-.09-.26-.13-.38"/><path class="cls-1" d="M160.43,266.31l8.37-4.86c0,.12.09.24.14.37l-8.37,4.86c0-.12-.09-.25-.14-.37"/><path class="cls-1" d="M160.57,266.68l8.37-4.86c0,.12.09.24.14.36L160.71,267l-.14-.36"/><path class="cls-1" d="M160.71,267l8.37-4.86.15.35-8.36,4.86a3.73,3.73,0,0,1-.16-.35"/><path class="cls-1" d="M160.87,267.39l8.36-4.86.17.36L161,267.76c-.06-.12-.11-.25-.16-.37"/><path class="cls-1" d="M161,267.76l8.37-4.87.18.38-8.37,4.86-.18-.37"/><path class="cls-1" d="M161.21,268.13l8.37-4.86c.07.15.15.29.23.44l-8.37,4.86c-.08-.14-.15-.29-.23-.44"/><path class="cls-1" d="M161.44,268.57l8.37-4.86c.09.18.2.36.3.54l0,.08-8.37,4.87,0-.08-.3-.55"/><path class="cls-1" d="M161.79,269.2l8.37-4.87c.2.36.42.71.65,1.05l-8.36,4.86c-.23-.34-.45-.68-.66-1"/><path class="cls-1" d="M162.45,270.24l8.36-4.86c.14.21.29.41.43.61l-8.36,4.86c-.15-.2-.29-.4-.43-.61"/><path class="cls-1" d="M162.88,270.85l8.36-4.86c.11.13.21.27.31.4l-8.37,4.86-.3-.4"/><path class="cls-1" d="M163.18,271.25l8.37-4.86c.1.12.19.24.29.35l-8.37,4.87-.29-.36"/><path class="cls-1" d="M163.47,271.61l8.37-4.87c.09.12.19.23.29.34l-8.37,4.86-.29-.33"/><path class="cls-1" d="M163.76,271.94l8.37-4.86c.09.11.19.22.29.32l-8.37,4.87-.29-.33"/><path class="cls-1" d="M164.05,272.27l8.37-4.87.3.32-8.36,4.87-.31-.32"/><path class="cls-1" d="M164.36,272.59l8.36-4.87.32.32-8.36,4.86-.32-.31"/><path class="cls-1" d="M164.68,272.9,173,268l.34.31L165,273.21l-.33-.31"/><path class="cls-1" d="M165,273.21l8.37-4.86.33.29-8.37,4.86-.33-.29"/><path class="cls-1" d="M165.34,273.5l8.37-4.86.34.28-8.37,4.86-.34-.28"/><path class="cls-1" d="M165.68,273.78l8.37-4.86.33.25L166,274l-.33-.25"/><path class="cls-1" d="M166,274l8.37-4.86.32.23-8.37,4.86L166,274"/><path class="cls-1" d="M166.33,274.26l8.37-4.86.31.2-8.36,4.87-.32-.21"/><path class="cls-1" d="M166.65,274.47,175,269.6l.31.19L167,274.66l-.31-.19"/><path class="cls-1" d="M167,274.66l8.36-4.87.08,0,.23.13-8.37,4.86-.23-.13-.07,0"/><path class="cls-1" d="M167.26,274.83l8.37-4.86.3.15L167.57,275l-.31-.16"/><path class="cls-1" d="M167.57,275l8.36-4.87.31.15-8.37,4.86-.3-.14"/><path class="cls-1" d="M167.87,275.13l8.37-4.86.3.12-8.37,4.87-.3-.13"/><path class="cls-1" d="M168.17,275.26l8.37-4.87.3.12-8.37,4.86-.3-.11"/><path class="cls-1" d="M168.47,275.37l8.37-4.86.3.1-8.37,4.86-.3-.1"/><path class="cls-1" d="M168.77,275.47l8.37-4.86.31.08-8.37,4.86-.31-.08"/><path class="cls-1" d="M169.08,275.55l8.37-4.86.31.07-8.37,4.86-.31-.07"/><path class="cls-1" d="M169.39,275.62l8.37-4.86.32.05-8.36,4.87-.33-.06"/><path class="cls-1" d="M169.72,275.68l8.36-4.87.34,0-8.37,4.86-.33,0"/><path class="cls-1" d="M170.05,275.71l8.37-4.86h.35l-8.36,4.86h-.36"/><path class="cls-1" d="M170.41,275.72l8.36-4.86.39,0-8.37,4.87h-.38"/><path class="cls-1" d="M170.79,275.71l8.37-4.87a3.18,3.18,0,0,0,.43-.06l-8.37,4.87-.43.06"/><path class="cls-1" d="M171.22,275.65l8.37-4.87a3.34,3.34,0,0,0,.52-.14l-8.37,4.86a4.44,4.44,0,0,1-.52.15"/><path class="cls-1" d="M171.74,275.5l8.37-4.86a3.47,3.47,0,0,0,.59-.27l-8.36,4.86a3.24,3.24,0,0,1-.6.27"/></g><polygon class="cls-1" points="178.05 279.72 186.42 274.85 188.34 278.17 179.97 283.04 178.05 279.72"/><polygon class="cls-1" points="158.79 246.35 167.16 241.49 169.07 244.81 160.7 249.67 158.79 246.35"/><polygon class="cls-10" points="154.14 249 162.51 244.14 167.16 241.49 158.79 246.35 154.14 249"/><g class="cls-5"><path class="cls-10" d="M179.35,276.88l8.37-4.86-.06.21-8.37,4.86.06-.21"/><path class="cls-10" d="M179.29,277.09l8.37-4.86c-.07.24-.15.47-.23.69l-8.37,4.86c.08-.22.16-.45.23-.69"/><path class="cls-10" d="M179.06,277.78l8.37-4.86c-.1.25-.2.5-.31.73l-8.37,4.87c.11-.24.22-.49.31-.74"/><path class="cls-10" d="M178.75,278.52l8.37-4.87a6.9,6.9,0,0,1-.47.85l-8.37,4.87a7.72,7.72,0,0,0,.47-.85"/><path class="cls-10" d="M178.28,279.37l8.37-4.87c-.07.12-.15.24-.23.35l-8.37,4.87c.08-.12.16-.23.23-.35"/></g><g class="cls-5"><polyline class="cls-10" points="160.7 249.67 169.07 244.81 169.07 244.81 160.71 249.67 160.7 249.67"/><path class="cls-10" d="M160.7,249.67l8.37-4.86c.21,0,.43,0,.65,0l-8.37,4.86c-.22,0-.43,0-.65,0"/><path class="cls-10" d="M161.35,249.64l8.37-4.86c.19,0,.39,0,.59,0L162,249.66l-.6,0"/><path class="cls-10" d="M162,249.66l8.36-4.86a5.51,5.51,0,0,1,.57.06l-8.37,4.86-.56-.06"/><path class="cls-10" d="M162.51,249.72l8.37-4.86a5.25,5.25,0,0,1,.55.09l-8.37,4.86-.55-.09"/><path class="cls-10" d="M163.06,249.81l8.37-4.86.54.12-8.37,4.86-.54-.12"/><path class="cls-10" d="M163.6,249.93l8.37-4.86.22.06L163.82,250l-.22-.06"/></g><g class="cls-5"><path class="cls-10" d="M178.09,265l8.37-4.86v0l-8.37,4.87v0"/><path class="cls-10" d="M178.1,265.08l8.37-4.87.23.6-8.37,4.86c-.07-.2-.15-.39-.23-.59"/><path class="cls-10" d="M178.33,265.67l8.37-4.86.22.63-8.37,4.86-.22-.63"/><path class="cls-10" d="M178.55,266.3l8.37-4.86c.07.21.14.43.2.65L178.76,267l-.21-.65"/><path class="cls-10" d="M178.76,267l8.36-4.86c.07.22.14.45.2.67L179,267.63c-.06-.23-.12-.45-.19-.68"/><path class="cls-10" d="M179,267.63l8.37-4.87q.1.35.18.69l-8.37,4.86c0-.23-.11-.45-.18-.68"/><path class="cls-10" d="M179.13,268.31l8.37-4.86c.06.23.11.46.16.69L179.3,269c-.06-.23-.11-.46-.17-.69"/><path class="cls-10" d="M179.3,269l8.36-4.86c0,.12.05.24.08.35l-8.37,4.86c0-.11-.05-.23-.07-.35"/></g><g class="cls-5"><path class="cls-10" d="M170.37,253.77l8.37-4.86.16.14-8.37,4.86-.16-.14"/><path class="cls-10" d="M170.53,253.91l8.37-4.86.58.54-8.37,4.86-.58-.54"/><path class="cls-10" d="M171.11,254.45l8.37-4.86.55.54L171.66,255l-.55-.54"/><path class="cls-10" d="M171.66,255l8.37-4.86.51.54-8.36,4.87c-.17-.19-.35-.37-.52-.55"/><path class="cls-10" d="M172.18,255.54l8.36-4.87.49.54-8.37,4.87-.48-.54"/><path class="cls-10" d="M172.66,256.08l8.37-4.87.47.55-8.37,4.86-.47-.54"/><path class="cls-10" d="M173.13,256.62l8.37-4.86.34.42-8.36,4.87-.35-.43"/></g><polygon class="cls-10" points="182.09 270.93 190.46 266.06 190.44 273.59 182.07 278.45 182.09 270.93"/><polygon class="cls-1" points="179.37 269.36 187.74 264.49 190.46 266.06 182.09 270.93 179.37 269.36"/><polygon class="cls-10" points="163.83 246.86 172.2 242 178.75 245.78 170.38 250.64 163.83 246.86"/><polygon class="cls-1" points="170.38 250.64 178.75 245.78 178.74 248.91 170.37 253.77 170.38 250.64"/><polygon class="cls-10" points="175.4 255.94 183.77 251.08 188.39 259.08 180.02 263.94 175.4 255.94"/><polygon class="cls-10" points="173.47 257.05 181.84 252.18 183.77 251.08 175.4 255.94 173.47 257.05"/><path class="cls-6" d="M182.07,278.45l-2.72-1.57a8.94,8.94,0,0,1-1.3,2.84L180,283l-4.65,2.64-1.92-3.32a9,9,0,0,1-3.11-.31v3.12l-6.55-3.78v-3.12a27.84,27.84,0,0,1-3.11-3.28l-1.93,1.1-4.61-8L156,267a25.9,25.9,0,0,1-1.28-4.33L152,261.1l0-7.52,2.72,1.57a8.67,8.67,0,0,1,1.3-2.83L154.14,249l4.65-2.65,1.91,3.32a8.76,8.76,0,0,1,3.12.32v-3.13l6.55,3.78v3.13a26.36,26.36,0,0,1,3.11,3.28l1.92-1.11,4.62,8L178.09,265a26.25,26.25,0,0,1,1.28,4.31l2.72,1.58Zm-9.73-3.22c1.4-.8,2.2-2.54,2.2-4.81a15.12,15.12,0,0,0-2.17-7.35,15.3,15.3,0,0,0-5.29-5.59c-2-1.14-3.9-1.34-5.3-.53s-2.21,2.54-2.21,4.82a15.12,15.12,0,0,0,2.17,7.35A15.34,15.34,0,0,0,167,274.7c2,1.15,3.89,1.34,5.31.53"/></g><g class="cls-5"><polygon class="cls-10" points="463.08 337.76 446.59 328.25 435.35 334.78 451.83 344.3 468.32 353.81 479.56 347.28 463.08 337.76"/><path class="cls-1" d="M468.32,353.82l11.24-6.54c7.07,18.18,15.95,24.72,16.41,25.07l-11.24,6.53C484.26,378.54,475.39,372,468.32,353.82Z"/><g class="cls-11"><path class="cls-1" d="M495.68,372.13l-.46-.38-.58-.51-.68-.63-.74-.73-.77-.8-.78-.87-.81-.95-.87-1.07c-.32-.41-.65-.84-1-1.29-.48-.65-1-1.34-1.48-2.09-.74-1.1-1.51-2.32-2.29-3.65-.48-.82-1-1.69-1.45-2.6q-.5-.93-1-1.92c-.28-.56-.56-1.15-.84-1.74l-.81-1.77c-.26-.61-.53-1.22-.79-1.86s-.53-1.3-.79-2v0l-11.24,6.54h0c.27.68.53,1.34.8,2s.53,1.25.79,1.85.54,1.2.81,1.77.56,1.18.84,1.75.66,1.3,1,1.92c.48.91,1,1.78,1.45,2.6.78,1.33,1.55,2.54,2.29,3.65.5.74,1,1.43,1.47,2.08l1,1.29.86,1.07c.28.33.55.65.82.95l.78.87.77.8.73.73.68.63.59.51c.18.16.34.28.46.38l.29.22L496,372.35Z"/></g><path class="cls-6" d="M484.73,378.88c6.51,44.58-17.62,53.53-33.15,54.15-15.47-18.52-39.47-55.26-32.73-92.18.47.19,9.35,3.9,16.5-6.07l16.48,9.52,16.49,9.52C475.39,372,484.26,378.54,484.73,378.88Z"/><path class="cls-10" d="M439.7,334.1l-.73.29-.62.2-.3.09c-.3.09-.6.16-.89.22h0a10.57,10.57,0,0,1-1.2.18l-.33,0-.72,0h-.3l-.72,0h-.16l-.79-.08-.21,0-.51-.08-.24-.05-.38-.09-.22-.06-.33-.09-.16-.05-.3-.09-.09,0-.29-.11-.07,0h0l-11.24,6.54.08,0h0l.28.11h0l.07,0,.29.1.08,0,.09,0,.33.09.13,0,.08,0,.39.09.18,0H421l.51.08.17,0h0c.25,0,.52.07.8.09h.16c.24,0,.47,0,.72,0h.3l.72,0h.19l.14,0c.39,0,.78-.09,1.19-.17h0c.3-.06.6-.14.91-.22l.3-.1.51-.15.11-.05c.24-.08.48-.19.73-.29l.36-.15a11.8,11.8,0,0,0,1.11-.58l11.24-6.53q-.56.31-1.11.57Z"/><path class="cls-10" d="M497.06,386.9v-.76c0-.6,0-1.21,0-1.84v-.41l0-.53c0-.6-.05-1.21-.08-1.82,0-.2,0-.39,0-.6l0-.34c-.05-.76-.11-1.52-.18-2.3,0-.16,0-.31,0-.46s0-.07,0-.1c-.1-1-.21-2-.34-3,0-.08,0-.15,0-.22q-.13-1.06-.3-2.16l-11.24,6.53c.12.81.22,1.6.32,2.38.13,1,.24,2,.34,3,0,.18,0,.37,0,.55.07.78.14,1.55.19,2.3,0,.32,0,.63.05.94q.06.93.09,1.83l0,.93c0,.63,0,1.25,0,1.85,0,.25,0,.5,0,.75,0,.84,0,1.66-.06,2.47,0,.09,0,.18,0,.28,0,.73-.08,1.44-.13,2.14,0,.25,0,.5-.07.75-.05.55-.1,1.1-.17,1.64,0,.24-.05.48-.08.72-.1.77-.21,1.52-.34,2.25,0,0,0,.05,0,.08q-.21,1.15-.45,2.25c-.05.19-.09.37-.13.55-.19.82-.4,1.63-.62,2.4v0c-.26.89-.55,1.74-.86,2.57,0,.1-.06.19-.1.29-.37,1-.78,1.94-1.21,2.84l-.06.13c-.27.58-.56,1.13-.85,1.66l-.24.42q-.36.64-.75,1.26l-.21.34c-.32.49-.64,1-1,1.42l-.21.28q-.4.56-.84,1.08l-.3.36c-.34.4-.69.8-1,1.18l0,0c-.37.39-.75.77-1.13,1.13l-.33.3c-.31.29-.62.56-.93.83l-.27.23c-.4.33-.8.64-1.2,1l-.28.19-1,.7-.35.23c-.42.27-.84.54-1.26.78l11.24-6.53c.43-.25.85-.51,1.27-.78l.34-.23c.34-.23.68-.46,1-.7l.27-.2c.4-.3.8-.61,1.2-.94l.27-.23.94-.83.32-.3c.38-.37.76-.74,1.13-1.13l0-.05c.36-.38.71-.77,1.05-1.18l.29-.36c.29-.34.57-.7.84-1.07l.22-.29c.33-.45.65-.92,1-1.41l.07-.11.15-.24c.25-.41.5-.82.74-1.25l.24-.42c.3-.54.58-1.09.86-1.66,0,0,0,0,0,0l0-.08c.43-.91.83-1.85,1.2-2.84l0-.09a1.72,1.72,0,0,1,.07-.21c.3-.82.59-1.68.85-2.57h0c.22-.77.43-1.57.62-2.39,0-.1,0-.19.08-.29s0-.18.05-.26c.16-.74.32-1.48.45-2.25v0s0,0,0-.08c.12-.72.23-1.47.33-2.23,0-.1,0-.19,0-.29s0-.29.05-.44c.06-.53.12-1.08.17-1.64,0-.16,0-.31,0-.47s0-.19,0-.27c.06-.7.1-1.42.14-2.14,0-.09,0-.16,0-.24v-.05Q497,388.16,497.06,386.9Z"/><path class="cls-2" d="M460.2,381.57v-5.72a14.06,14.06,0,0,0-6.37-11l-4.12-2.38c-3.53-2-6.4-.41-6.42,3.64v5.72l-2.09-1.21,0,12.12c0,6.7,4.68,14.84,10.5,18.2s10.56.67,10.58-6l0-12.13Zm-15-14.38c0-2.85,2-4,4.51-2.58l4.13,2.38a9.91,9.91,0,0,1,4.48,7.77l0,5.72-13.12-7.58Zm7.59,20.93v3.77c0,.68-.49.95-1.08.61a2.36,2.36,0,0,1-1.08-1.85v-3.78A6.1,6.1,0,0,1,449,383c0-1.75,1.24-2.45,2.76-1.57a6.05,6.05,0,0,1,2.74,4.75C454.47,387.47,453.78,388.2,452.79,388.12Z"/></g><polygon class="cls-1" points="294.95 112.02 303.42 107.1 308.94 101.06 300.47 105.97 294.95 112.02"/><path class="cls-10" d="M338.38,77.77c0-.12,0-.25,0-.37l0-.38c0-.12,0-.25,0-.37l-.06-.39c0-.13,0-.26-.07-.39s-.05-.27-.08-.4l-.09-.41-.11-.41-.12-.41c0-.13-.08-.26-.13-.4l-.13-.39-.15-.38-.15-.38-.16-.37c-.05-.12-.11-.25-.17-.37s-.13-.27-.19-.41l-.24-.46c-.13-.23-.25-.46-.39-.68s-.37-.62-.57-.92-.33-.47-.49-.7l-.35-.45-.29-.37-.3-.35-.3-.33-.32-.33-.33-.32-.33-.32-.35-.3-.34-.28-.34-.26-.34-.24-.32-.21-.33-.2-.07,0-54.19-30.7-.25-.14-.32-.16a2.2,2.2,0,0,0-.31-.15l-.31-.13c-.1-.05-.21-.08-.31-.12l-.31-.1-.32-.09-.32-.07-.34-.06-.34,0H273a2.61,2.61,0,0,0-.4,0,3.25,3.25,0,0,0-.45.06l-.54.15a3.5,3.5,0,0,0-.62.29l-8.47,4.92a3.6,3.6,0,0,1,.63-.29,4.26,4.26,0,0,1,.54-.15l.44-.07h.76l.35,0,.34.06.31.07a3,3,0,0,1,.32.09l.31.1a1.66,1.66,0,0,1,.31.12l.31.13a2.3,2.3,0,0,1,.32.15l.32.16L268,39l54.19,30.7.08,0,.32.2.33.21.33.24.34.26.35.28.34.3.34.32.33.32.31.33.3.33.3.35.3.37.34.45.49.69c.2.31.39.61.58.93s.26.45.38.68l.24.46.2.41c.06.12.11.25.17.37s.11.25.16.37l.15.38.14.38.14.39c0,.14.08.27.13.4l.12.41c0,.14.07.27.1.41s.07.27.1.41.05.26.08.4.05.26.07.39,0,.26.05.39,0,.25,0,.37a2.43,2.43,0,0,1,0,.38c0,.12,0,.25,0,.37s0,.23,0,.35l-.09,30.52v0c0,.13,0,.25,0,.38s0,.24,0,.36,0,.25,0,.37,0,.25-.06.37,0,.25-.07.38-.07.26-.1.39-.09.28-.14.41l-.18.44a5.54,5.54,0,0,1-.3.53,3.9,3.9,0,0,1-1.34,1.31L336,113.6a4,4,0,0,0,1.34-1.31c.1-.17.2-.35.29-.53s.13-.29.19-.44.09-.27.13-.41.07-.26.1-.39.06-.25.08-.38,0-.24.05-.37,0-.24,0-.37l0-.36v-.4l.09-30.52Z"/><path class="cls-6" d="M322.21,69.69c4.26,2.46,7.72,8.45,7.71,13.35l-.09,30.52c0,4.9-3.49,6.88-7.76,4.42l-21.6-12L295,112l-5.63-12.48L267.89,87.28a17,17,0,0,1-7.71-13.35l.09-30.52c0-4.9,3.47-6.89,7.75-4.42Z"/><path class="cls-4" d="M530.52,268.07c-1.6-.92-2.9-.18-2.91,1.66l-.23,83.79a6.36,6.36,0,0,0,2.88,5l93,53.7c1.6.93,2.9.19,2.9-1.65l.24-83.79a6.32,6.32,0,0,0-2.89-5Z"/><path class="cls-1" d="M530,267.85l-.2-.07-.13,0-.12,0-.15,0h-.32l-.21,0h0l-.16,0-.05,0-.19.09,5.55-3.23h0l.14-.08h.08l.08,0,.08,0h.08l.18,0h.4l.08,0,.12,0,.06,0,.06,0,.21.07.07,0,0,0c.12.06.24.11.37.19l93,53.7a3.29,3.29,0,0,1,.54.38l.17.14.26.23s.07.08.11.11l.09.11a1.36,1.36,0,0,1,.12.12l.23.28.08.11,0,.05.07.1.17.25.15.25v0l.12.2.12.25a2.14,2.14,0,0,1,.1.22v0h0c0,.08.07.17.1.26s.07.18.1.27,0,.09,0,.14l0,.06,0,.1c0,.11.06.22.08.33s0,.13,0,.2,0,.07,0,.11a.29.29,0,0,1,0,.09,3.64,3.64,0,0,1,0,.57l-.24,83.79a2,2,0,0,1-.84,1.86l-5.56,3.23a2,2,0,0,0,.84-1.86l.24-83.79a5.16,5.16,0,0,0,0-.67s0-.07,0-.1a4.8,4.8,0,0,0-.15-.63v-.06a6.46,6.46,0,0,0-.26-.69h0c-.1-.23-.22-.45-.34-.67v0a6.65,6.65,0,0,0-.41-.62l0-.06c-.13-.17-.27-.34-.42-.5l-.1-.11c-.11-.12-.24-.23-.36-.34l-.17-.15a3.78,3.78,0,0,0-.55-.37l-93-53.71-.36-.18Z"/><g class="cls-5"><path class="cls-6" d="M530.4,263.45c-1.59-.92-2.9-.19-2.9,1.66l0,5.76,98.81,57.05,0-5.77a6.39,6.39,0,0,0-2.89-5Z"/><path class="cls-7" d="M631.83,318.36a.44.44,0,0,1,0-.1s0-.07,0-.1l0-.21c0-.11,0-.22-.09-.33a.54.54,0,0,0,0-.1v-.06s0-.09,0-.13l-.09-.28c0-.08-.07-.17-.11-.26h0a2.4,2.4,0,0,0-.11-.23c0-.08-.08-.16-.12-.24l-.11-.21v0l0,0c0-.08-.09-.16-.14-.24l-.17-.25-.08-.11,0-.05-.07-.1-.24-.29-.11-.12-.1-.1-.11-.12-.25-.22-.17-.15a4.91,4.91,0,0,0-.55-.38l-93-53.7a2.58,2.58,0,0,0-.41-.2l-.12,0-.11,0-.11,0-.25,0h-.41l-.17,0h-.06l-.11,0-.15.06-.15.07h0l-5.56,3.23a1.26,1.26,0,0,1,.42-.16h0a1.83,1.83,0,0,1,.47,0h0a2.77,2.77,0,0,1,.48.11l.1,0a3.59,3.59,0,0,1,.53.25l93,53.7a4,4,0,0,1,.54.38,1.22,1.22,0,0,1,.17.15,3.92,3.92,0,0,1,.37.34l.09.1c.15.16.29.33.43.51l0,.05c.14.2.28.41.4.62v0a6.16,6.16,0,0,1,.34.68h0a5.54,5.54,0,0,1,.25.68l0,.06q.09.31.15.63s0,.07,0,.11a3.77,3.77,0,0,1,.06.66l0,5.77,5.56-3.23v-5.77A5.4,5.4,0,0,0,631.83,318.36Z"/></g><path class="cls-2" d="M606.49,310.11c-1-.58-1.82-.12-1.82,1a4,4,0,0,0,1.81,3.14c1,.58,1.81.11,1.82-1A4,4,0,0,0,606.49,310.11Z"/><path class="cls-2" d="M612.72,313.71c-1-.58-1.82-.12-1.82,1a4,4,0,0,0,1.81,3.14c1,.58,1.82.11,1.82-1A4,4,0,0,0,612.72,313.71Z"/><path class="cls-2" d="M619,317.3c-1-.57-1.81-.11-1.82,1a4,4,0,0,0,1.81,3.14c1,.58,1.83.11,1.83-1A4,4,0,0,0,619,317.3Z"/><ellipse class="cls-2" cx="572.22" cy="339.43" rx="15.77" ry="24.81" transform="translate(-86.81 430.73) rotate(-38.56)"/><polygon class="cls-6" points="568.12 330.57 568.12 345.7 581.23 344.13 568.12 330.57"/><path class="cls-12" d="M423.45,207a12.8,12.8,0,0,1,2.16-2.95c.37-.44,1.5-1.66,1.51-2.13s.2-1.2-.06-1.3-1.14.69-1.14.69a7.92,7.92,0,0,1-.53-3.11c.22-1.07,1.08-3,.62-3.07a5.74,5.74,0,0,0-2.45.82,9.07,9.07,0,0,0-2.33,2.22,22.48,22.48,0,0,0-.53,4.41,29.74,29.74,0,0,1-.76,3.77Z"/><path class="cls-13" d="M420,231.89c-.93,3.91-4.9,9.88-7.67,8.19-.57-.35-1.8-4.85-1.93-5.8-.7-5.19,2.15-11.37,2.89-13.91.93-3.2,6.32-15.24,6.32-15.24s3.1.76,3.85,1.9c0,0-3.33,11.62-4,14.17S420,231.89,420,231.89Z"/><path class="cls-10" d="M457.87,190.61a.91.91,0,0,0,0-.17c0-.06,0-.12,0-.17s0-.12,0-.18l0-.17,0-.18,0-.19c0-.06,0-.12-.05-.18a1.33,1.33,0,0,0-.05-.19,1.8,1.8,0,0,0-.05-.19l-.06-.18-.06-.18c0-.06-.05-.11-.07-.17a3782657473009.11,3782657473009.11,0,0,0-.14-.34,1.42,1.42,0,0,0-.08-.18l-.09-.18a2.12,2.12,0,0,0-.11-.21c-.05-.11-.11-.21-.17-.32s-.17-.28-.27-.42l-.22-.32-.16-.2-.13-.17-.14-.16-.14-.15-.14-.15-.15-.15-.16-.15-.15-.13-.16-.13-.16-.12-.15-.11-.15-.1-.15-.09,0,0-24.79-14-.11-.07-.15-.07-.14-.07-.15-.06-.14,0-.14-.05-.15,0-.14,0-.16,0h-.5l-.21,0a1.09,1.09,0,0,0-.24.07,1.51,1.51,0,0,0-.29.13l-3.87,2.25a1.51,1.51,0,0,1,.29-.13l.24-.07.21,0h.5l.16,0,.14,0,.15,0,.14.05.14,0,.14.06.15.07.14.07.12.07,24.79,14,0,0,.15.09.15.1.15.11.16.12.15.13a1.07,1.07,0,0,1,.16.14l.16.14.15.15.14.15.14.15.13.16a2.09,2.09,0,0,1,.14.17l.16.2.22.32.27.42.17.32.11.21.09.19c0,.05.05.11.08.17s.05.11.07.17.05.11.07.17l.06.17a1.34,1.34,0,0,1,.07.18l.06.18c0,.07,0,.13,0,.19s0,.13.05.19a1.16,1.16,0,0,1,0,.18,1.62,1.62,0,0,1,0,.19l0,.18,0,.17a1.1,1.1,0,0,0,0,.18s0,.11,0,.17,0,.11,0,.17V193l0,26.11h0v.17a1,1,0,0,0,0,.17c0,.06,0,.11,0,.17l0,.17,0,.17c0,.06,0,.12-.05.18l-.06.18a1.89,1.89,0,0,1-.09.21c0,.08-.08.16-.13.24a1.75,1.75,0,0,1-.61.6l3.87-2.25a1.84,1.84,0,0,0,.61-.6c0-.08.1-.16.14-.24a1.8,1.8,0,0,0,.08-.21,1.27,1.27,0,0,0,.06-.18,1.21,1.21,0,0,0,.05-.18c0-.06,0-.12,0-.17s0-.12,0-.17,0-.12,0-.17,0-.11,0-.17v-.17h0l0-26.11Z"/><path class="cls-6" d="M450.48,186.91A7.78,7.78,0,0,1,454,193l0,26.11c0,2.24-1.6,3.15-3.55,2l-24.79-14A7.78,7.78,0,0,1,422.1,201l0-26.11c0-2.24,1.59-3.15,3.55-2Z"/><path class="cls-12" d="M449,214.07a12.72,12.72,0,0,0,1.27-3.43,7.35,7.35,0,0,1,.94-2.44c.39-.28.89-.83,1.11-.67s.05,1.33.05,1.33a8.07,8.07,0,0,0,2.89-1.27c.78-.78,1.89-2.56,2.22-2.22a5.72,5.72,0,0,1,.67,2.49,9,9,0,0,1-.56,3.17,22.52,22.52,0,0,1-3.38,2.88,30.65,30.65,0,0,0-2.72,2.72Z"/><path class="cls-1" d="M424.57,319.37s0,2.45,0,3.29.24,1.78.49,1.9a3.92,3.92,0,0,0,2.89.29c.28-.07,3.15-.89,4.35-2.44s.17-2.15-1.17-2.15-3.32-1.69-3.32-1.69Z"/><path class="cls-1" d="M414.94,313.52s0,3.13,0,4,.23,1.78.49,1.9a4.56,4.56,0,0,0,2.89.29,21.17,21.17,0,0,0,3-3.39c1.2-1.55.35-2.39-1-2.39a4.58,4.58,0,0,1-2.18-.5Z"/><path class="cls-12" d="M426.18,215.66c.41.05,1.13,3,1.41,4.45s.46,3.4.63,3.94-.23,1.5-.23,1.91.32,2.19-.84,2.74-2.27.16-2.33.47-.66,4.11-.66,4.11l-5.7-.89a17.68,17.68,0,0,0-.23-3.12C418,228,417,224,417,224Z"/><path class="cls-14" d="M415.51,217a4.94,4.94,0,0,1,3.26-3.08c2.72-1,8-.34,8.84,0s.55,3.24-.7,4.65a5.89,5.89,0,0,0-1.39,4.12l.05.84-.81,0a4.51,4.51,0,0,0-.82-1.77c-.81-.82-2.16-.2-2,.75a2,2,0,0,0,1.05,1.54,2.07,2.07,0,0,0,.85.36s-1.46,2.16-1.66,2.64a20.24,20.24,0,0,0-.49,2.19l-3.34.51a21.63,21.63,0,0,0-2.59-4.57,8.13,8.13,0,0,1-1.88-5.46A4.42,4.42,0,0,1,415.51,217Z"/><path class="cls-10" d="M420.48,264.67c-3.07,3.07-3.5,9-.84,15,1.8,4.09,2.72,5.48,3,13.86s1.81,17.37,1.69,26.25c0,1,3.23,1.41,5.24-.14,0,0,.87-20.14,1.39-25.4s1.38-12.06,1.38-17.71a58,58,0,0,0-1.69-13Z"/><path class="cls-10" d="M413.84,262.25c-3.07,3.08-1.89,9.06-1.22,15.31s1.12,14,1.37,18.66c.22,4,.36,9.43.9,17.3.06,1,2.88,2.34,4.89.79,0,0,1.24-17.17,1.76-22.43s2.21-15.52,3.26-20.52,1.58-6.84,1.58-6.84Z"/><path class="cls-13" d="M416.35,228.93c-1.38-.2-2.32,1.13-3.9,2.51s-1.38,7.3-.59,11.25a33.94,33.94,0,0,1,.51,11c-.4,4.54-1.22,10.76-1,15.5,0,0,1.51,2.9,7.77,3.76a28.57,28.57,0,0,0,13.43-1.88s-1.1-12.35-1.42-15.54c-.47-4.71,1.13-11.09,1.73-14.09.89-4.43-2.66-10.78-2.66-10.78a17.07,17.07,0,0,1-7.5.09A39.28,39.28,0,0,1,416.35,228.93Z"/><path class="cls-13" d="M430.2,230.7c-2.74,2.94-2.15,12.4.79,13.77.61.28,2-3.65,2.53-4.45,2.93-4.31,8.28-8.08,10-10.1,2.15-2.54,9.2-13.7,9.2-13.7s-2.35-2.15-3.72-2.15c0,0-7.83,9.2-9.59,11.15S430.2,230.7,430.2,230.7Z"/><path class="cls-12" d="M421.54,203.2c.26,0,.78-.21,1.26-.3,1.12-.21,1.18.15,2.39-.93.72-.64,1.17-.49.87.51a6.79,6.79,0,0,1-1,1.41,16.92,16.92,0,0,1-1.34,2C423.05,206.46,421.54,203.2,421.54,203.2Z"/><g class="cls-5"><g class="cls-5"><path class="cls-7" d="M181,154.72,171,148.88l.09,0,10.06,5.84-.09,0"/><path class="cls-7" d="M181.13,154.68l-10.06-5.84a9.71,9.71,0,0,1,1.31-.45l10.06,5.84a13.61,13.61,0,0,0-1.31.45"/><path class="cls-7" d="M182.44,154.23l-10.06-5.84a7.85,7.85,0,0,1,1-.22L183.44,154a9.39,9.39,0,0,0-1,.21"/><path class="cls-7" d="M183.44,154l-10.06-5.85a8,8,0,0,1,.83-.08l10.06,5.85a8,8,0,0,0-.83.08"/><path class="cls-7" d="M184.27,153.94l-10.06-5.85a6,6,0,0,1,.74,0L185,153.94h-.74"/><path class="cls-7" d="M185,153.94,175,148.1a4.87,4.87,0,0,1,.68.08L185.69,154c-.22,0-.45-.06-.68-.08"/><path class="cls-7" d="M185.69,154l-10.06-5.84a4.13,4.13,0,0,1,.63.14l10.06,5.85a6.42,6.42,0,0,0-.63-.15"/><path class="cls-7" d="M186.32,154.17l-10.06-5.85a5.89,5.89,0,0,1,.59.21l10.06,5.85a5.89,5.89,0,0,0-.59-.21"/><path class="cls-7" d="M186.91,154.38l-10.06-5.85a4.3,4.3,0,0,1,.57.28l10.05,5.84a5.77,5.77,0,0,0-.56-.27"/><path class="cls-7" d="M187.47,154.65l-10.05-5.84.06,0,10.06,5.85-.07,0"/></g><g class="cls-5"><path class="cls-7" d="M167.88,145.61l-10-5.84a14.66,14.66,0,0,1,1.58-.53l10.06,5.85a15.47,15.47,0,0,0-1.59.52"/><path class="cls-7" d="M169.47,145.09l-10.06-5.85a12.15,12.15,0,0,1,1.38-.29l10.06,5.84a11.77,11.77,0,0,0-1.38.3"/><path class="cls-7" d="M170.85,144.79,160.79,139q.6-.09,1.17-.12L172,144.68a9.26,9.26,0,0,0-1.17.11"/><path class="cls-7" d="M172,144.68,162,138.83c.35,0,.7,0,1,0l10.06,5.85a7.21,7.21,0,0,0-1,0"/><path class="cls-7" d="M173.06,144.69,163,138.84c.32,0,.63.06.94.11L174,144.8a7.31,7.31,0,0,0-.94-.11"/><path class="cls-7" d="M174,144.8,163.94,139c.29.05.58.12.87.2L174.87,145a6.82,6.82,0,0,0-.87-.2"/><path class="cls-7" d="M174.87,145l-10.06-5.85a7.06,7.06,0,0,1,.81.29l10.06,5.84a7.75,7.75,0,0,0-.81-.28"/><path class="cls-7" d="M175.68,145.28l-10.06-5.84a5.62,5.62,0,0,1,.78.38l10,5.84a6.88,6.88,0,0,0-.77-.38"/><path class="cls-7" d="M176.45,145.66l-10-5.84.08,0,10.06,5.85-.09-.05"/></g><g class="cls-5"><path class="cls-7" d="M146.09,136.42,136,130.58a26.45,26.45,0,0,1,3.11-1.55l10.06,5.85a25.59,25.59,0,0,0-3.11,1.54"/><path class="cls-7" d="M149.2,134.88,139.14,129a19.59,19.59,0,0,1,2.54-.87L151.74,134a21.33,21.33,0,0,0-2.54.88"/><path class="cls-7" d="M151.74,134l-10.06-5.84a17.93,17.93,0,0,1,1.95-.42l10.06,5.85a15.78,15.78,0,0,0-1.95.41"/><path class="cls-7" d="M153.69,133.59l-10.06-5.85a15.49,15.49,0,0,1,1.63-.16l10.06,5.84a15.55,15.55,0,0,0-1.63.17"/><path class="cls-7" d="M155.32,133.42l-10.06-5.84a14,14,0,0,1,1.45,0l10.06,5.85a13.91,13.91,0,0,0-1.45,0"/><path class="cls-7" d="M156.77,133.44l-10.06-5.85a11.33,11.33,0,0,1,1.32.16l10.06,5.84q-.65-.1-1.32-.15"/><path class="cls-7" d="M158.09,133.59,148,127.75a10,10,0,0,1,1.23.28l10.06,5.85a10,10,0,0,0-1.23-.29"/><path class="cls-7" d="M159.32,133.88,149.26,128a9.39,9.39,0,0,1,1.16.41l10.06,5.84a11.33,11.33,0,0,0-1.16-.4"/><path class="cls-7" d="M160.48,134.28l-10.06-5.84a11.2,11.2,0,0,1,1.1.54l10.06,5.84a11.2,11.2,0,0,0-1.1-.54"/><path class="cls-7" d="M161.58,134.82,151.52,129l.12.07,10.06,5.84-.12-.07"/></g><g class="cls-5"><path class="cls-7" d="M125.37,165.48l-10.06-5.85c.09-.35.18-.69.28-1l10.06,5.85c-.1.34-.19.69-.28,1"/><path class="cls-7" d="M125.65,164.44l-10.06-5.85c.21-.75.44-1.49.68-2.24l10.06,5.84c-.25.75-.47,1.5-.68,2.25"/><path class="cls-7" d="M126.33,162.19l-10.06-5.84c.24-.69.48-1.38.75-2.07l10.06,5.84q-.4,1-.75,2.07"/><path class="cls-7" d="M127.08,160.12,117,154.28c.25-.66.52-1.31.8-2l10.06,5.85c-.28.65-.55,1.31-.8,2"/><path class="cls-7" d="M127.88,158.16l-10.06-5.85c.28-.63.57-1.27.87-1.9l10.06,5.85c-.3.63-.59,1.26-.87,1.9"/><path class="cls-7" d="M128.75,156.26l-10.06-5.85c.3-.62.62-1.25,1-1.86l10.06,5.84c-.33.62-.65,1.24-.95,1.87"/><path class="cls-7" d="M129.7,154.39l-10.06-5.84c.33-.63.67-1.24,1-1.85l10.06,5.84c-.36.61-.7,1.23-1,1.85"/><path class="cls-7" d="M130.73,152.54l-10.06-5.84c.37-.63.74-1.25,1.14-1.86l10.05,5.84c-.39.61-.77,1.23-1.13,1.86"/><path class="cls-7" d="M131.86,150.68l-10.05-5.84c.4-.64.83-1.28,1.26-1.9l10.06,5.85c-.43.62-.86,1.25-1.27,1.89"/><path class="cls-7" d="M133.13,148.79l-10.06-5.85q.72-1,1.47-2l10.06,5.84c-.51.65-1,1.31-1.47,2"/><path class="cls-7" d="M134.6,146.8,124.54,141c.57-.74,1.16-1.45,1.76-2.15l10.06,5.85c-.6.69-1.19,1.41-1.76,2.14"/><path class="cls-7" d="M136.36,144.66l-10.06-5.85q1.15-1.34,2.4-2.55l10.05,5.84c-.82.82-1.62,1.67-2.39,2.56"/><path class="cls-7" d="M138.75,142.1l-10.05-5.84a36.5,36.5,0,0,1,7.33-5.68l10.06,5.84a37.22,37.22,0,0,0-7.34,5.68"/></g><polygon class="cls-1" points="97.67 202.72 87.62 196.87 89.15 195.99 99.21 201.84 97.67 202.72"/><g class="cls-5"><path class="cls-1" d="M89.77,229.29l-10.06-5.84c-2-1.17-3.27-3.66-3.28-7.21a16.45,16.45,0,0,1,.15-2.19l10.06,5.84a16.6,16.6,0,0,0-.15,2.2c0,3.54,1.26,6,3.28,7.2"/><path class="cls-1" d="M86.64,219.89l-10.06-5.84c.06-.52.15-1,.26-1.56l10.06,5.85c-.11.52-.2,1-.26,1.55"/><path class="cls-1" d="M86.9,218.34l-10.06-5.85c.09-.43.2-.86.32-1.28l10.06,5.84c-.12.43-.23.86-.32,1.29"/><path class="cls-1" d="M87.22,217.05l-10.06-5.84c.1-.39.22-.77.35-1.15l10.06,5.85c-.13.38-.25.76-.35,1.14"/><path class="cls-1" d="M87.57,215.91l-10.06-5.85c.12-.35.24-.71.38-1.06L88,214.85c-.14.35-.26.7-.38,1.06"/><path class="cls-1" d="M88,214.85,77.89,209c.13-.33.26-.67.41-1l10.06,5.84c-.15.34-.28.67-.41,1"/><path class="cls-1" d="M88.36,213.84,78.3,208c.14-.33.29-.66.45-1l10,5.85c-.15.32-.3.65-.44,1"/><path class="cls-1" d="M88.8,212.87l-10-5.85c.15-.32.31-.64.48-1l10.06,5.84c-.17.32-.33.64-.49,1"/><path class="cls-1" d="M89.29,211.91l-10.06-5.84c.17-.32.34-.64.53-.95l10,5.85c-.18.31-.35.63-.52.94"/><path class="cls-1" d="M89.81,211l-10-5.85c.18-.32.38-.63.58-1l10,5.85c-.2.31-.39.63-.58.95"/><path class="cls-1" d="M90.39,210l-10-5.85c.21-.32.42-.65.64-1L91,209.05c-.22.32-.44.64-.65,1"/><path class="cls-1" d="M91,209.05,81,203.2l.75-1L91.79,208c-.26.33-.5.67-.75,1"/><path class="cls-1" d="M91.79,208l-10.06-5.85c.3-.38.6-.75.91-1.11l10.06,5.85c-.31.36-.61.73-.91,1.11"/><path class="cls-1" d="M92.7,206.93l-10.06-5.85c.4-.45.81-.89,1.23-1.3l10.06,5.84c-.42.42-.83.85-1.23,1.31"/><path class="cls-1" d="M93.93,205.62l-10.06-5.84a18.48,18.48,0,0,1,3.75-2.91l10.06,5.85a18.78,18.78,0,0,0-3.75,2.9"/></g><g class="cls-5"><path class="cls-1" d="M99.21,201.84,89.15,196a20.45,20.45,0,0,1-.1-2.11,27.67,27.67,0,0,1,.24-3.6l10,5.85a29.34,29.34,0,0,0-.23,3.59,20.78,20.78,0,0,0,.1,2.12"/><path class="cls-1" d="M99.34,196.13l-10-5.85c.11-.84.25-1.69.43-2.55l10.06,5.85c-.18.85-.33,1.7-.44,2.55"/><path class="cls-1" d="M99.78,193.58l-10.06-5.85c.15-.7.33-1.4.52-2.11l10.06,5.85c-.2.7-.37,1.41-.52,2.11"/><path class="cls-1" d="M100.3,191.47l-10.06-5.85c.17-.62.36-1.25.57-1.87l10.06,5.85c-.21.62-.4,1.24-.57,1.87"/><path class="cls-1" d="M100.87,189.6l-10.06-5.85c.2-.58.4-1.16.62-1.73l10.06,5.84c-.22.58-.43,1.16-.62,1.74"/><path class="cls-1" d="M101.49,187.86,91.43,182c.22-.56.44-1.11.68-1.65l10.06,5.84c-.24.55-.46,1.1-.68,1.65"/><path class="cls-1" d="M102.17,186.21l-10.06-5.84c.23-.54.47-1.07.73-1.6l10.06,5.85c-.26.53-.5,1.06-.73,1.59"/><path class="cls-1" d="M102.9,184.62l-10.06-5.85c.25-.52.52-1.05.79-1.56l10.06,5.84c-.27.52-.54,1-.79,1.57"/><path class="cls-1" d="M103.69,183.05l-10.06-5.84c.28-.52.57-1,.86-1.55l10.06,5.85c-.29.51-.58,1-.86,1.54"/><path class="cls-1" d="M104.55,181.51l-10.06-5.85c.31-.53.63-1,1-1.56L105.5,180c-.32.51-.64,1-1,1.56"/><path class="cls-1" d="M105.5,180,95.44,174.1c.35-.53.7-1.06,1.07-1.58l10.06,5.84c-.37.52-.72,1-1.07,1.59"/><path class="cls-1" d="M106.57,178.36l-10.06-5.84c.39-.57.8-1.12,1.22-1.66l10.06,5.84c-.42.54-.83,1.1-1.22,1.66"/><path class="cls-1" d="M107.79,176.7l-10.06-5.84c.48-.63,1-1.23,1.49-1.82l10.06,5.85c-.51.58-1,1.19-1.49,1.81"/><path class="cls-1" d="M109.28,174.89,99.22,169c.65-.74,1.32-1.46,2-2.14l10.06,5.85c-.69.68-1.36,1.39-2,2.14"/><path class="cls-1" d="M111.29,172.75l-10.06-5.85a30.78,30.78,0,0,1,6.14-4.75,20.53,20.53,0,0,1,2.62-1.3l10.06,5.84a23.57,23.57,0,0,0-2.62,1.3,30.93,30.93,0,0,0-6.14,4.76"/><path class="cls-1" d="M120.05,166.69,110,160.85a16.42,16.42,0,0,1,2.14-.73L122.18,166a17.92,17.92,0,0,0-2.13.73"/><path class="cls-1" d="M122.18,166l-10.05-5.84a14,14,0,0,1,1.6-.35l10.06,5.85a14.5,14.5,0,0,0-1.61.34"/><path class="cls-1" d="M123.79,165.62l-10.06-5.85a13,13,0,0,1,1.36-.13l10.06,5.84a13.07,13.07,0,0,0-1.36.14"/><path class="cls-1" d="M125.15,165.48l-10.06-5.84h.22l10.06,5.85h-.22"/></g><path class="cls-8" d="M146.09,136.42c11.09-6.4,20.29-2.24,21.79,9.19,5.29-2.08,10-.74,12.1,4.2a14.65,14.65,0,0,1,1.06,4.91c5.49-2.33,9.74.61,9.76,7.15,0,7.12-5,15.8-11.18,19.37L97.75,228.51c-6.2,3.58-11.24.71-11.26-6.42s5-15.79,11.19-19.37l1.53-.88a20.78,20.78,0,0,1-.1-2.12c0-11.66,8.17-25.87,18.32-31.73a17,17,0,0,1,7.94-2.51C128.3,153.85,136.45,142,146.09,136.42Z"/></g><path class="cls-2" d="M147.68,152.89l13.22,12.89a.61.61,0,0,1-.12,1l-6.11,3.53a.61.61,0,0,0-.31.54l0,17.48-14.47,8.35-.05-16.77a.61.61,0,0,0-.92-.53l-4.52,2.6a.61.61,0,0,1-.86-.79l13.1-28.09A.62.62,0,0,1,147.68,152.89Z"/></g></svg>