<!--?xml version="1.0" standalone="no"?-->
              <svg id="sw-js-blob-svg" viewBox="0 0 100 100" xmlns="http://www.w3.org/2000/svg" version="1.1">
                    <defs> 
                        <linearGradient id="sw-gradient" x1="0" x2="1" y1="1" y2="0">
                            <stop id="stop1" stop-color="rgba(25, 77, 163, 1)" offset="0%"></stop>
                            <stop id="stop2" stop-color="rgba(58.959, 138.636, 226.718, 1)" offset="100%"></stop>
                        </linearGradient>
                    </defs>
                <path fill="url(#sw-gradient)" d="M18.4,-31.9C23.4,-29,26.6,-23.1,30.8,-17.3C35,-11.5,40.3,-5.7,39.6,-0.4C39,5,32.4,9.9,28.8,16.9C25.3,23.9,24.8,33,20.5,37.9C16.2,42.7,8.1,43.3,0.6,42.3C-6.9,41.3,-13.9,38.7,-18.5,34C-23.1,29.3,-25.3,22.6,-29.7,16.6C-34.2,10.6,-40.9,5.3,-40.9,0C-41,-5.4,-34.4,-10.7,-29,-15.1C-23.7,-19.5,-19.5,-23,-14.8,-26.1C-10.2,-29.1,-5.1,-31.9,0.8,-33.3C6.7,-34.7,13.4,-34.8,18.4,-31.9Z" width="100%" height="100%" transform="translate(50 50)" stroke-width="0" style="transition: all 0.3s ease 0s;"></path>
              </svg>