<svg xmlns="http://www.w3.org/2000/svg" xmlns:xlink="http://www.w3.org/1999/xlink" viewBox="0 0 650 408.41"><defs><style>.cls-1,.cls-12,.cls-19,.cls-23,.cls-24,.cls-27,.cls-28,.cls-30,.cls-31,.cls-4,.cls-40,.cls-42,.cls-43,.cls-48,.cls-49,.cls-5,.cls-53,.cls-56,.cls-58,.cls-59,.cls-6,.cls-62{fill:none;}.cls-2{isolation:isolate;}.cls-3{fill:#e1f1ff;}.cls-11,.cls-12,.cls-4,.cls-5,.cls-6{stroke:#b8e2ff;}.cls-11,.cls-17,.cls-24,.cls-28,.cls-31,.cls-4,.cls-43,.cls-5,.cls-53,.cls-56,.cls-58,.cls-59,.cls-6{stroke-linejoin:round;}.cls-5{stroke-dasharray:3.99 2;}.cls-6{stroke-dasharray:4 2;}.cls-7{fill:#f0fbff;}.cls-26,.cls-8{opacity:0.55;}.cls-9{fill:#b8e2ff;}.cls-10{fill:#cde2fc;}.cls-11,.cls-29{fill:#eff6f9;}.cls-11,.cls-19,.cls-28,.cls-53,.cls-56{stroke-linecap:round;}.cls-12,.cls-19,.cls-23,.cls-27,.cls-30,.cls-40,.cls-42,.cls-48,.cls-49,.cls-62{stroke-miterlimit:10;}.cls-13{fill:#b7cfe5;}.cls-14{fill:#dfe6ea;}.cls-15,.cls-17{fill:#fff;}.cls-16,.cls-25{fill:#eff7f9;}.cls-17{stroke:#c0e3ff;}.cls-18{fill:#c0e3ff;}.cls-19,.cls-27,.cls-28,.cls-53{stroke:#fff;}.cls-19,.cls-28{stroke-width:0.5px;}.cls-20{fill:#83bbff;opacity:0.75;}.cls-20,.cls-25{mix-blend-mode:screen;}.cls-21{fill:#edf2f4;}.cls-22,.cls-26{fill:#d5eaf7;}.cls-23{stroke:#d5eaf7;}.cls-24{stroke:#99d6ff;}.cls-25{opacity:0.45;}.cls-30{stroke:#edf2f4;}.cls-31{stroke:#71bfff;}.cls-32{fill:#4376cf;}.cls-33{clip-path:url(#clip-path);}.cls-34{fill:url(#linear-gradient);}.cls-35{fill:url(#linear-gradient-2);}.cls-36{fill:#ffd9d7;}.cls-37{fill:#cad3d8;}.cls-38{fill:#010101;}.cls-39{fill:#ff5245;}.cls-40{stroke:#aa312e;}.cls-40,.cls-42,.cls-43,.cls-48,.cls-49,.cls-58,.cls-59,.cls-62{stroke-width:0.75px;}.cls-41{fill:#039;}.cls-42{stroke:#68707a;}.cls-43{stroke:#ffa4a4;}.cls-44{fill:#33002c;}.cls-45{fill:#611223;}.cls-46{fill:#ffa4a4;}.cls-47{fill:#011e3b;}.cls-48{stroke:#19417c;}.cls-49{stroke:#031628;}.cls-50{fill:#82b1f4;}.cls-51{fill:#f9afaf;}.cls-52{fill:#031628;}.cls-54{fill:#3074e2;}.cls-55{fill:#aa312e;}.cls-56,.cls-59{stroke:#010101;}.cls-57{fill:#191956;}.cls-58{stroke:#4376cf;}.cls-60{fill:#699fed;}.cls-61{fill:#1238a7;}.cls-62{stroke:#152377;}.cls-63{fill:#f9c8c7;}.cls-64{fill:#3f111d;}</style><clipPath id="clip-path"><rect class="cls-1" x="227.42" y="49.46" width="195.17" height="350.13" rx="11.13"/></clipPath><linearGradient id="linear-gradient" x1="459.4" y1="65.41" x2="170.28" y2="354.52" gradientUnits="userSpaceOnUse"><stop offset="0.27" stop-color="#fff" stop-opacity="0.4"/><stop offset="1" stop-color="#fff" stop-opacity="0.3"/></linearGradient><linearGradient id="linear-gradient-2" x1="494.85" y1="69.73" x2="214.38" y2="350.2" xlink:href="#linear-gradient"/></defs><title>Asset 1</title><g class="cls-2"><g id="Layer_2" data-name="Layer 2"><g id="OBJECTS"><path class="cls-3" d="M250.15,78a10.93,10.93,0,0,0,.16-1.83,11.9,11.9,0,0,0-11.9-11.9,11.78,11.78,0,0,0-5,1.12,15.94,15.94,0,0,0-31.77,1.91c0,.11,0,.21,0,.31A10.9,10.9,0,0,0,183.55,78Z"/><line class="cls-4" x1="372.34" y1="60.99" x2="374.34" y2="60.99"/><path class="cls-5" d="M376.34,61H500a21.36,21.36,0,0,1,21.36,21.36h0A21.36,21.36,0,0,1,500,103.71H476"/><line class="cls-4" x1="474.99" y1="103.71" x2="472.99" y2="103.71"/><path class="cls-6" d="M433.25,103.71H160.06A23.28,23.28,0,0,0,136.78,127h0a23.28,23.28,0,0,0,23.28,23.28h138.8"/><rect class="cls-7" x="438.61" y="100.01" width="28.3" height="20.72"/><g class="cls-8"><polyline class="cls-7" points="466.91 120.73 452.81 106.61 438.61 120.73"/><path class="cls-9" d="M466.91,120.73c-2.49-2.21-4.91-4.49-7.32-6.79s-4.78-4.64-7.14-7h.71c-2.37,2.35-4.75,4.69-7.18,7l-3.65,3.43c-1.24,1.12-2.45,2.26-3.72,3.36,1.11-1.26,2.25-2.47,3.38-3.7l3.45-3.64c2.3-2.41,4.66-4.78,7-7.14a.5.5,0,0,1,.7,0h0c2.34,2.37,4.68,4.73,7,7.15S464.71,118.23,466.91,120.73Z"/></g><path class="cls-3" d="M451.78,112.68,438.61,100h28.3l-13.07,12.66A1.48,1.48,0,0,1,451.78,112.68Z"/><path class="cls-3" d="M426.6,33.82a12.53,12.53,0,0,0-19.18-8.31,22.16,22.16,0,0,0,.33-3.67,21.83,21.83,0,0,0-43.52-2.53,12.32,12.32,0,0,0-18.74,14.51Z"/><rect class="cls-7" x="101.69" y="58.75" width="30.92" height="22.63"/><polygon class="cls-3" points="117.2 73.67 101.69 58.75 132.61 58.75 117.2 73.67"/><polygon class="cls-3" points="117.2 46.22 101.69 58.75 132.61 58.75 117.2 46.22"/><polyline class="cls-7" points="132.61 81.39 117.2 65.95 101.69 81.39"/><path class="cls-10" d="M132.61,81.39c-2.72-2.43-5.35-4.93-8-7.45s-5.21-5.07-7.79-7.63h.71c-2.59,2.56-5.19,5.13-7.84,7.63l-4,3.76c-1.35,1.23-2.68,2.48-4,3.69,1.21-1.37,2.47-2.69,3.7-4l3.78-4c2.52-2.64,5.1-5.22,7.68-7.8a.5.5,0,0,1,.7,0h0c2.56,2.58,5.12,5.16,7.62,7.8S130.19,78.67,132.61,81.39Z"/><g class="cls-8"><line class="cls-11" x1="117.15" y1="35.5" x2="117.15" y2="40.8"/><line class="cls-11" x1="117.15" y1="92.41" x2="117.15" y2="97.71"/><line class="cls-11" x1="148.25" y1="66.6" x2="142.95" y2="66.6"/><line class="cls-11" x1="91.34" y1="66.6" x2="86.04" y2="66.6"/><line class="cls-11" x1="95.15" y1="44.61" x2="98.9" y2="48.36"/><line class="cls-11" x1="135.39" y1="84.85" x2="139.14" y2="88.6"/><line class="cls-11" x1="139.14" y1="44.61" x2="135.39" y2="48.36"/><line class="cls-11" x1="98.9" y1="84.85" x2="95.15" y2="88.6"/><line class="cls-11" x1="105.24" y1="37.86" x2="107.27" y2="42.76"/><line class="cls-11" x1="127.02" y1="90.44" x2="129.05" y2="95.34"/><line class="cls-11" x1="145.89" y1="54.7" x2="140.99" y2="56.73"/><line class="cls-11" x1="93.31" y1="76.48" x2="88.41" y2="78.51"/><line class="cls-11" x1="88.41" y1="54.7" x2="93.31" y2="56.73"/><line class="cls-11" x1="140.99" y1="76.48" x2="145.89" y2="78.51"/><line class="cls-11" x1="129.05" y1="37.86" x2="127.02" y2="42.76"/><line class="cls-11" x1="107.27" y1="90.44" x2="105.24" y2="95.34"/></g><path class="cls-12" d="M178.09,89.72a2.37,2.37,0,1,1-2.37-2.37A2.37,2.37,0,0,1,178.09,89.72Z"/><circle class="cls-12" cx="215.01" cy="130.39" r="2.37"/><path class="cls-12" d="M40.44,136.88a2.37,2.37,0,1,1-2.37-2.37A2.37,2.37,0,0,1,40.44,136.88Z"/><circle class="cls-12" cx="442.64" cy="72.98" r="2.37"/><path class="cls-12" d="M553.93,218.24a2.37,2.37,0,1,1-2.37-2.37A2.37,2.37,0,0,1,553.93,218.24Z"/><path class="cls-12" d="M300.74,11.88a2.37,2.37,0,1,1-2.36-2.37A2.37,2.37,0,0,1,300.74,11.88Z"/><line class="cls-12" x1="414.33" y1="41.14" x2="430.84" y2="41.14"/><line class="cls-12" x1="159.93" y1="112.28" x2="176.43" y2="112.28"/><line class="cls-12" x1="212.64" y1="234.75" x2="229.14" y2="234.75"/><line class="cls-12" x1="252.54" y1="24.67" x2="269.05" y2="24.67"/><line class="cls-12" x1="275.81" y1="24.67" x2="284.71" y2="24.67"/><line class="cls-12" x1="437.84" y1="49.46" x2="445.02" y2="49.46"/><line class="cls-12" x1="526.83" y1="252.36" x2="534.01" y2="252.36"/><line class="cls-12" x1="434.25" y1="168.49" x2="441.43" y2="168.49"/><line class="cls-12" x1="120.84" y1="157.67" x2="128.02" y2="157.67"/><line class="cls-12" x1="560.97" y1="95.82" x2="568.15" y2="95.82"/><line class="cls-12" x1="511.72" y1="142.54" x2="518.9" y2="142.54"/><line class="cls-12" x1="524.64" y1="142.54" x2="537.6" y2="142.54"/><line class="cls-12" y1="399.59" x2="650" y2="399.59"/><rect class="cls-13" x="227.42" y="49.46" width="195.17" height="350.13" rx="11.13"/><path class="cls-14" d="M332,381.06a7,7,0,1,1-7-7A7,7,0,0,1,332,381.06Z"/><rect class="cls-15" x="232.64" y="74.42" width="184.73" height="293.46"/><rect class="cls-16" x="240.33" y="349.19" width="169.33" height="13.18"/><rect class="cls-17" x="240.37" y="176.22" width="169.18" height="163.37" rx="2.87"/><path class="cls-18" d="M240.37,190H409.56V179.09a2.87,2.87,0,0,0-2.88-2.87H243.24a2.87,2.87,0,0,0-2.87,2.87Z"/><line class="cls-19" x1="404.1" y1="180.73" x2="399.36" y2="185.48"/><line class="cls-19" x1="404.1" y1="185.48" x2="399.36" y2="180.73"/><path class="cls-20" d="M382,187.06H250.1a4,4,0,0,1-3.95-3.95h0a4,4,0,0,1,3.95-4H382a3.94,3.94,0,0,1,4,4h0A4,4,0,0,1,382,187.06Z"/><rect class="cls-21" x="245.9" y="199.6" width="157.81" height="125.45" rx="2.71"/><rect class="cls-22" x="254.4" y="207.22" width="140.3" height="6.19"/><line class="cls-23" x1="257.89" y1="233.77" x2="391.72" y2="233.77"/><line class="cls-23" x1="257.89" y1="226.12" x2="391.72" y2="226.12"/><line class="cls-23" x1="257.89" y1="241.13" x2="358.99" y2="241.13"/><line class="cls-23" x1="367.65" y1="241.13" x2="391.72" y2="241.13"/><line class="cls-23" x1="257.89" y1="248.49" x2="391.72" y2="248.49"/><line class="cls-23" x1="257.89" y1="263.05" x2="391.72" y2="263.05"/><line class="cls-23" x1="257.89" y1="270.41" x2="391.72" y2="270.41"/><line class="cls-23" x1="257.89" y1="255.84" x2="292.89" y2="255.84"/><line class="cls-23" x1="305.49" y1="255.84" x2="391.72" y2="255.84"/><line class="cls-23" x1="309.84" y1="277.71" x2="391.72" y2="277.71"/><line class="cls-23" x1="309.84" y1="285.06" x2="361.26" y2="285.06"/><line class="cls-23" x1="367.65" y1="285.06" x2="391.72" y2="285.06"/><line class="cls-23" x1="309.84" y1="292.42" x2="391.72" y2="292.42"/><line class="cls-23" x1="309.84" y1="306.99" x2="391.72" y2="306.99"/><line class="cls-23" x1="309.84" y1="314.34" x2="391.72" y2="314.34"/><line class="cls-23" x1="309.84" y1="299.78" x2="359.65" y2="299.78"/><line class="cls-23" x1="345.6" y1="299.78" x2="391.72" y2="299.78"/><line class="cls-24" x1="257.89" y1="218.24" x2="307.18" y2="218.24"/><line class="cls-24" x1="257.89" y1="210.32" x2="389.17" y2="210.32"/><rect class="cls-25" x="257.89" y="277.71" width="45.19" height="36.64"/><rect class="cls-26" x="262.43" y="281.7" width="21.63" height="17.53"/><rect class="cls-26" x="262.43" y="302.6" width="36.45" height="8.77"/><rect class="cls-17" x="240.44" y="86.69" width="80.29" height="81.8" rx="1.36"/><path class="cls-18" d="M240.44,93.23h80.3V88.05a1.36,1.36,0,0,0-1.37-1.36H241.81a1.36,1.36,0,0,0-1.37,1.36Z"/><line class="cls-19" x1="318.15" y1="88.83" x2="315.9" y2="91.09"/><line class="cls-19" x1="318.15" y1="91.09" x2="315.9" y2="88.83"/><path class="cls-20" d="M300.74,91.83H248A1.87,1.87,0,0,1,246.11,90h0A1.88,1.88,0,0,1,248,88.08h52.75A1.88,1.88,0,0,1,302.61,90h0A1.87,1.87,0,0,1,300.74,91.83Z"/><rect class="cls-21" x="245.9" y="100.62" width="69.38" height="59.54" rx="1.24"/><rect class="cls-22" x="249.48" y="107.17" width="30.86" height="10.23" rx="0.77"/><line class="cls-23" x1="249.79" y1="123.82" x2="312.6" y2="123.82"/><line class="cls-23" x1="249.79" y1="129.76" x2="297.24" y2="129.76"/><line class="cls-23" x1="301.3" y1="129.76" x2="312.6" y2="129.76"/><line class="cls-23" x1="249.79" y1="135.7" x2="312.6" y2="135.7"/><line class="cls-23" x1="249.79" y1="147.45" x2="312.6" y2="147.45"/><line class="cls-23" x1="249.79" y1="153.39" x2="312.6" y2="153.39"/><line class="cls-23" x1="249.79" y1="141.64" x2="288.68" y2="141.64"/><line class="cls-27" x1="283.07" y1="109.32" x2="311.4" y2="109.32"/><line class="cls-27" x1="283.07" y1="114.43" x2="296.85" y2="114.43"/><line class="cls-24" x1="251.23" y1="112.28" x2="274.36" y2="112.28"/><rect class="cls-17" x="329.34" y="86.69" width="80.29" height="81.8" rx="1.36"/><path class="cls-18" d="M329.34,93.23h80.29V88.05a1.36,1.36,0,0,0-1.36-1.36H330.7a1.36,1.36,0,0,0-1.36,1.36Z"/><line class="cls-28" x1="407.04" y1="88.83" x2="404.79" y2="91.09"/><line class="cls-28" x1="407.04" y1="91.09" x2="404.79" y2="88.83"/><path class="cls-20" d="M389.81,91.83H337.06A1.87,1.87,0,0,1,335.18,90h0a1.88,1.88,0,0,1,1.88-1.88h52.75A1.88,1.88,0,0,1,391.68,90h0A1.87,1.87,0,0,1,389.81,91.83Z"/><rect class="cls-29" x="335.18" y="129.85" width="40.55" height="29.68"/><polygon class="cls-22" points="355.52 146.1 335.18 129.85 375.73 129.85 355.52 146.1"/><polygon class="cls-22" points="355.52 113.59 335.18 129.85 375.73 129.85 355.52 113.59"/><polyline class="cls-29" points="375.73 159.53 355.52 139.29 335.18 159.53"/><path class="cls-9" d="M375.73,159.53c-3.51-3.23-7-6.53-10.37-9.85-1.73-1.64-3.41-3.34-5.11-5l-5.08-5h.7l-5.11,5c-1.71,1.67-3.4,3.37-5.14,5l-5.18,5c-1.76,1.63-3.48,3.28-5.26,4.89,1.62-1.77,3.28-3.49,4.91-5.23l5-5.16c1.65-1.73,3.36-3.41,5-5.11l5.06-5.09a.49.49,0,0,1,.7,0h0l5,5.09c1.66,1.7,3.36,3.38,5,5.11C369.21,152.57,372.51,156,375.73,159.53Z"/><rect class="cls-21" x="335.18" y="100.62" width="68.61" height="6.55"/><line class="cls-30" x1="403.79" y1="112.28" x2="371.28" y2="112.28"/><line class="cls-30" x1="403.79" y1="119.03" x2="371.28" y2="119.03"/><line class="cls-30" x1="403.79" y1="125.78" x2="383.56" y2="125.78"/><line class="cls-30" x1="403.79" y1="132.53" x2="383.56" y2="132.53"/><line class="cls-30" x1="403.79" y1="139.28" x2="383.56" y2="139.28"/><line class="cls-30" x1="403.79" y1="146.03" x2="383.56" y2="146.03"/><line class="cls-30" x1="403.79" y1="152.78" x2="383.56" y2="152.78"/><line class="cls-30" x1="403.79" y1="159.53" x2="383.56" y2="159.53"/><line class="cls-31" x1="244.04" y1="355.6" x2="261.61" y2="355.6"/><line class="cls-31" x1="388.46" y1="355.6" x2="406.03" y2="355.6"/><path class="cls-32" d="M341.77,61.92H308.23a.75.75,0,0,1,0-1.5h33.54a.75.75,0,0,1,0,1.5Z"/><path class="cls-32" d="M302,61.92H295.8a.75.75,0,0,1,0-1.5H302a.75.75,0,0,1,0,1.5Z"/><g class="cls-33"><polygon class="cls-34" points="370.22 11.52 224.18 408.42 259.46 408.42 405.51 11.52 370.22 11.52"/><polygon class="cls-35" points="418.64 11.52 272.59 408.42 290.59 408.42 436.63 11.52 418.64 11.52"/></g><path class="cls-36" d="M566.8,175.31l-24.23,4.93-27.79-15.13-6.27,4.56s20.38,21.16,30.54,25.62c7,3.07,36-3.58,36-3.58"/><path class="cls-37" d="M586.24,172.66a55.37,55.37,0,0,0-15.57.31c-5.62,1-16.74,4.63-16.74,4.63l4,19.81,25.7-4.57"/><path class="cls-36" d="M575.44,362.69l1.81,25.25s-14.64,9.8-14.64,10,12,.59,12,.59l5.29-2.59h8.77a.94.94,0,0,0,.92-1.15L588.48,390l.39-20.2"/><path class="cls-38" d="M563.47,396.13c1.89-1.09,8.39-5.19,8.39-5.19l8,5h10v3.69h-10.3v-2.21h-.9a1.07,1.07,0,0,0-.64.21l-2.26,1.69a1.49,1.49,0,0,1-.9.31h-12.2C561,399.59,560.6,397.8,563.47,396.13Z"/><polygon class="cls-38" points="582.49 396.59 589.12 392.5 588.77 390.94 581.57 395.91 582.49 396.59"/><path class="cls-39" d="M568.91,233.35s-6.51,10.18-6.51,40c0,20.41,7,107.67,7,107.67h24.37s.6-86.75.6-97.28c0-20.89,5-36.82,2.62-47.57"/><line class="cls-40" x1="568.83" y1="376.05" x2="593.63" y2="376.05"/><path class="cls-36" d="M609.69,362.69l1.81,25.25s-14.64,9.8-14.64,10,12,.59,12,.59l5.29-2.59h8.77a.94.94,0,0,0,.92-1.15L622.73,390l.39-20.2"/><path class="cls-38" d="M597.73,396.13c1.88-1.09,8.38-5.19,8.38-5.19l8,5h10v3.69H613.76v-2.21h-.9a1,1,0,0,0-.63.21L610,399.28a1.47,1.47,0,0,1-.9.31h-12.2C595.22,399.59,594.85,397.8,597.73,396.13Z"/><polygon class="cls-38" points="616.74 396.59 623.38 392.5 623.02 390.94 615.82 395.91 616.74 396.59"/><path class="cls-39" d="M584.5,238.1,605.26,381h22.88S625,278.53,621.91,264.83c-5.12-23-11.07-26.75-14.13-31.81"/><path class="cls-40" d="M594.25,305.19s-5.89-44.71-9.75-72"/><path class="cls-40" d="M580,234.22s2.41,12.92,3.52,14a17.38,17.38,0,0,0,3.51,2.33"/><path class="cls-40" d="M597.62,234.22s4.39,8.44,13.87,10"/><path class="cls-40" d="M565.6,242.39s7.8.1,9.54-7.64"/><line class="cls-40" x1="604.45" y1="376.05" x2="627.84" y2="376.05"/><path class="cls-40" d="M626,380.59s-.76-70.93-7-112.6a76.5,76.5,0,0,0-15.42-36.08"/><line class="cls-40" x1="592.24" y1="291.33" x2="590.91" y2="380.98"/><path class="cls-37" d="M571,185.08c-5.44,7.88-10.27,12.79-3.55,24.57,1.39,16.11,1.26,24,1.26,24s14.53,6.86,39.09-.59c0,0,9.74-37.09,6.67-40.06s-30.6-23.62-30.6-23.62l-10.51,8.39Z"/><rect class="cls-32" x="572.93" y="200.24" width="29.42" height="39.39" transform="translate(-34.75 140.44) rotate(-13.24)"/><path class="cls-41" d="M576.75,199.18h13.33a1.06,1.06,0,0,1,1.06,1.06v1.61a0,0,0,0,1,0,0H575.69a0,0,0,0,1,0,0v-1.61A1.06,1.06,0,0,1,576.75,199.18Z" transform="translate(-30.42 138.95) rotate(-13.24)"/><path class="cls-41" d="M582.32,195.86a2.16,2.16,0,1,0,2.76,1.57A2.24,2.24,0,0,0,582.32,195.86Zm.73,3.1a1.08,1.08,0,0,1-1.31-.75,1.11,1.11,0,1,1,1.31.75Z"/><path class="cls-36" d="M585.63,221s-6-1.62-8-2.22a12.07,12.07,0,0,0-2.9-.6c-.28,0-.7,0-.71.37s.85.91,1.13,1.14a.55.55,0,0,1,.2.3.39.39,0,0,1-.23.36,1.15,1.15,0,0,1-.45.07c-.65,0-1.31,0-2,0-.08-.35-.15-.7-.23-1a1.76,1.76,0,0,0-1,1.3c-.2.93.69,1.44,1.42,1.68-.32,0-1,.44-1,.76a.93.93,0,0,0,.47.78,5.07,5.07,0,0,0,1.19.31s-1,.12-1,.66a.9.9,0,0,0,.07.51,1.1,1.1,0,0,0,.72.49c.51.17.82.31.82.31a.72.72,0,0,0-.45.77c0,.5.52,1,1.22,1.11,1.8.38,3.35.57,5.17.78a27,27,0,0,0,5.09,0"/><path class="cls-36" d="M616.5,191.71s12.71,32,6,40.2-41-4-41-4l2.88-6.86,22.87-1.48-6.14-23"/><path class="cls-37" d="M585.63,172.13s15.48.6,23.93,6.77,14,26.75,14,26.75L603,212l-4.32-17.65"/><line class="cls-42" x1="602.97" y1="211.95" x2="599.02" y2="195.79"/><path class="cls-42" d="M564.56,196.23a34.55,34.55,0,0,1,5.92-10.43,8.07,8.07,0,0,0,1.81-5.83"/><path class="cls-36" d="M515.83,166.22c-1.78-1.63-5-6.44-6.73-8.07-1.05-1-3-2.54-3.41-2.23-1.11.8,2.44,3,1.88,3.35-.34.25-2.56-1.89-3.7-3s-2.5-2.16-3.13-1.76c-.81.5,4.95,5.92,4.95,5.92s-6.24-5.47-6.89-5c-.93.67,5.33,6.19,5.33,6.19s-5.38-4.58-6.07-4.08,3.32,3.78,4.78,5.35c-1.25-.91-4.31-3.57-4.82-3.21s1.55,2.62,2.11,3.12c3.36,3.05,10.47,8.46,10.47,8.46"/><path class="cls-43" d="M511.17,165.91a8.91,8.91,0,0,1-2.93-5.41"/><path class="cls-36" d="M587,162.91l2.79,10.27s-.7,4.08-6,4.63c-3.77.4-3.79-3.42-3.79-3.42l.39-10.79"/><path class="cls-36" d="M578.71,148.51c-5.1,4.56-10.11,16.92-2.57,18.82a11.08,11.08,0,0,0,13.12-6.83C591.93,153.42,583.81,144,578.71,148.51Z"/><path class="cls-43" d="M580.22,167.61a12.56,12.56,0,0,0,5.35-2.29"/><path class="cls-44" d="M578,156.17a.7.7,0,0,1-.74.66.72.72,0,0,1-.66-.74.71.71,0,0,1,.74-.66A.7.7,0,0,1,578,156.17Z"/><path class="cls-44" d="M576.71,154a3.14,3.14,0,0,1,3.58,2,.12.12,0,0,0,.22-.06,2.88,2.88,0,0,0-3.88-2.23.15.15,0,0,0,.08.28Z"/><path class="cls-36" d="M575.06,154.67s-4.06,3.57-3.82,4.25c.41,1.11,2,1.2,2,1.2"/><path class="cls-15" d="M577.17,162.49l-3.85-1.63s-.69,3.13.57,3.68C576.33,165.62,577.17,162.49,577.17,162.49Z"/><path class="cls-45" d="M595.11,145.66c-2.92-2.82-6.3-3-10.09-1.91a1.66,1.66,0,0,1-.93.12,2.73,2.73,0,0,1-.6-.28,4.85,4.85,0,0,0-3.22-.15,8.89,8.89,0,0,0-4.13,1.7,5.29,5.29,0,0,0-1.83,3.94,3.23,3.23,0,0,0,2,3c.54.28,3.63,1.31,4,.38a1.9,1.9,0,0,0,.67,2.12,4.33,4.33,0,0,0,2.21.78,1.25,1.25,0,0,1,.66.2,1.2,1.2,0,0,1,.32.57,20.12,20.12,0,0,1,.41,5c.08,1.47.54,3-.14,4.38-1,2-2.58,4.14-.53,6.12.76.74,1.75,1.39,2,2.42.19.81-.13,1.72.24,2.48a3,3,0,0,0,2.15,1.27,28.41,28.41,0,0,0,7,1.12,9.82,9.82,0,0,0,6.54-2.21,3.14,3.14,0,0,0,1.26-2.62c-.1-.78-.66-1.45-.71-2.23-.05-.94.64-1.74.92-2.64.71-2.34-1.4-3.86-1.29-6,0-1,.67-2,.76-3,.19-2.05-1.64-3.39-2.58-5a21.39,21.39,0,0,1-1.56-2.65c-.45-1.1-.56-2.31-1-3.4A11.38,11.38,0,0,0,595.11,145.66Z"/><path class="cls-36" d="M582.27,159.91a2,2,0,0,1,2.56-.35c1.22.82,1.2,2.55.56,3.87a2.48,2.48,0,0,1-2.55,1.68c-.76-.09-1.29-1.08-1.1-2.25"/><path class="cls-36" d="M435.93,261.06c-1.19,2.52-1.79,9-1.84,11.28,0,1.36.07,3.75.66,3.92,1.53.42.69-3.56,1.46-3.34.47.13.32,3.06.25,4.56-.07,1.34,0,3.17.85,3.44,1.05.36,1.35-7.17,1.35-7.17s0,7.93.91,8.19c1.29.36,1.3-7.63,1.3-7.63s.13,6.77,1.09,7,.46-4.84.72-6.86c.16,1.48.73,5.83,1.42,5.61s.58-3.13.65-3.84a36.15,36.15,0,0,0-1-12.08"/><path class="cls-46" d="M436.78,271.51s.14-.49.4-1.16.6-1.55.93-2.42c.18-.42.32-.86.47-1.27s.25-.79.36-1.13.17-.63.2-.83.08-.34.08-.34a3.31,3.31,0,0,1,.12.33,3.89,3.89,0,0,1,.17.9,5.91,5.91,0,0,1-.08,1.29,7.22,7.22,0,0,1-.39,1.41,8.38,8.38,0,0,1-.64,1.31,6.84,6.84,0,0,1-.73,1A5.13,5.13,0,0,1,436.78,271.51Z"/><path class="cls-39" d="M435.06,255.5c0,.47-.62,7.41-.62,7.41l13.08,2.84.89-6.33"/><path class="cls-41" d="M465.05,167.62s-21.64,4.64-24.45,10.22c-5.15,10.28-4.2,32.77-5.05,40.3-1.34,11.87-2.3,41-2.3,41l16.7,2.89s5.57-26.86,6.78-37.18,3.39-41.76,3.39-41.76"/><path class="cls-36" d="M471.86,367.58l-1.39,21.54.08,7.54-25.88,1.86c-.72,0-1-2.31-.47-2.51l16.05-6.82-2.09-20"/><path class="cls-47" d="M471.36,390.29s.21-1.75-.62-1.75-.89.79-1.74,1c-1.62.43-5.2.05-8.37-1.06-.38-.13-.31-1.63-1.47-1.63s-.93,1.79-2.15,2.37-10.81,5.38-13.41,6.5c-2.2.95-3.69,3.86.17,3.86h28.17a.61.61,0,0,0,.61-.61v-1.71A50.79,50.79,0,0,0,471.36,390.29Z"/><path class="cls-32" d="M441.38,398h31.17a0,0,0,0,1,0,0v1.61a0,0,0,0,1,0,0H442a.59.59,0,0,1-.59-.59v-1A0,0,0,0,1,441.38,398Z"/><path class="cls-41" d="M453,391.5a5.5,5.5,0,0,1,.91.83,4.26,4.26,0,0,0,.72.75c.18.12.38-.08.35-.27-.15-.79-1.06-1.41-1.7-1.79-.31-.19-.57.27-.28.48Z"/><path class="cls-41" d="M454.43,390.13a10.44,10.44,0,0,1,1.23,1.43c.25.34.48,1,.93,1.1a.16.16,0,0,0,.19-.12c.19-.47-.41-1.07-.69-1.41a6.48,6.48,0,0,0-1.45-1.26.17.17,0,0,0-.21.26Z"/><path class="cls-36" d="M508.44,367.58,511,389.12l.08,7.54-25.88,1.86c-.71,0-1-2.31-.46-2.51l16-6.82-6-20"/><path class="cls-47" d="M511.86,390.29s.21-1.75-.62-1.75-.88.79-1.73,1c-1.63.43-5.2.05-8.37-1.06-.39-.13-.32-1.63-1.48-1.63s-.92,1.79-2.15,2.37-10.8,5.38-13.4,6.5c-2.21.95-3.7,3.86.16,3.86h28.18a.61.61,0,0,0,.6-.61v-1.71A50.79,50.79,0,0,0,511.86,390.29Z"/><path class="cls-32" d="M481.89,398h31.17a0,0,0,0,1,0,0v1.61a0,0,0,0,1,0,0H482.47a.59.59,0,0,1-.59-.59v-1A0,0,0,0,1,481.89,398Z"/><path class="cls-41" d="M493.54,391.5a5.57,5.57,0,0,1,.92.83,4.21,4.21,0,0,0,.71.75c.19.12.38-.08.35-.27-.15-.79-1-1.41-1.69-1.79a.28.28,0,0,0-.29.48Z"/><path class="cls-41" d="M494.94,390.13a12,12,0,0,1,1.23,1.43c.24.34.47,1,.92,1.1a.17.17,0,0,0,.2-.12c.18-.47-.42-1.07-.7-1.41a6.48,6.48,0,0,0-1.45-1.26.17.17,0,0,0-.2.26Z"/><path class="cls-32" d="M469.53,229s-2.35,18,0,34.34c6.14,38.48,23.66,120.91,23.66,120.91h25.4s-7.46-88.58-9.33-118.15c-.56-8.94-.95-20-13.89-33"/><path class="cls-32" d="M446.63,233.05C438.47,286.62,450,384.23,450,384.23h25.38l3.51-114.9s6.17-26.93.19-39.31"/><path class="cls-48" d="M477.71,308.28S471,261.16,471,242.45"/><path class="cls-48" d="M466.81,242.45s1.73,16.41,5.05,16.41"/><path class="cls-48" d="M514.65,384.23l-11.3-118.15s-3.32-17.85-13.89-33"/><line class="cls-48" x1="471.86" y1="384.29" x2="475.67" y2="293.7"/><path class="cls-39" d="M494.67,179.14c-2.47-10.88-4.46-9.6-13.93-11.95a71.64,71.64,0,0,0-10.39-.26c-1.71.14-2.59.28-5.3.69-3.94,3.64-15.49,14.4-16.89,30.78-1.11,12.83-1.33,45.17-1.33,45.17s33.67,3,54.76-1.83C501.59,228.82,498.27,195,494.67,179.14Z"/><path class="cls-41" d="M480.74,167.19c-3.71,14.42-2,42.66.44,86.83,8.45-.92,25-2.75,25-2.75s-2.18-60.16-4.57-65.62C497.31,175.9,480.74,167.19,480.74,167.19Z"/><path class="cls-41" d="M465.05,167.62s-5.93,7-3.55,87.88c-6.55,0-14.56-1.24-18.86-3.14-1.09-34.83,3.59-72.4,3.59-72.4Z"/><path class="cls-49" d="M442.64,252.36s2-55.94,2.63-64.17"/><rect class="cls-50" x="477.55" y="224.71" width="29.66" height="42.48" transform="translate(44.46 565.78) rotate(-62.07)"/><path class="cls-32" d="M466.26,234h14.37a1.15,1.15,0,0,1,1.15,1.15v1.74a0,0,0,0,1,0,0H465.11a0,0,0,0,1,0,0v-1.74a1.15,1.15,0,0,1,1.15-1.15Z" transform="translate(43.69 543.46) rotate(-62.07)"/><path class="cls-32" d="M468.89,233a2.33,2.33,0,1,0,3.23-1.13A2.42,2.42,0,0,0,468.89,233Zm3,1.6a1.11,1.11,0,1,1-.42-1.56A1.14,1.14,0,0,1,471.92,234.61Z"/><path class="cls-36" d="M497.32,250.22l-2.81,5.27s-3.12,1.13-4.42,3.23a23.74,23.74,0,0,1-1.43,2l-2.15-1s-.28,3.06.39,3.74a2.64,2.64,0,0,0,1.73.36,1.21,1.21,0,0,0,1.59,1.42c-.65,1.15.8,2.2,2,1-.12,1.28,1.22,1.71,2.47,1.36a8.38,8.38,0,0,0,4.4-3.06c.88-1.47,1.95-3.65,1.95-3.65l2.79-5.21"/><polyline class="cls-39" points="495.47 250.46 493.87 254.2 508.76 263.02 512.13 254.82"/><path class="cls-46" d="M488.86,260.77l-.13.28c-.1.17-.21.44-.34.73a3,3,0,0,0-.15.45.23.23,0,0,0,0,.13s-.05-.08,0,0l.12.1a.35.35,0,0,0,.21.13.54.54,0,0,0,.19.07,1.06,1.06,0,0,0,.46,0,3.55,3.55,0,0,0,1-.6l.86-.72c.25-.22.48-.39.64-.51l.26-.18s-.21.4-.58,1a7.48,7.48,0,0,1-.73.92,3.19,3.19,0,0,1-1.21.82,1.62,1.62,0,0,1-.85,0,1.46,1.46,0,0,1-.7-.42l-.1-.12a.54.54,0,0,1-.16-.27.68.68,0,0,1,0-.45,1.7,1.7,0,0,1,.31-.52A4.5,4.5,0,0,1,488.86,260.77Z"/><path class="cls-41" d="M489.22,190.94c3.1,7.46,11.3,31.47,11.3,31.47l-6.06,29.69,19.39,9.73s10.82-30.46,10.82-39.18-10.38-33.68-18.08-44.6c-6-8.54-19.76-9.86-25.85-10.86"/><polyline class="cls-49" points="498.23 233.62 500.15 222.41 489.97 193.7"/><path class="cls-36" d="M466.67,161.09l-1.11,7.42s0,3.11,5.84,2.82c4.65-.23,7.06-2,7.94-2.83a1.17,1.17,0,0,0,.34-.95l-1.42-13.46"/><path class="cls-51" d="M463.34,150c.05-.42-.43-.75-.86-.76a1.92,1.92,0,0,0-1.57.82,4.1,4.1,0,0,0-.68,1.69,3.5,3.5,0,0,0,0,1.7,2.08,2.08,0,0,0,2.41,1.35"/><path class="cls-36" d="M465.31,142.17s-5.93,12.69-4.51,15.78c2.13,4.61,8.92,6.18,12.14,4.81,2.71-1.14,6.25-9.27,6.65-11.48C480.68,145.3,469,139.59,465.31,142.17Z"/><path class="cls-52" d="M486.34,145.18A11.34,11.34,0,0,0,482,137.4a5.69,5.69,0,0,0-3.49-1.42c-1.05,0-2.1.48-3.14.32a7.19,7.19,0,0,1-2.43-1.17,11.59,11.59,0,0,0-6.7-1.61,4.22,4.22,0,0,0-2.46.79c-2.43,2-.7,5.91,1,7.78,2.44,2.64,6.34,3.28,9.63,4.28a5.33,5.33,0,0,1,1.94.91c1.42,1.25,1.07,3.5.63,5.33a7.36,7.36,0,0,0,.32,4.8c.35,1,1.22,2.87,1.76,4,1.07-2.16,2.79-3.91,4.24-5.83A14.74,14.74,0,0,0,486.34,145.18Z"/><path class="cls-43" d="M465.76,162.29a12.8,12.8,0,0,0,6.44.28,8,8,0,0,0,4.21-3.82"/><path class="cls-36" d="M475.64,154.11a2.62,2.62,0,0,1,2-.75,2.3,2.3,0,0,1,1.25,1c1.39,2.29-1.2,5.7-3.8,4.8-1-.33-.45-1.59-.45-1.59"/><path class="cls-43" d="M467.2,149.52s-2.53,2.69-2.67,3.44,1.77,1.51,1.77,1.51"/><path class="cls-52" d="M470.53,151.29a.5.5,0,1,0,.89.37.5.5,0,1,0-.89-.37Z"/><path class="cls-52" d="M463.62,148.31a.58.58,0,0,0,.19.78.66.66,0,0,0,.5-1.18A.58.58,0,0,0,463.62,148.31Z"/><path class="cls-52" d="M474.13,149.43c0-.18-.08-.37-.13-.55a.54.54,0,0,0-.08-.19.59.59,0,0,0-.22-.12,9.47,9.47,0,0,0-2-.4,4.43,4.43,0,0,0-1,0c-.4.06-.35.07-.28.48a.56.56,0,0,0,0,.12.31.31,0,0,0,.19.06,8.32,8.32,0,0,1,3.22.77c.06,0,.12.05.16,0S474.14,149.49,474.13,149.43Z"/><path class="cls-52" d="M463.87,145.73l.4-.35a.51.51,0,0,1,.16-.11.34.34,0,0,1,.2,0,5.94,5.94,0,0,1,1.4.81,3,3,0,0,1,.59.53c.2.28.16.26-.12.54l-.09.06a.15.15,0,0,1-.15-.06A5.44,5.44,0,0,0,463.9,146s-.1,0-.1-.09S463.83,145.77,463.87,145.73Z"/><path class="cls-15" d="M463.31,155.31l6,2s-1.53,3-4.44,2C462.31,158.48,463.31,155.31,463.31,155.31Z"/><path class="cls-45" d="M177.49,153.58a20.88,20.88,0,0,0-7,4.27c-2.56,2.54-1.78,4.35-2.79,7.14-1.1,3-4.44,4.57-6.47,6.91-3,3.49-3.08,8.93-.82,12.94s6.5,6.64,11,7.76a16.35,16.35,0,0,0,11.14-.81,16.8,16.8,0,0,0,7.44-8.24,49.54,49.54,0,0,0,3.14-10.86"/><path class="cls-36" d="M148.5,191.1,136,204l-35,26.9,6.54,6.64S142.68,221.67,147,218.6c5.83-4.18,17.95-17.17,17.95-17.17"/><path class="cls-39" d="M178.53,173.34s-14.14,1.11-20.21,6.06-15.08,15.79-15.08,15.79l13.43,16.2,11.17-12.55"/><path class="cls-36" d="M104.5,228.66c-2.07,1-6,2.68-8.06,3.69-1.22.6-3.3,1.79-3.17,2.39.32,1.56,3.47-1,3.63-.23.1.47-2.57,1.68-3.94,2.31-1.22.55-2.8,1.48-2.67,2.33.17,1.1,7-2.09,7-2.09s-7.05,3.66-6.86,4.57c.27,1.31,7.37-2.35,7.37-2.35s-6,3.22-5.76,4.2,4.52-1.81,6.44-2.51c-1.25.83-4.86,3.33-4.34,3.84s3-.92,3.71-1.19a35.93,35.93,0,0,0,10.29-6.39"/><path class="cls-43" d="M104.77,232.18s-2.59,2.52-5.37,2"/><polyline class="cls-36" points="214.78 368.59 215.01 387.98 214.37 396.76 205.53 388.05 201.5 366.36"/><path class="cls-39" d="M204.65,387.18s-2.82,5.57-3.74,7.12a4.91,4.91,0,0,0-.69,3h17c1-2.32-2.25-10.16-2.25-10.16A39.47,39.47,0,0,1,204.65,387.18Z"/><rect class="cls-41" x="200.22" y="396.37" width="17.24" height="3.22"/><path class="cls-53" d="M207.2,391.16a6.72,6.72,0,0,1,5,0"/><path class="cls-53" d="M207.2,392.8a6.72,6.72,0,0,1,5,0"/><path class="cls-53" d="M207.37,389.68c1.21-.43,3.25-.77,4.61,0"/><path class="cls-41" d="M175.18,399v-1.66H153.53a3,3,0,0,1-2.57-1.45l-.18,0v2.67a.43.43,0,0,0,.1.27l.07.07a2.3,2.3,0,0,0,1.67.73h22A.59.59,0,0,0,175.18,399Z"/><path class="cls-36" d="M174.35,368.59l0,19.89-.64,8.28H152.85a1.25,1.25,0,0,1-1.25-1.26h0a1.27,1.27,0,0,1,.8-1.17l12-5.78-2-23.16"/><path class="cls-39" d="M164.2,387.31l-12.53,7a1.57,1.57,0,0,0-.89,1.47h0a1.72,1.72,0,0,0,1.66,1.57h22.74l-.67-9.07S170,390.59,164.2,387.31Z"/><path class="cls-53" d="M161.55,388.88a14.67,14.67,0,0,1,1.85,3.06"/><path class="cls-53" d="M159.93,389.86a13,13,0,0,1,1.51,2.61"/><path class="cls-53" d="M158.55,390.58a18.3,18.3,0,0,1,1.38,2.39"/><path class="cls-41" d="M167.43,223.47l-5.72,5.43c-1.05,3.84-9.35,13.07-10.24,42.27-1,32.29,4.67,99.95,4.67,99.95h23.7l2.31-114.88-.36-41.8"/><path class="cls-41" d="M200.67,226.51c2.17,5.34,9.86,16.59,13.54,32,5.7,23.91,4.58,112.58,4.58,112.58H197.68L177.46,255.75a195,195,0,0,1-1.6-27.27"/><path class="cls-49" d="M181.9,281.09c-1.62-6-5-36.84-6-52.61"/><path class="cls-49" d="M193.43,226.51A73.13,73.13,0,0,1,207.7,257c3,15.2,9.09,114.09,9.09,114.09"/><path class="cls-49" d="M184.62,228.48s2.77,9.13,16.7,10.36"/><path class="cls-49" d="M157.52,238s9.78-5.37,11.61-9.48"/><path class="cls-49" d="M171.89,229.89s1,14.56,2.22,15.81a7.63,7.63,0,0,0,3.83,1.56"/><path class="cls-49" d="M178.09,370.19s1.06-85.37,1.75-101.93"/><polygon class="cls-54" points="180.54 374.21 155.07 374.21 155.21 367.87 180.45 367.87 180.54 374.21"/><polygon class="cls-54" points="219.85 374.21 196.76 374.21 196.2 367.87 219.56 367.87 219.85 374.21"/><path class="cls-39" d="M205.11,186.52c-2.84-4.23-17.63-12.74-17.63-12.74A66.29,66.29,0,0,0,177,173.5a86,86,0,0,0-13.32,14.3c-4.46,4.47-6.21,7.88-6.12,12.5.06,3.15,1.62,5.84,2.54,10.63,1,5.2,1.65,18,1.65,18,8.95,3.26,26.88,2.91,39.87-.42C202.83,216.4,208,190.75,205.11,186.52Z"/><path class="cls-40" d="M163.64,187.8c-4.46,4.47-6.21,7.88-6.12,12.5.06,3.15,1.14,4.81,1.9,7.9"/><path class="cls-40" d="M178.53,199.57l1.24-22.44Z"/><path class="cls-55" d="M181.78,183.74a.43.43,0,0,1-.85,0,.43.43,0,1,1,.85,0Z"/><circle class="cls-55" cx="180.93" cy="191.08" r="0.42"/><path class="cls-55" d="M180.93,198.42a.42.42,0,1,1-.42-.43A.42.42,0,0,1,180.93,198.42Z"/><path class="cls-36" d="M213,189.85s16.67,17,20.17,19.51,32.91,20,32.91,20l-2.22,8.34s-37.86-12.49-43-15.91c-7.12-4.75-24.88-22.42-24.88-22.42"/><path class="cls-39" d="M188,174a62.69,62.69,0,0,1,15.87,5.09c5.23,2.66,17.07,15.45,17.07,15.45L206,210.71,190,196.9"/><line class="cls-40" x1="203.72" y1="208.78" x2="194.15" y2="200.49"/><path class="cls-36" d="M261.65,227.17c2.21.65,6.35,1.63,8.56,2.29,1.31.39,3.55,1.21,3.53,1.82-.06,1.59-3.59-.43-3.62.38,0,.48,2.82,1.23,4.27,1.62s3,1,3,1.85c0,1.11-7.24-.89-7.24-.89s7.55,2.43,7.52,3.36c-.05,1.34-7.66-1.09-7.66-1.09s6.41,2.19,6.37,3.18-4.7-.73-6.71-1.1c1.37.61,5.06,1.81,5,2.54s-2.86.16-3.56,0a37.76,37.76,0,0,1-11.68-4.91"/><path class="cls-43" d="M262,230.68s3,2,5.63,1.1"/><path class="cls-36" d="M177.44,166.18l-.53,7.83s-1.43,3.08,4.45,3.26a6.42,6.42,0,0,0,6.12-3.49l-2.56-12.11"/><path class="cls-36" d="M170.45,148.85c-1.41,5-3,15.38,2.85,18.41,1.34.7,3.34.51,5.36-.39,4.38-2,7.11-5.55,7.79-8.69C187.3,154.24,176.56,140.22,170.45,148.85Z"/><path class="cls-45" d="M191.36,147.26a5.54,5.54,0,0,1,.67,3.49c-.18,1.15-.75,2.19-1,3.31a3.23,3.23,0,0,0,.62,3.24,5.71,5.71,0,0,0,1.75.86c3.38,1.34,6.17,4.92,7.58,8.51,1.33,3.39,1.21,7.71.54,11.28a94,94,0,0,0-12.69-3.78,6.83,6.83,0,0,1-1.71-2.27l-2.16-10.23s-2.67-7.43-3-7.54c-3.84-1.24-6.15-4-6.57-5.26-1.77,1-5,2.79-6.3,4.38a5.94,5.94,0,0,1,4.53-9c2.43-.23,4.63-2.07,7.48-2a14.13,14.13,0,0,1,7.59,2.11A8,8,0,0,1,191.36,147.26Z"/><path class="cls-43" d="M173.85,156.63s-2,3.29-1.53,4,2.13.35,2.13.35"/><path class="cls-52" d="M178.29,156.65l.09.14a2.38,2.38,0,0,1,.15,1.06c0,.6-1,.55-.95-.07a3.67,3.67,0,0,1,.23-1.13C178,156.3,178.15,156.44,178.29,156.65Z"/><path class="cls-52" d="M171.42,155.85l.06.16a2.43,2.43,0,0,1-.06,1.07c-.1.59-1.08.34-.91-.25a3.59,3.59,0,0,1,.43-1.07C171.15,155.44,171.32,155.62,171.42,155.85Z"/><path class="cls-52" d="M181.36,156.21a1.87,1.87,0,0,0-.14-.71,2.72,2.72,0,0,0-1-1.21,2.29,2.29,0,0,0-1.58-.33,1.38,1.38,0,0,0-.5.22.84.84,0,0,0-.15.13l.19,0a1.86,1.86,0,0,1,.45.1,5.36,5.36,0,0,1,1.17.56,8,8,0,0,1,1.07.78,4.77,4.77,0,0,1,.37.32A1.07,1.07,0,0,0,181.36,156.21Z"/><path class="cls-52" d="M172.87,154.17a.43.43,0,0,0-.06-.14,1,1,0,0,0-.28-.31,1.51,1.51,0,0,0-1.22-.18,1.66,1.66,0,0,0-1,.7,1.19,1.19,0,0,0-.17.53.55.55,0,0,0,.14-.05c.08,0,.21-.07.34-.12a8.93,8.93,0,0,1,.87-.27,4.15,4.15,0,0,1,.86-.16A2.25,2.25,0,0,1,172.87,154.17Z"/><path class="cls-43" d="M182.7,164.37s-1.34,2.23-5.36,3.31"/><path class="cls-36" d="M182.81,159a1.92,1.92,0,0,1,2.93-1.25,1.77,1.77,0,0,1,.61,1.26,4.21,4.21,0,0,1-1.07,3.33,2.54,2.54,0,0,1-1.05.72,1.5,1.5,0,0,1-2-1.53"/><path class="cls-45" d="M186.39,144c-1.23-.17-1.83-1.66-1.76-2.9.19-3.81,3.89-5.49,6.89-3.07a5.24,5.24,0,0,1,1.81,5.06,3.47,3.47,0,0,1-.79,1.66c-1.3,1.41-3.66,1-5.28,0"/><path class="cls-15" d="M172.19,162.44h5.62s-.45,2.95-3.16,2.95C172.23,165.39,172.19,162.44,172.19,162.44Z"/><polygon class="cls-15" points="187.08 171.9 179.77 177.13 182.69 182.17 188.88 174.29 187.08 171.9"/><polygon class="cls-15" points="177 172.12 179.77 177.13 177.58 181.67 175 173.76 177 172.12"/><path class="cls-36" d="M114,198l8,20.14L141.17,249l-7.66,7.32s-25.13-22.64-28.45-28.6C100.55,219.57,93.13,198,93.13,198"/><polyline class="cls-43" points="128.15 228.01 121.99 218.09 120.7 215.67"/><path class="cls-36" d="M139.77,247.77c1.73,1.56,5.09,4.21,6.82,5.76,1,.92,2.89,2.79,2.41,3.29-.95,1-3.1-1.87-3.5-1-.24.49,2,2.39,3.18,3.36s2.31,2.22,1.93,3.12c-.49,1.15-6.25-3.8-6.25-3.8s5.83,5.5,5.38,6.45c-.66,1.36-6.54-4.15-6.54-4.15s4.89,4.79,4.4,5.8-3.89-2.94-5.56-4.12c1,1.17,3.77,4.67,3.12,5.11s-2.78-1.61-3.3-2.1A125.65,125.65,0,0,1,131.66,254"/><path class="cls-43" d="M143.81,255.55a9.62,9.62,0,0,1-5.32-2.57"/><path class="cls-41" d="M90,164.87s14.34,1.65,20.42,14.09a131.41,131.41,0,0,1,8.94,24.91l-27.9,9.79"/><path class="cls-38" d="M86.32,399v-1.61H109a2.9,2.9,0,0,0,2.48-1.41l.18,0v2.59a.42.42,0,0,1-.1.26l-.07.06a2.21,2.21,0,0,1-1.62.71h-23A.57.57,0,0,1,86.32,399Z"/><path class="cls-36" d="M86.47,367.81l.61,20.65.69,8.38h21.92a1.21,1.21,0,0,0,1.21-1.21h0a1.21,1.21,0,0,0-.78-1.13L98.7,387.61,100,367.38"/><path class="cls-41" d="M98.7,387.61l12.14,6.85a1.53,1.53,0,0,1,.86,1.42h0a1.67,1.67,0,0,1-1.61,1.53H86.32l.74-9.23S93.05,390.79,98.7,387.61Z"/><path class="cls-56" d="M101,388.16a14.89,14.89,0,0,0-1.78,3"/><path class="cls-56" d="M102.55,389.12a12.89,12.89,0,0,0-1.47,2.52"/><path class="cls-56" d="M103.88,389.81a20.47,20.47,0,0,0-1.33,2.32"/><path class="cls-38" d="M17.68,385.51l.9-1.33,18.81,12.73a2.88,2.88,0,0,0,2.85.22l.17.08L39,399.35a.35.35,0,0,1-.23.16l-.08,0a2.19,2.19,0,0,1-1.74-.33L17.83,386.3A.56.56,0,0,1,17.68,385.51Z"/><path class="cls-36" d="M33,357.42l-8.73,19.77-4.13,7.34,18.15,12.28a1.22,1.22,0,0,0,1.69-.33h0a1.22,1.22,0,0,0,0-1.37L34.33,383l10.11-18.33"/><path class="cls-41" d="M34.33,383l6.21,12.48a1.52,1.52,0,0,1-.09,1.66h0a1.65,1.65,0,0,1-2.18.36L18.58,384.18,24.36,377S27.86,382.47,34.33,383Z"/><path class="cls-56" d="M35.9,384.73a14.47,14.47,0,0,0-3.14,1.46"/><path class="cls-56" d="M36.67,386.41A13.43,13.43,0,0,0,34,387.67"/><path class="cls-56" d="M37.38,387.73A18.34,18.34,0,0,0,35,388.9"/><path class="cls-57" d="M110.24,241s2.67,65.78,2.33,75.29c-1.22,33.23-5.38,64.79-5.38,64.79H79.8l.89-61.86-4.43-44.47s-5.74-25.06-.18-36.57"/><line class="cls-58" x1="79.57" y1="374.32" x2="107.44" y2="374.32"/><path class="cls-58" d="M83.82,381.09S85.74,344,85.22,316c-.26-13.9-2.69-19.43-2.69-23.18"/><path class="cls-57" d="M87.37,237.23s2.18,16.69,0,31.93c-1,7-5.38,31.1-11.85,55.17-7.64,28.41-26.11,56.76-26.11,56.76L25.75,367.86,43,319.22l5.09-47.48S45.91,255.13,55.74,241"/><line class="cls-58" x1="52.78" y1="375.61" x2="28.1" y2="361.25"/><path class="cls-58" d="M29.91,370.19S46.44,325,48.68,317.74C49.27,315.83,53,286,54.52,274a31.89,31.89,0,0,0,.07-7.81,29.51,29.51,0,0,1,4.5-18.91"/><path class="cls-58" d="M69.16,253.87s-4.42,4.69-5.65,5c-3.11.73-8.75,0-8.75,0"/><path class="cls-58" d="M86.75,268.26S90,267,90.84,264.59c1.74-4.84,1.74-15.54,1.74-15.54"/><path class="cls-58" d="M79.59,308.14s9.29-46.31,9.29-59.09"/><path class="cls-58" d="M110.45,258.85s-6.44-1.89-8.26-2.74c-2.31-1.08-2.51-7.06-2.51-7.06"/><path class="cls-41" d="M90.82,165.46a47.71,47.71,0,0,1,19.63,35.17c1.65,22.92,2.11,50.12,2.11,50.12-27,8.67-63.24-.3-63.24-.3s3.21-60.44,14.2-78.29L83.13,163Z"/><path class="cls-36" d="M45.93,186.14S34.77,210,35.15,218.65C35.72,231.92,50,262.93,50,262.93s10-2.25,9.92-3.66-6-39.7-6-39.7l13.57-29.83"/><path class="cls-36" d="M59.38,258c.84,2.17,2.63,6.05,3.47,8.22.5,1.28,1.32,3.79.67,4-1.29.45-1.92-3.07-2.65-2.52-.43.33.73,3.05,1.32,4.44s1.05,3,.31,3.65c-1,.8-3.86-6.21-3.86-6.21s2.72,7.54,1.88,8.18c-1.2.92-4-6.66-4-6.66s2.19,6.49,1.3,7.17-2.14-4.39-3.1-6.2c.34,1.49,1.25,5.87.47,6s-1.74-2.68-2-3.36a125.42,125.42,0,0,1-3.93-14.8"/><path class="cls-41" d="M80,163.5s-17.61.42-25.92,8C43.51,181.14,38,199.57,38,199.57l21.87,9.21,12.5-21.67"/><line class="cls-59" x1="59.83" y1="208.78" x2="70.29" y2="190.65"/><path class="cls-59" d="M92.58,165.38s0,4.83-7.36,4.83c-8.59,0-10.82-5.85-10.82-5.85"/><path class="cls-36" d="M90.2,154.68l-9.32-11-3.74,10.8-.25,2.37.34,8.34s7.49,5.36,13.15,1a1.27,1.27,0,0,0,.46-1.06l-.64-10.46"/><path class="cls-36" d="M88.09,136c3.07,3.41,8.82,15.38,6.25,20.11-2.33,4.28-7.18,4.15-10.27,2.71-2.69-1.25-9.93-11.61-8.41-15.83S83.79,131.21,88.09,136Z"/><path class="cls-38" d="M73.38,134.81c.28-.76.52-1.53.82-2.27a5.36,5.36,0,0,1,2.72-3.15c1.33-.53,3.15.13,3.41,1.53a8.87,8.87,0,0,1,10.08-3.78c3.48,1.13,3.86,5.29,2.45,8.33-1.28,2.76-4.48,3.94-6.92,5.75-4.07,3-3.48,6.24-5.39,10.38-.15.31-3.17,6.37-3.53,6.06-4.19-3.67-12-10.43-7.76-17.07.95-1.49,2.42-2.59,3.33-4.1A10.3,10.3,0,0,0,73.38,134.81Z"/><path class="cls-43" d="M90,159.58s-4.46.52-7-1.77"/><path class="cls-36" d="M91.49,144.57s5.28,2.8,5.14,4.1-2.15,1.6-2.15,1.6"/><path class="cls-38" d="M89.78,144.63a3.6,3.6,0,0,1,.48.75.56.56,0,0,1-.46.81c-.72.12-1.35-1.39-.54-1.69A.46.46,0,0,1,89.78,144.63Z"/><path class="cls-15" d="M93,152.09l-5.18,1s1.58,3.54,4.58,2.65C94.21,155.22,93,152.09,93,152.09Z"/><path class="cls-38" d="M90,143a9.06,9.06,0,0,0-2.66,2.16c-.13,0-.64-.35-.63-.71a6.5,6.5,0,0,1,2.75-2.35S90.15,142.75,90,143Z"/><path class="cls-36" d="M81.57,149.91c-.74-.51-1.65-1-2.42-.73a1.5,1.5,0,0,0-.81.93A4.25,4.25,0,0,0,81,155.45c.91.25,1.91.06,2.08-1l-1.16-4.09C81.91,150.16,81.73,150,81.57,149.91Z"/><path class="cls-43" d="M80,155s1.84,1,3-.12"/><path class="cls-59" d="M110.45,207s-.53-17.24-3.68-24"/><polyline class="cls-36" points="314.3 368.59 312.43 387.98 311.8 396.76 301.07 387.18 301.03 366.36"/><path class="cls-32" d="M301.07,387.18s-14,5.57-14.9,7.12a4.91,4.91,0,0,0-.69,3h27.21c1-2.32-.26-10.16-.26-10.16S305.44,388,301.07,387.18Z"/><rect class="cls-57" x="285.48" y="396.37" width="27.4" height="3.22"/><path class="cls-53" d="M294.1,390.44a8.35,8.35,0,0,1,2.66,3.16"/><path class="cls-53" d="M295.82,389.6a8.44,8.44,0,0,1,2.65,3.17"/><path class="cls-53" d="M297.53,388.85a8.34,8.34,0,0,1,2.65,3.17"/><polyline class="cls-36" points="363.88 368.59 364.11 387.98 363.47 396.76 353.75 387.18 350.61 366.36"/><path class="cls-32" d="M353.75,387.18s-2.81,5.57-3.74,7.12a4.91,4.91,0,0,0-.69,3h17.05c1-2.32-2.26-10.16-2.26-10.16A39.47,39.47,0,0,1,353.75,387.18Z"/><rect class="cls-57" x="349.32" y="396.37" width="17.24" height="3.22"/><path class="cls-53" d="M356.31,391.16a6.69,6.69,0,0,1,4.94,0"/><path class="cls-53" d="M356.31,392.8a6.69,6.69,0,0,1,4.94,0"/><path class="cls-53" d="M356.48,389.68c1.21-.43,3.25-.77,4.6,0"/><path class="cls-57" d="M305.88,234.89c-1,1.39-7.94,51.53-9,77.64-1.31,31.52-2.47,69.8-2.47,69.8h25.38l7.82-68.47,8.93-41.5s2.67-24.31-3.86-45.52"/><path class="cls-57" d="M361.72,234.89c2.19,3,9.5,147.44,9.5,147.44H345.83l-14.75-110s-2.67-24.31,3.86-45.52"/><path class="cls-58" d="M333.13,288.12s-2.6-28.66-2.6-40.86"/><path class="cls-58" d="M325.59,247.77s.67,12.61,1.55,16.59c.38,1.75,4.23,1.39,4.23,1.39"/><path class="cls-58" d="M368.5,382.33S361,255.1,356.86,242.39"/><path class="cls-58" d="M346.23,246s2.43,6.45,4.3,8.31,8.1,1.29,8.1,1.29"/><path class="cls-58" d="M316.93,382.33s5.86-63.74,6.62-68.34c.49-3,9.05-32,9.05-32"/><path class="cls-58" d="M302.75,254s4.85,1.39,6.23.23c1.89-1.57,5.24-7,5.24-7"/><path class="cls-36" d="M294.6,181.88l-7.31,9-16.65-17.7s-6.9,2.19-7.13,5.35c7.19,11.61,16.64,32.7,26.51,31.46,8.44-1.05,23.12-21.92,23.12-21.92"/><path class="cls-43" d="M287.29,190.88a40.55,40.55,0,0,1,6.1,8.07"/><path class="cls-32" d="M327.14,160.42a24.8,24.8,0,0,0-20.09,2c-6.27,3.73-11.33,13.49-17.3,23.86,2.42,4.07,15.81,13.2,19.66,13.37,4.56-5.82,9.48-21.15,9.48-21.15"/><path class="cls-36" d="M264.69,179.41a12.12,12.12,0,0,1-5.58-6.95,5.63,5.63,0,0,1-.37-1.72,3.64,3.64,0,0,1,4.34-3.64,6.43,6.43,0,0,1,3.43,2.47c.84,1,1.64,2.32,1.34,3.61"/><path class="cls-32" d="M267.27,159.53a55.67,55.67,0,0,1-6.94,6.79c-1.27,1-3,1.74-4.11,2.92-.89.93-.57,1.19.37,1.92a17.44,17.44,0,0,0,4.17,2.34,1.26,1.26,0,0,0,1.53-.17,15.82,15.82,0,0,0,2.65-2.65c2-2.43,6-6.77,7.68-9.46"/><path class="cls-39" d="M276.67,163.82a4,4,0,1,1-.37-5.79A4.11,4.11,0,0,1,276.67,163.82Z"/><path class="cls-60" d="M269.33,165l-4.59-3.55,7.3-9.29,4.82,4.21A1.25,1.25,0,0,1,277,158c-1.63,2.92-3.42,5.34-6,6.88C270.42,165.19,269.81,165.39,269.33,165Z"/><path class="cls-32" d="M270.15,158.23c-2.07,2.54-4.53,4-5.5,3.15s-.1-3.49,2-6,4.53-4,5.5-3.16S272.22,155.7,270.15,158.23Z"/><path class="cls-39" d="M249.78,156.59s10,2,14.92,4c1.8.41,3.81-1.73,4.82-3,2.63-3.29,2.28-4.69,2.28-4.69-4-4.72-7.15-14.45-7.15-14.45"/><path class="cls-60" d="M260.68,150.33c-4.82,5.9-11.32,8.55-14.52,5.93s-1.9-9.52,2.92-15.41,11.32-8.55,14.52-5.93S265.5,144.44,260.68,150.33Z"/><path class="cls-32" d="M259.27,149.21c-4.08,5-9.44,7.34-12,5.27s-1.3-7.8,2.78-12.79,9.44-7.34,12-5.27S263.34,144.22,259.27,149.21Z"/><path class="cls-61" d="M252,146.83a29.71,29.71,0,0,1,4.81,5,23.5,23.5,0,0,0,2.48-2.58,22.44,22.44,0,0,0,2-2.94,28.92,28.92,0,0,1-5.81-3.73Z"/><path class="cls-15" d="M254.9,145.64c-1,1.2-2.29,1.74-2.94,1.21s-.38-1.92.6-3.12,2.3-1.74,2.95-1.21S255.88,144.45,254.9,145.64Z"/><path class="cls-36" d="M271,174.73a14,14,0,0,0-3.1-7.69c-1.59-1.86-3.17-3.48-5.59-3.24-.34,0-.75.19-.73.52s.18.36.34.48a6.42,6.42,0,0,1,2.6,3.44,14.28,14.28,0,0,1,.18,2.27,7.25,7.25,0,0,0,2.71,5.05"/><path class="cls-36" d="M257.66,168a3.5,3.5,0,0,1,0-1.33,1.68,1.68,0,0,1,.47-.56.81.81,0,0,1,.63-.13,2,2,0,0,1,.6.26,3.34,3.34,0,0,1,1.68,2.23.37.37,0,0,1,0,.18.29.29,0,0,1-.1.12,1.53,1.53,0,0,1-.86.26c-.69,0-1.86-1.16-1.94-1.34"/><path class="cls-36" d="M258.73,166.88a3.9,3.9,0,0,1,.2-1.44,1,1,0,0,1,.3-.5.78.78,0,0,1,.63-.13,1.69,1.69,0,0,1,.6.26,3.36,3.36,0,0,1,1.69,2.23.28.28,0,0,1,0,.18.35.35,0,0,1-.1.11,1,1,0,0,1-.85.11,3,3,0,0,1-.79-.42l-.81-.54a1.13,1.13,0,0,1-.43-.41"/><path class="cls-36" d="M259.85,165.7a3.75,3.75,0,0,1,.2-1.44,1,1,0,0,1,.3-.5.77.77,0,0,1,.63-.13,1.77,1.77,0,0,1,.6.26,3.39,3.39,0,0,1,1.69,2.23.55.55,0,0,1,0,.18.27.27,0,0,1-.1.11,1,1,0,0,1-.86.11,3.07,3.07,0,0,1-.78-.41l-.82-.54a1.1,1.1,0,0,1-.42-.41"/><path class="cls-36" d="M261,164.53a3.9,3.9,0,0,1,.2-1.44,1,1,0,0,1,.31-.51.79.79,0,0,1,.62-.13,1.79,1.79,0,0,1,.6.26,3.36,3.36,0,0,1,1.69,2.23.27.27,0,0,1,0,.18.38.38,0,0,1-.1.12,1,1,0,0,1-.85.1,3,3,0,0,1-.79-.41l-.81-.54a1.13,1.13,0,0,1-.43-.41"/><path class="cls-43" d="M264.82,169.29s0,4.8,1.48,6.27"/><path class="cls-32" d="M303.66,175.63l-3.08,71.63s37.1,9.72,65.75-1.31c-.55-15.73-3.08-58.45-14.75-73.21-12.66-16-23-15.36-23-15.36l-12.13,7.48Z"/><path class="cls-62" d="M302.84,194.91s.82-11.42.82-19.28"/><path class="cls-36" d="M399.58,184.64,396,176.93s10-11.27,10.55-10.93c1.11.7-3.09,5.51-3.09,5.51s5.24-4.88,5.53-4.33c.52,1-3.91,6.31-3.91,6.31s4.82-5,5.12-4.14-5.87,8.58-5.87,8.58Z"/><path class="cls-36" d="M394.74,177.15l1.78-1.65A31.51,31.51,0,0,1,399.9,170c1.8-2.2,2.46-2.85,2.93-2.68s-1,3.59-1,3.59-.42,3.67-2.38,5.45"/><path class="cls-36" d="M369.63,181.88l7.31,9L396,176s5.76,4.37,6,7.53c-7.19,11.61-17.94,27.75-27.81,26.51-8.44-1.05-23.12-21.92-23.12-21.92"/><path class="cls-43" d="M376.94,190.88a40.55,40.55,0,0,0-6.1,8.07"/><path class="cls-36" d="M400.41,185.27s6.46-7.12,7.46-8.56,3.73-4.89,3-5.15-3.72,2.73-4.37,3.45c-1.68.24-5.08,2-5.93,4.46"/><path class="cls-32" d="M332.93,158.93s14.3-2.41,24.25,3.5c6.27,3.73,11.33,13.49,17.3,23.86-2.42,4.07-15.81,13.2-19.66,13.37-4.56-5.82-9.48-21.15-9.48-21.15"/><line class="cls-62" x1="354.82" y1="199.66" x2="346.23" y2="181.14"/><path class="cls-43" d="M401.62,172.07a5.92,5.92,0,0,1-.3,5"/><path class="cls-45" d="M326.16,127.11c-7.78.51-9.48,9.1-8.88,15.7.38,4.11,2.46,8.22,5.7,9.63a18.94,18.94,0,0,0,9,1c1-.08,2.09-1.37,3-1.76,3.59-1.54,6.06-6.26,6.49-9.25.49-3.41.62-8-1.15-11.06-1.43-2.47-6.34-1.79-9-2.75"/><path class="cls-63" d="M319.66,141.43a1.64,1.64,0,0,0-2.19,0,3,3,0,0,0-.63,2.66c.27,1.35,1.5,2.81,3,2.36a1.89,1.89,0,0,0,1.22-1.18"/><path class="cls-63" d="M336.75,141.85l.17-.18a1.39,1.39,0,0,1,1.84.28,2.57,2.57,0,0,1,.45,2,3.36,3.36,0,0,1-.95,2,2.24,2.24,0,0,1-2.09.56,1.89,1.89,0,0,1-1.22-1.18"/><path class="cls-36" d="M322.12,150.46l7.76-10.55,4.09,9.58.69,10c-2.68,5.74-11.07,4.44-12.44,1.07l-.1-10.13"/><path class="cls-36" d="M319.78,134.7c-1.51,3.89-.95,17.77,2.11,19.57s9.78,1.36,11.95-.86c1.89-1.93,4.85-13.59,2.2-16.68S321.9,129.24,319.78,134.7Z"/><path class="cls-45" d="M339.78,129.55c-1.48-2.06-3.46-3.47-6.14-3-1.64-1.64-2.32-2-4.84-2.43a12.82,12.82,0,0,0-8.87,1.43c-3.9,2.32-4.78,6.33-5,10.57a24.74,24.74,0,0,0,15.66-2c.11,1.7,6.89,8,8.67,9.9C343,139.64,342.13,132.82,339.78,129.55Z"/><path class="cls-43" d="M323.85,155.25s6.24.9,9.08-1.29"/><path class="cls-43" d="M326.74,142.33s-1.68,4.06-1,5.06,2.4.4,2.4.4"/><path class="cls-64" d="M330.41,142.29a3.1,3.1,0,0,0-.15.8.51.51,0,0,0,.67.52c.64-.15.66-1.64-.13-1.61A.41.41,0,0,0,330.41,142.29Z"/><path class="cls-64" d="M321.61,141.92a3.1,3.1,0,0,0-.15.8.51.51,0,0,0,.67.52c.64-.14.66-1.64-.12-1.61A.42.42,0,0,0,321.61,141.92Z"/><path class="cls-15" d="M324.05,149.59l5.52-.14s.53,3.23-2.78,3.15A2.69,2.69,0,0,1,324.05,149.59Z"/><path class="cls-64" d="M329.72,140.29a8.25,8.25,0,0,1,3,.9.86.86,0,0,0,.28-.81,6,6,0,0,0-3.12-1S329.53,140.14,329.72,140.29Z"/><path class="cls-64" d="M323.09,140.07a4,4,0,0,0-2.13.42,1,1,0,0,1-.15-.75,3,3,0,0,1,2.23-.53S323.22,140,323.09,140.07Z"/></g></g></g></svg>