<svg id="Layer_1" data-name="Layer 1" xmlns="http://www.w3.org/2000/svg" viewBox="0 0 2002.12 1490.47"><defs><style>.cls-1{fill:#bbdefb;}.cls-2{fill:#64b5f6;}.cls-3{fill:#ff5252;}.cls-4{fill:#283593;}.cls-5{fill:#9cb5bf;}.cls-6{fill:#fff59d;}.cls-7{fill:#c6d5db;}.cls-8{fill:#40c4ff;}.cls-9{fill:#f0f4f7;}.cls-10{fill:#fff;}.cls-11{fill:#32a4ea;}.cls-12{fill:#2385d5;}</style></defs><title>vector-2</title><path class="cls-1" d="M2029.54,1125.32l-18.21-14.08q-9.84-7.93-20-15.41c-1.63-1-3.26-1.94-5-2.82-15.52-8-34-16.42-51.8-21.34a214.07,214.07,0,0,0-27.1-5.41c1.87-1.81,3.72-3.63,5.53-5.5,15.15-15.6,28.33-34.07,40.76-51.44,13-18.11,21.23-42.29,28.86-61.71a93.84,93.84,0,0,0,5.51-18.87c3.07-18.23,6.13-37.44,7.39-55.9a76.11,76.11,0,0,0,0-11.5,524.58,524.58,0,0,0-7.3-54.63,70.13,70.13,0,0,0-2.53-9.8,425.66,425.66,0,0,0-21.15-50.21,67,67,0,0,0-6-9.43c-10.09-13.87-20.33-29.42-32.7-41.47-12.92-12.58-28.57-23.77-42.91-33.53-18.31-12.46-40-20.34-61-26.94-20.41-6.42-44.39-7.76-64.43-9.87-1.31-.14-2.62-.25-3.93-.36,7.1-4.54,14.12-9.22,21-14.12,27.15-19.36,55.48-39.82,78.82-64.08,16.16-16.79,30.75-35.92,44-54.91,13.48-19.35,23.24-42.76,29.17-65.16,9.8-37,11-79.09-.43-115.93q-4.55-10.74-9.08-21.5-4.68-11.91-10-23.55c-8.08-13.92-25.36-34.5-30.65-40.36-12.73-14.12-28.62-25.58-45-35.27-11.4-6.77-32.54-14.31-45-19.14a66.27,66.27,0,0,0-6.42-2.3c-17.08-4.73-48.21-7.29-57.07-8.18-10.15-1-20.36-1.17-30.55-1.43q-34.46-.87-68.93-.3c-103.88,1.68-207.16,13.53-309.77,29.3-178.46,27.43-352.79,76.7-523.26,135.5S452.78,450.81,285.09,517.13q-30.9,12.23-61.84,24.33A135.61,135.61,0,0,0,162,573.68a136.09,136.09,0,0,0-46.36,50.5,134.07,134.07,0,0,0-21.36,66.93,136.26,136.26,0,0,0,3.22,71.78q9.06,21.5,18.14,43a180.85,180.85,0,0,0,64.58,64.58l43,18.14a181.16,181.16,0,0,0,95.71,0C463.36,832.12,606.82,773.19,752.12,719Q811.81,696.72,872,675.69c-31.72,18.31-62.84,37.6-92.65,58.56-26.86,18.89-53.2,38.84-77.94,60.44a322.78,322.78,0,0,0-37.81,38.59c-19.82,24.23-41.43,49.81-55.45,78.38-14.18,28.89-28.81,60.56-34,92.94A180.19,180.19,0,0,0,699.86,1226a185.59,185.59,0,0,0,40.48,6.26c-1.92,4.71-3.49,8.82-4.32,11.46-.32,1-.68,2-1,3.07s-.44,2.09-.67,3.13c-1.9,8.79-6,40.17-6.55,48.92-1.21,20.3,2.4,41,7.39,60.69,2.3,9.06,7.65,19.36,10.77,26.75s7,18.34,11.48,26.55a64,64,0,0,0,4.34,6.59c7.4,10.31,20.61,27.78,28.86,37.3,1,1.13,2,2.26,3,3.33,6.58,6.56,15.92,12.78,22.4,17.78,7.16,5.53,15.82,13.26,24.41,18.18,2.26,1.29,4.61,2.34,7,3.42,15.91,7.25,32.36,15,49.08,20.37a109.75,109.75,0,0,0,16.62,3.65c20.58,3.18,41.48,6.67,62.36,7.73,13.61.7,27.29.52,40.89-.11,41.93-2,83.9-8.12,125.18-15.35,26.76-4.68,53.26-10.74,79.6-17.33,53.42-13.37,106.41-28.35,160-41q33.32-7.85,66.83-14.83c0,.87-.12,1.74-.16,2.61a136.26,136.26,0,0,0,3.22,71.78q9.06,21.49,18.14,43a180.9,180.9,0,0,0,64.58,64.57l43,18.15a181.36,181.36,0,0,0,95.71,0c89.58-35.71,175.76-76.83,255.2-131.82,27.66-19.16,55.16-39.53,81.08-60.84a130.88,130.88,0,0,0,17.82-17.72c29.08-35.23,42.87-54.47,57.27-98.16C2107.33,1263.18,2084.75,1175.66,2029.54,1125.32Z" transform="translate(-90.97 -158.65)"/><path class="cls-2" d="M1903.5,568a66.5,66.5,0,1,1,66.5-66.5A66.57,66.57,0,0,1,1903.5,568Zm0-103a36.5,36.5,0,1,0,36.5,36.5A36.54,36.54,0,0,0,1903.5,465Z" transform="translate(-90.97 -158.65)"/><polygon class="cls-2" points="1201.03 1407.85 1148.78 1407.85 1148.78 1355.6 1118.78 1355.6 1118.78 1407.85 1066.53 1407.85 1066.53 1437.85 1118.78 1437.85 1118.78 1490.1 1148.78 1490.1 1148.78 1437.85 1201.03 1437.85 1201.03 1407.85"/><polygon class="cls-2" points="666.03 192.85 613.78 192.85 613.78 140.6 583.78 140.6 583.78 192.85 531.53 192.85 531.53 222.85 583.78 222.85 583.78 275.1 613.78 275.1 613.78 222.85 666.03 222.85 666.03 192.85"/><path class="cls-2" d="M2025,1514H1914V1403h111Zm-81-30h51v-51h-51Z" transform="translate(-90.97 -158.65)"/><polygon class="cls-2" points="218.2 1120.45 171.53 1073.79 124.86 1120.45 103.65 1099.24 171.53 1031.36 239.41 1099.24 218.2 1120.45"/><path class="cls-3" d="M1880.58,1177H1483.16a82.44,82.44,0,0,1-82.34-82.34V697.19a82.43,82.43,0,0,1,82.34-82.33h397.42a82.43,82.43,0,0,1,82.34,82.33v397.42A82.44,82.44,0,0,1,1880.58,1177Z" transform="translate(-90.97 -158.65)"/><path class="cls-4" d="M1860.58,1155.48H1463.16a81,81,0,0,1-80.87-80.87V677.19a81,81,0,0,1,80.87-80.87h397.42a81,81,0,0,1,80.87,80.87v397.42A81,81,0,0,1,1860.58,1155.48ZM1463.16,626.32a50.93,50.93,0,0,0-50.87,50.87v397.42a50.93,50.93,0,0,0,50.87,50.87h397.42a50.93,50.93,0,0,0,50.87-50.87V677.19a50.93,50.93,0,0,0-50.87-50.87Z" transform="translate(-90.97 -158.65)"/><path class="cls-4" d="M1808.61,1040.58h-30V843a116.74,116.74,0,0,0-233.48,0v197.61h-30V843c0-80.91,65.82-146.74,146.74-146.74S1808.61,762.06,1808.61,843Z" transform="translate(-90.97 -158.65)"/><path class="cls-4" d="M1753.72,985.69h-30V843a61.85,61.85,0,0,0-123.7,0V985.69h-30V843a91.85,91.85,0,0,1,183.7,0Z" transform="translate(-90.97 -158.65)"/><path class="cls-4" d="M1654.91,930.8h-30V843a37,37,0,1,1,73.91,0v65.87h-30V843a7,7,0,1,0-13.91,0Z" transform="translate(-90.97 -158.65)"/><rect class="cls-4" x="1577.85" y="807.27" width="30" height="19.76"/><path class="cls-5" d="M789.32,1458H471A32.94,32.94,0,0,1,438,1425.06V928.84A32.94,32.94,0,0,1,471,895.9H789.32a32.94,32.94,0,0,1,32.94,32.94v496.22A32.94,32.94,0,0,1,789.32,1458Z" transform="translate(-90.97 -158.65)"/><rect class="cls-6" x="363.51" y="853.62" width="351.31" height="329.35"/><path class="cls-4" d="M769.32,1436.53H451a31.5,31.5,0,0,1-31.47-31.47V908.84A31.5,31.5,0,0,1,451,877.37H769.32a31.51,31.51,0,0,1,31.47,31.47v496.22A31.5,31.5,0,0,1,769.32,1436.53ZM451,907.37a1.47,1.47,0,0,0-1.47,1.47v496.22a1.47,1.47,0,0,0,1.47,1.47H769.32a1.47,1.47,0,0,0,1.47-1.47V908.84a1.47,1.47,0,0,0-1.47-1.47Z" transform="translate(-90.97 -158.65)"/><path class="cls-4" d="M800.79,1336.63H419.48V977.28H800.79Zm-351.31-30H770.79V1007.28H449.48Z" transform="translate(-90.97 -158.65)"/><rect class="cls-4" x="475.25" y="769.22" width="87.83" height="30"/><circle class="cls-4" cx="610.13" cy="1372.13" r="16.47" transform="translate(-882.51 674.66) rotate(-45)"/><path class="cls-7" d="M1171.5,1449.9H958.26a16,16,0,0,1-15.2-21l35.54-108.75a16,16,0,0,1,15.2-11H1136a16,16,0,0,1,15.2,11l35.54,108.75a16,16,0,0,1-15.2,21Z" transform="translate(-90.97 -158.65)"/><path class="cls-8" d="M1321.84,1252.65H807.92c-8.83,0-16-6.16-16-15V952a48,48,0,0,1,48-48h449.94a48,48,0,0,1,48,48v285.68C1337.83,1246.49,1330.67,1252.65,1321.84,1252.65Z" transform="translate(-90.97 -158.65)"/><path class="cls-9" d="M1289.85,1341.15H839.91a48,48,0,0,1-48-48v-71.5h545.9v71.5A48,48,0,0,1,1289.85,1341.15Z" transform="translate(-90.97 -158.65)"/><path class="cls-4" d="M1276.52,1324.55H813.23a48,48,0,0,1-47.93-47.93V925.31a48,48,0,0,1,47.93-47.94h463.29a48,48,0,0,1,47.94,47.94v351.31A48,48,0,0,1,1276.52,1324.55ZM813.23,907.37a18,18,0,0,0-17.93,17.94v351.31a18,18,0,0,0,17.93,17.93h463.29a18,18,0,0,0,17.94-17.93V925.31a18,18,0,0,0-17.94-17.94Z" transform="translate(-90.97 -158.65)"/><path class="cls-4" d="M1175.35,1436.53H914.41l46.4-142H1129Zm-219.57-30H1134l-26.79-82H982.57Z" transform="translate(-90.97 -158.65)"/><rect class="cls-4" x="778.25" y="1247.88" width="351.31" height="30"/><rect class="cls-4" x="689.33" y="1044.78" width="529.16" height="30"/><circle class="cls-4" cx="1044.88" cy="1264.54" r="16.47" transform="translate(-516.87 1832.28) rotate(-76.72)"/><rect class="cls-4" x="793.79" y="600.35" width="320.24" height="456"/><circle class="cls-10" cx="519.16" cy="935.72" r="27.45"/><path class="cls-8" d="M790.42,1023.25H469.85A120.77,120.77,0,0,1,405.1,800.53c0-.78,0-1.56,0-2.33a120.84,120.84,0,0,1,149-117.44,172.69,172.69,0,0,1,127.65-56c95.65,0,173.46,77.81,173.46,173.46,0,.77,0,1.55,0,2.34a120.77,120.77,0,0,1-64.75,222.71Z" transform="translate(-90.97 -158.65)"/><path class="cls-4" d="M770.42,1001.79H449.85a119.31,119.31,0,0,1-63.27-220.46c0-1.05,0-2.09,0-3.13a119.38,119.38,0,0,1,148-115.81A171.24,171.24,0,0,1,661.73,606.2c94.84,0,172,77.16,172,172,0,1,0,2.09,0,3.14a119.31,119.31,0,0,1-63.27,220.45ZM505.84,688.9a89.4,89.4,0,0,0-89.3,89.3,91.39,91.39,0,0,0,.55,9.87l1.12,10.25L409,803a89.31,89.31,0,0,0,40.81,168.75H770.42a89.31,89.31,0,0,0,41-168.65l-8.79-4.55.72-9.87c.26-3.52.39-7.07.39-10.52,0-78.3-63.69-142-142-142A141.52,141.52,0,0,0,551.3,688.94l-6.59,8.16-9.93-3.4A88.91,88.91,0,0,0,505.84,688.9Z" transform="translate(-90.97 -158.65)"/><path class="cls-4" d="M778.83,778.2h-30a87.19,87.19,0,0,0-87.1-87.1v-30A117.23,117.23,0,0,1,778.83,778.2Z" transform="translate(-90.97 -158.65)"/><path class="cls-4" d="M610.13,1136.82a42.45,42.45,0,1,1,42.45-42.44A42.49,42.49,0,0,1,610.13,1136.82Zm0-54.89a12.45,12.45,0,1,0,12.45,12.45A12.46,12.46,0,0,0,610.13,1081.93Z" transform="translate(-90.97 -158.65)"/><rect class="cls-4" x="504.16" y="828.13" width="30" height="80.14"/><rect class="cls-4" x="546.61" y="920.72" width="237.13" height="30"/><rect class="cls-4" x="254.58" y="920.72" width="237.13" height="30"/><path class="cls-11" d="M1741.15,1370.17H1302a16.46,16.46,0,0,1-16.46-16.47v-258a32.93,32.93,0,0,1,32.93-32.93h406.2a32.93,32.93,0,0,1,32.94,32.93v258A16.47,16.47,0,0,1,1741.15,1370.17Z" transform="translate(-90.97 -158.65)"/><path class="cls-9" d="M1769.69,1458H1273.47a32.94,32.94,0,0,1-32.94-32.94V1353.7a16.47,16.47,0,0,1,16.47-16.46h529.16a16.46,16.46,0,0,1,16.47,16.46v71.36A32.94,32.94,0,0,1,1769.69,1458Z" transform="translate(-90.97 -158.65)"/><path class="cls-4" d="M1749.69,1436.53H1253.47a31.5,31.5,0,0,1-31.47-31.47v-86.35h559.16v86.35A31.5,31.5,0,0,1,1749.69,1436.53ZM1252,1348.71v56.35a1.47,1.47,0,0,0,1.47,1.47h496.22a1.47,1.47,0,0,0,1.47-1.47v-56.35Z" transform="translate(-90.97 -158.65)"/><path class="cls-4" d="M1736.15,1348.71H1267v-273a31.51,31.51,0,0,1,31.47-31.47h406.2a31.51,31.51,0,0,1,31.47,31.47Zm-439.14-30h409.14v-243a1.47,1.47,0,0,0-1.47-1.47h-406.2a1.47,1.47,0,0,0-1.47,1.47Z" transform="translate(-90.97 -158.65)"/><rect class="cls-4" x="1355.72" y="1173.23" width="109.79" height="30"/><path class="cls-8" d="M1395.17,684.48a240.53,240.53,0,0,0-340,0,16.46,16.46,0,0,1-23.26,0l-78.11-77.94a32.95,32.95,0,0,1,1.1-47.68,400.77,400.77,0,0,1,540.57,0,33,33,0,0,1,1.09,47.68l-78.1,77.94A16.48,16.48,0,0,1,1395.17,684.48Z" transform="translate(-90.97 -158.65)"/><path class="cls-11" d="M1305.12,774.35a113.15,113.15,0,0,0-159.92,0,16.46,16.46,0,0,1-23.25,0l-90.06-89.86a16.47,16.47,0,0,1,0-23.31,273.45,273.45,0,0,1,386.55,0,16.48,16.48,0,0,1,0,23.31l-90.06,89.86A16.47,16.47,0,0,1,1305.12,774.35Z" transform="translate(-90.97 -158.65)"/><path class="cls-12" d="M1225.16,863.73a32.8,32.8,0,0,1-23.25-9.6l-80-79.79a16.47,16.47,0,0,1,0-23.32,146.1,146.1,0,0,1,206.43,0,16.47,16.47,0,0,1,0,23.32l-80,79.79A32.8,32.8,0,0,1,1225.16,863.73Z" transform="translate(-90.97 -158.65)"/><path class="cls-4" d="M1023.52,674l-88.7-88.51a31.5,31.5,0,0,1,1-45.56,399.33,399.33,0,0,1,538.6,0,31.49,31.49,0,0,1,1,45.56h0L1386.81,674l-10.6-10.57a242,242,0,0,0-342.09,0Zm181.64-111.38a270.2,270.2,0,0,1,181.36,69.28l67.8-67.64a1.37,1.37,0,0,0,.42-1.07,1.49,1.49,0,0,0-.5-1.1,369.32,369.32,0,0,0-498.15,0,1.47,1.47,0,0,0-.51,1.1,1.4,1.4,0,0,0,.43,1.07l67.8,67.64A270.17,270.17,0,0,1,1205.16,562.62Z" transform="translate(-90.97 -158.65)"/><path class="cls-4" d="M1296.75,763.86l-10.59-10.57a114.64,114.64,0,0,0-162,0l-10.6,10.57L1002.29,652.81l10.64-10.62a272,272,0,0,1,384.47,0L1408,652.81ZM1045.08,653.13l69,68.89a144.67,144.67,0,0,1,182.09,0l69-68.89a242,242,0,0,0-320.17,0Z" transform="translate(-90.97 -158.65)"/><path class="cls-4" d="M1205.16,842.25a31.33,31.33,0,0,1-22.21-9.17l-90.61-90.41L1103,732.05a144.62,144.62,0,0,1,204.35,0L1318,742.67l-90.61,90.41A31.38,31.38,0,0,1,1205.16,842.25Zm-69.65-98.89,68.63,68.49a1.46,1.46,0,0,0,2,0l68.63-68.49a114.67,114.67,0,0,0-139.31,0Z" transform="translate(-90.97 -158.65)"/><path class="cls-10" d="M959,852.1q0,7.74-2.89,11.68t-8.82,3.93q-5.82,0-8.77-3.84t-3-11.35V846.3q0-7.74,2.89-11.62c1.94-2.58,4.88-3.87,8.85-3.87s6.86,1.26,8.79,3.77,2.92,6.28,3,11.3Zm-6-6.71c0-3.37-.46-5.85-1.38-7.42a5.29,5.29,0,0,0-8.71-.12c-.92,1.49-1.41,3.81-1.45,7V853c0,3.35.46,5.85,1.4,7.5a4.73,4.73,0,0,0,4.42,2.46,4.63,4.63,0,0,0,4.26-2.28q1.38-2.28,1.46-7.14Z" transform="translate(-90.97 -158.65)"/><path class="cls-10" d="M1024.07,852.1q0,7.74-2.89,11.68t-8.82,3.93q-5.82,0-8.77-3.84t-3-11.35V846.3q0-7.74,2.9-11.62t8.84-3.87q5.9,0,8.79,3.77c1.93,2.52,2.93,6.28,3,11.3Zm-6-6.71c0-3.37-.46-5.85-1.38-7.42a5.29,5.29,0,0,0-8.71-.12q-1.38,2.24-1.45,7V853c0,3.35.46,5.85,1.4,7.5a4.73,4.73,0,0,0,4.42,2.46,4.66,4.66,0,0,0,4.27-2.28q1.38-2.28,1.45-7.14Z" transform="translate(-90.97 -158.65)"/><path class="cls-10" d="M1089.17,852.1q0,7.74-2.9,11.68t-8.82,3.93q-5.82,0-8.77-3.84t-3-11.35V846.3q0-7.74,2.9-11.62t8.84-3.87q5.89,0,8.79,3.77t3,11.3Zm-6-6.71c0-3.37-.46-5.85-1.38-7.42a5.29,5.29,0,0,0-8.71-.12q-1.38,2.24-1.45,7V853q0,5,1.4,7.5a4.73,4.73,0,0,0,4.42,2.46,4.65,4.65,0,0,0,4.27-2.28q1.38-2.28,1.45-7.14Z" transform="translate(-90.97 -158.65)"/><path class="cls-10" d="M1154.26,852.1q0,7.74-2.9,11.68t-8.82,3.93q-5.82,0-8.77-3.84t-3-11.35V846.3q0-7.74,2.9-11.62t8.84-3.87q5.9,0,8.8,3.77t3,11.3Zm-6-6.71c0-3.37-.46-5.85-1.38-7.42a5.29,5.29,0,0,0-8.71-.12q-1.38,2.24-1.45,7V853q0,5,1.41,7.5a4.71,4.71,0,0,0,4.41,2.46,4.65,4.65,0,0,0,4.27-2.28q1.38-2.28,1.45-7.14Z" transform="translate(-90.97 -158.65)"/><path class="cls-10" d="M959,933.05q0,7.74-2.89,11.68t-8.82,3.93q-5.82,0-8.77-3.83t-3-11.36v-6.22q0-7.74,2.89-11.61c1.94-2.59,4.88-3.88,8.85-3.88s6.86,1.26,8.79,3.78,2.92,6.28,3,11.29Zm-6-6.71q0-5.05-1.38-7.41a5.28,5.28,0,0,0-8.71-.13c-.92,1.49-1.41,3.82-1.45,7v8.14c0,3.36.46,5.86,1.4,7.5a4.72,4.72,0,0,0,4.42,2.47,4.63,4.63,0,0,0,4.26-2.28q1.38-2.28,1.46-7.14Z" transform="translate(-90.97 -158.65)"/><path class="cls-10" d="M1016.9,948.17h-6V919.32l-8.81,3v-5l14-5.16h.77Z" transform="translate(-90.97 -158.65)"/><path class="cls-10" d="M1089.17,933.05q0,7.74-2.9,11.68t-8.82,3.93q-5.82,0-8.77-3.83t-3-11.36v-6.22q0-7.74,2.9-11.61t8.84-3.88q5.89,0,8.79,3.78t3,11.29Zm-6-6.71q0-5.05-1.38-7.41a5.28,5.28,0,0,0-8.71-.13c-.92,1.49-1.4,3.82-1.45,7v8.14q0,5,1.4,7.5a4.72,4.72,0,0,0,4.42,2.47,4.65,4.65,0,0,0,4.27-2.28q1.38-2.28,1.45-7.14Z" transform="translate(-90.97 -158.65)"/><path class="cls-10" d="M1154.26,933.05q0,7.74-2.9,11.68t-8.82,3.93q-5.82,0-8.77-3.83t-3-11.36v-6.22q0-7.74,2.9-11.61t8.84-3.88q5.9,0,8.8,3.78t3,11.29Zm-6-6.71q0-5.05-1.38-7.41a5.28,5.28,0,0,0-8.71-.13c-.92,1.49-1.4,3.82-1.45,7v8.14q0,5,1.41,7.5a4.7,4.7,0,0,0,4.41,2.47,4.65,4.65,0,0,0,4.27-2.28q1.38-2.28,1.45-7.14Z" transform="translate(-90.97 -158.65)"/><path class="cls-10" d="M959,1014q0,7.75-2.89,11.68t-8.82,3.94q-5.82,0-8.77-3.84t-3-11.36v-6.21q0-7.76,2.89-11.62c1.94-2.58,4.88-3.87,8.85-3.87s6.86,1.25,8.79,3.77,2.92,6.28,3,11.3Zm-6-6.71q0-5.06-1.38-7.41a5.29,5.29,0,0,0-8.71-.12c-.92,1.49-1.41,3.81-1.45,7v8.14c0,3.35.46,5.85,1.4,7.5a4.73,4.73,0,0,0,4.42,2.46,4.63,4.63,0,0,0,4.26-2.28q1.38-2.28,1.46-7.14Z" transform="translate(-90.97 -158.65)"/><path class="cls-10" d="M1016.9,1029.13h-6v-28.86l-8.81,3v-5l14-5.15h.77Z" transform="translate(-90.97 -158.65)"/><path class="cls-10" d="M1082,1029.13h-6v-28.86l-8.81,3v-5l14-5.15h.77Z" transform="translate(-90.97 -158.65)"/><path class="cls-10" d="M1154.26,1014q0,7.75-2.9,11.68t-8.82,3.94q-5.82,0-8.77-3.84t-3-11.36v-6.21q0-7.76,2.9-11.62t8.84-3.87q5.9,0,8.8,3.77t3,11.3Zm-6-6.71q0-5.06-1.38-7.41a5.29,5.29,0,0,0-8.71-.12q-1.38,2.24-1.45,7v8.14q0,5,1.41,7.5a4.71,4.71,0,0,0,4.41,2.46,4.65,4.65,0,0,0,4.27-2.28q1.38-2.28,1.45-7.14Z" transform="translate(-90.97 -158.65)"/><path class="cls-10" d="M951.81,1110.08h-6v-28.85l-8.81,3v-5l14-5.16h.77Z" transform="translate(-90.97 -158.65)"/><path class="cls-10" d="M1024.07,1095q0,7.74-2.89,11.68t-8.82,3.93q-5.82,0-8.77-3.83t-3-11.36v-6.22q0-7.74,2.9-11.62t8.84-3.87q5.9,0,8.79,3.78c1.93,2.51,2.93,6.28,3,11.29Zm-6-6.71q0-5.05-1.38-7.41a5.28,5.28,0,0,0-8.71-.13q-1.38,2.24-1.45,7v8.14c0,3.36.46,5.86,1.4,7.5a4.74,4.74,0,0,0,4.42,2.47,4.66,4.66,0,0,0,4.27-2.28q1.38-2.29,1.45-7.15Z" transform="translate(-90.97 -158.65)"/><path class="cls-10" d="M1082,1110.08h-6v-28.85l-8.81,3v-5l14-5.16h.77Z" transform="translate(-90.97 -158.65)"/><path class="cls-10" d="M1154.26,1095q0,7.74-2.9,11.68t-8.82,3.93q-5.82,0-8.77-3.83t-3-11.36v-6.22q0-7.74,2.9-11.62t8.84-3.87q5.9,0,8.8,3.78t3,11.29Zm-6-6.71q0-5.05-1.38-7.41a5.28,5.28,0,0,0-8.71-.13q-1.38,2.24-1.45,7v8.14q0,5,1.41,7.5a4.71,4.71,0,0,0,4.41,2.47,4.65,4.65,0,0,0,4.27-2.28q1.38-2.29,1.45-7.15Z" transform="translate(-90.97 -158.65)"/><rect class="cls-4" x="1195.03" y="941.35" width="618" height="193"/><path class="cls-10" d="M1658.94,1155.66q0,7.75-2.9,11.68t-8.82,3.94q-5.82,0-8.77-3.84t-3-11.36v-6.21q0-7.74,2.9-11.62t8.84-3.87q5.89,0,8.8,3.77t3,11.3Zm-6-6.7c0-3.38-.47-5.85-1.39-7.42a5.28,5.28,0,0,0-8.7-.12q-1.38,2.24-1.46,7v8.14q0,5,1.41,7.5a4.71,4.71,0,0,0,4.41,2.46,4.64,4.64,0,0,0,4.27-2.28q1.38-2.28,1.46-7.14Z" transform="translate(-90.97 -158.65)"/><path class="cls-10" d="M1716.85,1170.79h-6v-28.86l-8.8,3v-5l14-5.15h.76Z" transform="translate(-90.97 -158.65)"/><path class="cls-10" d="M1781.94,1170.79h-6v-28.86l-8.8,3v-5l14-5.15h.76Z" transform="translate(-90.97 -158.65)"/><path class="cls-10" d="M1854.21,1155.66q0,7.75-2.9,11.68t-8.81,3.94q-5.82,0-8.77-3.84t-3-11.36v-6.21q0-7.74,2.89-11.62c1.94-2.58,4.88-3.87,8.85-3.87s6.86,1.25,8.79,3.77,2.92,6.28,3,11.3Zm-6-6.7q0-5.07-1.38-7.42a5.29,5.29,0,0,0-8.71-.12c-.92,1.49-1.41,3.81-1.45,7v8.14c0,3.35.46,5.85,1.4,7.5a4.73,4.73,0,0,0,4.42,2.46,4.63,4.63,0,0,0,4.26-2.28c.93-1.52,1.41-3.9,1.46-7.14Z" transform="translate(-90.97 -158.65)"/><path class="cls-10" d="M1651.76,1251.74h-6v-28.85l-8.8,3v-5l14-5.16h.76Z" transform="translate(-90.97 -158.65)"/><path class="cls-10" d="M1724,1236.62q0,7.74-2.9,11.68t-8.82,3.93q-5.82,0-8.77-3.83t-3-11.36v-6.22q0-7.74,2.9-11.61t8.84-3.88q5.9,0,8.8,3.78t3,11.29Zm-6-6.71q0-5.06-1.39-7.41a5.27,5.27,0,0,0-8.7-.13c-.92,1.49-1.41,3.82-1.46,7v8.14q0,5,1.41,7.5a4.72,4.72,0,0,0,4.41,2.47,4.64,4.64,0,0,0,4.27-2.28c.92-1.53,1.41-3.9,1.46-7.14Z" transform="translate(-90.97 -158.65)"/><path class="cls-10" d="M1781.94,1251.74h-6v-28.85l-8.8,3v-5l14-5.16h.76Z" transform="translate(-90.97 -158.65)"/><path class="cls-10" d="M1854.21,1236.62q0,7.74-2.9,11.68t-8.81,3.93q-5.82,0-8.77-3.83t-3-11.36v-6.22q0-7.74,2.89-11.61c1.94-2.59,4.88-3.88,8.85-3.88s6.86,1.26,8.79,3.78,2.92,6.28,3,11.29Zm-6-6.71q0-5.06-1.38-7.41a5.28,5.28,0,0,0-8.71-.13c-.92,1.49-1.41,3.82-1.45,7v8.14c0,3.36.46,5.86,1.4,7.5a4.72,4.72,0,0,0,4.42,2.47,4.63,4.63,0,0,0,4.26-2.28c.93-1.53,1.41-3.9,1.46-7.14Z" transform="translate(-90.97 -158.65)"/><path class="cls-10" d="M1398.94,1155.66q0,7.75-2.9,11.68t-8.82,3.94q-5.82,0-8.77-3.84t-3-11.36v-6.21q0-7.74,2.9-11.62t8.84-3.87q5.89,0,8.8,3.77t3,11.3Zm-6-6.7c0-3.38-.47-5.85-1.39-7.42a5.28,5.28,0,0,0-8.7-.12q-1.38,2.24-1.46,7v8.14q0,5,1.41,7.5a4.71,4.71,0,0,0,4.41,2.46,4.64,4.64,0,0,0,4.27-2.28q1.38-2.28,1.46-7.14Z" transform="translate(-90.97 -158.65)"/><path class="cls-10" d="M1456.85,1170.79h-6v-28.86l-8.8,3v-5l14-5.15h.76Z" transform="translate(-90.97 -158.65)"/><path class="cls-10" d="M1521.94,1170.79h-6v-28.86l-8.8,3v-5l14-5.15h.76Z" transform="translate(-90.97 -158.65)"/><path class="cls-10" d="M1594.21,1155.66q0,7.75-2.9,11.68t-8.81,3.94q-5.82,0-8.77-3.84t-3-11.36v-6.21q0-7.74,2.89-11.62c1.94-2.58,4.88-3.87,8.85-3.87s6.86,1.25,8.79,3.77,2.92,6.28,3,11.3Zm-6-6.7q0-5.07-1.38-7.42a5.29,5.29,0,0,0-8.71-.12c-.92,1.49-1.41,3.81-1.45,7v8.14c0,3.35.46,5.85,1.4,7.5a4.73,4.73,0,0,0,4.42,2.46,4.63,4.63,0,0,0,4.26-2.28c.93-1.52,1.41-3.9,1.46-7.14Z" transform="translate(-90.97 -158.65)"/><path class="cls-10" d="M1391.76,1251.74h-6v-28.85l-8.8,3v-5l14-5.16h.76Z" transform="translate(-90.97 -158.65)"/><path class="cls-10" d="M1464,1236.62q0,7.74-2.9,11.68t-8.82,3.93q-5.82,0-8.77-3.83t-3-11.36v-6.22q0-7.74,2.9-11.61t8.84-3.88q5.9,0,8.8,3.78t3,11.29Zm-6-6.71q0-5.06-1.39-7.41a5.27,5.27,0,0,0-8.7-.13c-.92,1.49-1.41,3.82-1.46,7v8.14q0,5,1.41,7.5a4.72,4.72,0,0,0,4.41,2.47,4.64,4.64,0,0,0,4.27-2.28c.92-1.53,1.41-3.9,1.46-7.14Z" transform="translate(-90.97 -158.65)"/><path class="cls-10" d="M1521.94,1251.74h-6v-28.85l-8.8,3v-5l14-5.16h.76Z" transform="translate(-90.97 -158.65)"/><path class="cls-10" d="M1594.21,1236.62q0,7.74-2.9,11.68t-8.81,3.93q-5.82,0-8.77-3.83t-3-11.36v-6.22q0-7.74,2.89-11.61c1.94-2.59,4.88-3.88,8.85-3.88s6.86,1.26,8.79,3.78,2.92,6.28,3,11.29Zm-6-6.71q0-5.06-1.38-7.41a5.28,5.28,0,0,0-8.71-.13c-.92,1.49-1.41,3.82-1.45,7v8.14c0,3.36.46,5.86,1.4,7.5a4.72,4.72,0,0,0,4.42,2.47,4.63,4.63,0,0,0,4.26-2.28c.93-1.53,1.41-3.9,1.46-7.14Z" transform="translate(-90.97 -158.65)"/></svg>