<svg xmlns="http://www.w3.org/2000/svg" viewBox="0 0 2400 1800"><defs><style>.cls-1{isolation:isolate;}.cls-2{fill:#73ceff;}.cls-3{fill:#b8e8ff;}.cls-21,.cls-3,.cls-48{opacity:0.5;}.cls-21,.cls-4,.cls-5,.cls-6{fill:#302988;}.cls-5{opacity:0.14;}.cls-21,.cls-34,.cls-35,.cls-40,.cls-47,.cls-48,.cls-5,.cls-6{mix-blend-mode:multiply;}.cls-6{opacity:0.25;}.cls-12,.cls-13,.cls-7{fill:#fff;}.cls-7{opacity:0.75;}.cls-8{fill:#ffb425;}.cls-9{fill:#e8a221;}.cls-10{fill:#4838b4;}.cls-11{fill:#232266;}.cls-12{opacity:0.38;}.cls-14{fill:#101734;}.cls-15{fill:#e91b42;}.cls-16{fill:#0d1635;}.cls-17{fill:#30385c;}.cls-18{fill:#d9f1ff;}.cls-19{fill:#88cdf2;}.cls-20{fill:#eee;}.cls-22{fill:#302a84;}.cls-23{fill:#1d1869;}.cls-24,.cls-34{fill:#212a52;}.cls-25{fill:#eaaf8d;}.cls-26{fill:#e86f54;}.cls-27{fill:#111633;}.cls-28{fill:#8480c4;}.cls-29{fill:#ebf9ff;}.cls-30{fill:#e88154;}.cls-31{fill:#0d122f;}.cls-32{fill:#ff4aa1;}.cls-33{fill:#554136;}.cls-34{opacity:0.6;}.cls-35{fill:#c7e2f0;opacity:0.85;}.cls-36{fill:#d1e3ed;}.cls-37{fill:#58867c;}.cls-38{fill:#5f53f1;}.cls-39{fill:#46587c;opacity:0.2;mix-blend-mode:color-burn;}.cls-40{fill:#75a085;}.cls-40,.cls-47{opacity:0.3;}.cls-41{fill:#232264;}.cls-42{fill:#4f556d;}.cls-43{fill:#65b7db;}.cls-44{fill:#43acd1;}.cls-45{fill:#ffc557;}.cls-46{fill:#54bbe8;}.cls-47{fill:#2d3461;}.cls-48{fill:#1e7c4b;}</style></defs><title>Revision_Freevector_Education-School_Illustration_Mf0321 [Converted]</title><g class="cls-1"><g id="Background"><rect class="cls-2" width="2400" height="1800"/><path class="cls-3" d="M311.1,1298.24S-300,428.77,400.6,139.81C881-58.32,1105.64,517.05,1359,517.05c156.31,0,240.87-193.55,583.16-74.33,388.37,135.27,557.78,742.16,230.75,905.67s-1855.21-31-1855.21-31"/><path class="cls-3" d="M2400,0V536.21c-70.9-113.82-196.8-243.87-416.42-306.53C1757.82,165.27,1654,73.57,1606.28,0Z"/><polygon class="cls-2" points="786.63 310.26 780.71 289.67 773.7 309.92 753.1 315.84 773.36 322.85 779.28 343.44 786.28 323.19 806.88 317.27 786.63 310.26"/><polygon class="cls-2" points="701.52 256.58 697.55 242.77 692.85 256.35 679.04 260.32 692.62 265.02 696.59 278.84 701.29 265.25 715.11 261.28 701.52 256.58"/><polygon class="cls-3" points="214.01 111.13 209.28 94.65 203.67 110.85 187.2 115.59 203.4 121.2 208.14 137.67 213.74 121.47 230.22 116.73 214.01 111.13"/><polygon class="cls-3" points="57.2 199.1 54.09 188.27 50.4 198.92 39.56 202.04 50.22 205.73 53.33 216.56 57.02 205.91 67.86 202.79 57.2 199.1"/><polygon class="cls-3" points="714.71 53.09 711.6 42.25 707.91 52.91 697.07 56.03 707.73 59.71 710.85 70.55 714.53 59.89 725.37 56.78 714.71 53.09"/><polygon class="cls-3" points="924.66 120.3 920.55 106.01 915.69 120.06 901.4 124.17 915.45 129.03 919.56 143.32 924.42 129.27 938.71 125.16 924.66 120.3"/><polygon class="cls-3" points="1162.6 263.74 1158.49 249.45 1153.63 263.5 1139.34 267.61 1153.39 272.47 1157.5 286.76 1162.36 272.71 1176.65 268.6 1162.6 263.74"/><polygon class="cls-3" points="1312.86 37.14 1308.75 22.85 1303.89 36.9 1289.6 41.01 1303.65 45.87 1307.76 60.16 1312.62 46.11 1326.91 42 1312.86 37.14"/><polygon class="cls-3" points="1645.29 153.56 1641.18 139.27 1636.32 153.32 1622.03 157.43 1636.08 162.29 1640.19 176.58 1645.05 162.53 1659.34 158.42 1645.29 153.56"/><polygon class="cls-3" points="1870.48 334.32 1866.37 320.03 1861.51 334.08 1847.22 338.19 1861.27 343.05 1865.38 357.34 1870.24 343.29 1884.53 339.18 1870.48 334.32"/><polygon class="cls-3" points="2165 343.28 2160.89 328.99 2156.03 343.04 2141.74 347.15 2155.8 352.01 2159.91 366.3 2164.77 352.25 2179.05 348.14 2165 343.28"/><polygon class="cls-3" points="2280.29 563.75 2273.12 538.84 2264.65 563.34 2239.74 570.5 2264.23 578.98 2271.4 603.89 2279.87 579.39 2304.78 572.23 2280.29 563.75"/><polygon class="cls-2" points="1908.4 670.2 1902.48 649.6 1895.47 669.85 1874.88 675.78 1895.13 682.78 1901.05 703.38 1908.06 683.13 1928.65 677.2 1908.4 670.2"/><polygon class="cls-2" points="2027.16 143.74 2024.06 132.96 2020.39 143.56 2009.62 146.66 2020.21 150.32 2023.31 161.1 2026.98 150.5 2037.76 147.4 2027.16 143.74"/><polygon class="cls-2" points="2309.29 89.66 2304.56 73.2 2298.97 89.38 2282.51 94.11 2298.69 99.71 2303.42 116.16 2309.02 99.98 2325.47 95.25 2309.29 89.66"/><rect class="cls-4" y="1245.87" width="2400" height="554.13"/><path class="cls-5" d="M2400,1401.37v190.89c-236.94,59.9-690,100.4-1210,100.4-505.71,0-948.13-38.3-1190-95.51V1396.48C241.87,1339.27,684.29,1301,1190,1301,1710,1301,2163.06,1341.46,2400,1401.37Z"/><ellipse class="cls-6" cx="1180.36" cy="1445.51" rx="1116.16" ry="157.79"/></g><g id="Mid-Ground"><ellipse class="cls-7" cx="1758.55" cy="612.73" rx="102.86" ry="89.04"/><path class="cls-8" d="M1810.39,580.12a48.86,48.86,0,0,0-3-16.78c-.55-1.49-1.17-3-1.85-4.38a48.91,48.91,0,0,0-44-27.64h0a48.8,48.8,0,0,0-42,73.65h0a.72.72,0,0,1,.07.11q.79,1.33,1.68,2.61c5.26,8.52,20.58,15.4,20.58,49.06h39.37c0-33.66,15.32-40.54,20.58-49.06q.89-1.28,1.68-2.61a.72.72,0,0,1,.07-.11h0A48.62,48.62,0,0,0,1810.39,580.12Z"/><path class="cls-9" d="M1775.34,659.21h-2.74V634.38l7.17-19.35a1.61,1.61,0,0,0-1.51-2.17.77.77,0,0,0-.78.77v.84a3.52,3.52,0,1,1-7,0v-.84a.76.76,0,0,0-.77-.77h-2.62a.77.77,0,0,0-.78.77v.67a3.52,3.52,0,0,1-3.51,3.52h-1.19a3.52,3.52,0,0,1-3.51-3.52v-.67a.77.77,0,0,0-.77-.77h-1.73a.77.77,0,0,0-.78.77v.67a3.52,3.52,0,0,1-3.51,3.52h-1.2a3.53,3.53,0,0,1-3.52-3.52v-.67a.77.77,0,0,0-.77-.77,1.61,1.61,0,0,0-1.51,2.17l7.17,19.35v24.83h-2.75V634.87l-7-18.89a4.36,4.36,0,0,1,4.09-5.87,3.52,3.52,0,0,1,3.51,3.52v.67a.77.77,0,0,0,.78.77h1.2a.77.77,0,0,0,.77-.77v-.67a3.53,3.53,0,0,1,3.52-3.52h1.73a3.52,3.52,0,0,1,3.51,3.52v.67a.77.77,0,0,0,.77.77h1.19a.77.77,0,0,0,.77-.77v-.67a3.53,3.53,0,0,1,3.52-3.52h2.62a3.53,3.53,0,0,1,3.52,3.52v.84a.77.77,0,0,0,1.54,0v-.84a3.53,3.53,0,0,1,3.52-3.52,4.36,4.36,0,0,1,4.08,5.87l-7,18.89Z"/><rect class="cls-10" x="1734.94" y="656.75" width="53.28" height="4.92" rx="1"/><rect class="cls-11" x="1734.94" y="661.67" width="53.28" height="4.92" rx="1"/><rect class="cls-10" x="1734.94" y="666.58" width="53.28" height="4.92" rx="1"/><path class="cls-11" d="M1781.88,676.42h-40.59a2.46,2.46,0,0,1-2.46-2.46h0a2.46,2.46,0,0,1,2.46-2.46h40.59a2.46,2.46,0,0,1,2.46,2.46h0A2.46,2.46,0,0,1,1781.88,676.42Z"/><path class="cls-10" d="M1780.28,681.34h-37.39a2.46,2.46,0,0,1-2.46-2.46h0a2.46,2.46,0,0,1,2.46-2.46h37.39a2.46,2.46,0,0,1,2.46,2.46h0A2.46,2.46,0,0,1,1780.28,681.34Z"/><path class="cls-11" d="M1773.28,686.25h-23.39a2.46,2.46,0,0,1-2.46-2.46h0a2.46,2.46,0,0,1,2.46-2.45h23.39a2.45,2.45,0,0,1,2.45,2.45h0A2.46,2.46,0,0,1,1773.28,686.25Z"/><ellipse class="cls-12" cx="1782.53" cy="555.6" rx="9.93" ry="11.39"/><path class="cls-12" d="M1802,571.37c0,2.74-1.93,5-4.32,5s-4.33-2.22-4.33-5,1.94-5,4.33-5S1802,568.62,1802,571.37Z"/><circle class="cls-7" cx="1645.41" cy="719.01" r="41.14" transform="translate(-26.49 1374.07) rotate(-45)"/><circle class="cls-7" cx="1659.12" cy="794.44" r="21.43"/><circle class="cls-7" cx="1703.69" cy="823.58" r="12"/><rect class="cls-13" x="2091.2" y="628.67" width="21.5" height="117.15"/><rect class="cls-10" x="2117.79" y="648.5" width="16.98" height="97.32"/><rect class="cls-8" x="2141.74" y="658.05" width="31.12" height="87.77"/><rect class="cls-8" x="2003.77" y="661.42" width="34.14" height="84.4"/><rect class="cls-13" x="2041.49" y="628.67" width="21.5" height="117.15"/><rect class="cls-10" x="2068.09" y="648.5" width="16.98" height="97.32"/><rect class="cls-10" x="1977.55" y="641.58" width="19.8" height="104.24"/><polygon class="cls-10" points="2218.94 740.18 2204.29 745.38 2168.95 647.21 2183.6 642.02 2218.94 740.18"/><rect class="cls-14" x="1960.81" y="745.82" width="335.71" height="19.07" rx="8.81"/><ellipse class="cls-4" cx="1372.71" cy="320.03" rx="142.6" ry="141.48"/><path class="cls-13" d="M1498.07,312.22c4.35,68.7-48.26,127.88-117.49,132.19s-128.88-47.88-133.23-116.58,48.26-127.87,117.5-132.18S1493.73,243.53,1498.07,312.22Z"/><rect class="cls-4" x="1268.89" y="298.26" width="3.22" height="42.28" transform="translate(951.1 1589.9) rotate(-90)"/><rect class="cls-4" x="1473.57" y="298.26" width="3.22" height="42.28" transform="translate(1155.78 1794.58) rotate(-90)"/><rect class="cls-4" x="1370.91" y="198.5" width="3.25" height="41.95"/><rect class="cls-4" x="1370.91" y="400.77" width="3.25" height="41.95"/><path class="cls-13" d="M1376.21,320a3.5,3.5,0,1,1-3.5-3.47A3.48,3.48,0,0,1,1376.21,320Z"/><path class="cls-4" d="M1372.71,321.58a1.55,1.55,0,0,1-1.1-.45l-62.9-62.41a1.54,1.54,0,0,1,0-2.19,1.58,1.58,0,0,1,2.22,0l62.89,62.4a1.55,1.55,0,0,1,0,2.2A1.59,1.59,0,0,1,1372.71,321.58Z"/><path class="cls-15" d="M1392.93,383.09a1.15,1.15,0,0,1-.57-.65L1372,321.51a1.11,1.11,0,0,1,.72-1.42,1.14,1.14,0,0,1,1.44.71l20.33,60.93a1.14,1.14,0,0,1-1.6,1.36Z"/><path class="cls-11" d="M513.67,1017.86l5.78,3A42.72,42.72,0,0,1,513.67,1017.86Z"/><rect class="cls-16" x="487.12" y="1200.9" width="175.72" height="97.33"/><path class="cls-17" d="M956.89,1210.48H194.6c-10.17,0-18.57-8.2-19.18-18.71l-7.56-130.65L143.07,632.44c-.66-11.45,8.12-21.12,19.18-21.12H924.53c10.16,0,18.58,8.21,19.19,18.73L974,1153.51l2.08,35.87C976.73,1200.83,968,1210.48,956.89,1210.48Z"/><path class="cls-18" d="M924.23,1135.75H224c-10.12,0-18.5-8.14-19.17-18.6L175.4,654.53c-.73-11.49,8.06-21.24,19.17-21.24H894.79c10.13,0,18.51,8.14,19.18,18.62l29.43,462.61C944.13,1126,935.33,1135.75,924.23,1135.75Z"/><path class="cls-19" d="M864.87,1094.88H278.58a16.36,16.36,0,0,1-16.06-15.58L237.88,692c-.61-9.62,6.75-17.78,16.05-17.78H840.22a16.35,16.35,0,0,1,16.06,15.59l24.64,387.34C881.54,1086.73,874.17,1094.88,864.87,1094.88Z"/><rect class="cls-16" x="371.52" y="1287.72" width="408.47" height="49" rx="17.62"/><ellipse class="cls-20" cx="591.94" cy="1167.35" rx="18.5" ry="19.17"/><rect class="cls-18" x="251.8" y="684.82" width="152.09" height="29.83" rx="13.71"/><rect class="cls-18" x="256.6" y="726.72" width="104.13" height="13.49" rx="6.2"/><rect class="cls-18" x="257.97" y="750.15" width="104.13" height="13.49" rx="6.2"/><path class="cls-21" d="M924.11,1317.36c37,5.92,58.49,13,58.49,20.57,0,20.83-162,37.71-361.71,37.71s-361.72-16.88-361.72-37.71c0-7.59,21.5-14.65,58.49-20.57Z"/><path class="cls-22" d="M664.9,960.7l-7.16,14.46H464c-24.22-10-16.91-34.69-16.91-34.69s12.33-4,12.33-132.09c0-69.69,23.06-99.18,53.15-110.26a114.19,114.19,0,0,1,26.71-6.23,106,106,0,0,1,21.61-.45c17,0,31.5,2.15,43.9,6,11.82,3.67,22,8.46,30,15.29,33.24,28.55,32,109.57,30.16,152.11-1.25,29.67,5.06,52.28,7.88,64.45A35.45,35.45,0,0,1,664.9,960.7Z"/><polygon class="cls-23" points="571.25 975.16 568.04 971.96 568.04 888.27 571.25 891.47 571.25 975.16"/><path class="cls-24" d="M677.25,1137H594.18l-4.06-15.45-22-83.61-18.4,83.61-3.4,15.45H450.64l1.27-15.45,6.41-77.79L464,975.16c3.92-2.8,9.86-4.92,17.25-6.46,52.08-10.87,176.53,6.46,176.53,6.46l17.65,146.38Z"/><path class="cls-25" d="M910.49,814.08A17.72,17.72,0,0,1,897.41,826c-11.31,2.23-30.57,7.12-38.59,15.64a23.52,23.52,0,0,1-26,5.9L811.44,864,795.5,837.57l21.3-16,2-1.49s-.75-14.7,14.76-26,23.38-23.27,23.38-23.27,9.71-7.21,13.47-1.9c0,0,7.69-.39-2.07,11a229.32,229.32,0,0,0-14.68,18.66s36.83-23.57,53-14.94C916.88,789.05,914,803.87,910.49,814.08Z"/><path class="cls-26" d="M840.24,849.21a22.86,22.86,0,0,1-7.43-1.64L811.44,864,795.5,837.57l21.3-16Z"/><path class="cls-22" d="M575.39,699c7.26,0,99.31-16.32,138.06,139.35L718,859.5a8.16,8.16,0,0,0,12.89,5L800.65,812l33.91,50.21-113,82.08A18.13,18.13,0,0,1,694.92,938l-54.14-98.46Z"/><path class="cls-25" d="M481.33,975c-3.43,16.51-8.27,39.37-8.95,50.53a49,49,0,0,1-2.11,10.4,10.82,10.82,0,0,1-21.17-1.4,40.51,40.51,0,0,1-.38-8.85,148.09,148.09,0,0,0-4-42.29l-1.37-1.64L425.9,960.62l16.94-21.15,16.57,15.72s1.18.15,3,.56c5.42,1.21,16.45,4.65,18.78,13A12.81,12.81,0,0,1,481.33,975Z"/><path class="cls-26" d="M462.43,955.75l-19.08,26L425.9,960.62l16.94-21.15,16.57,15.72S460.59,955.34,462.43,955.75Z"/><path class="cls-27" d="M586.28,1044.21,610.84,1137H594.18l-26.06-99.06L546.32,1137h-21l29.44-97.8-35.35-18.33c13.34,5.94,49,16.63,100.75-6.79Z"/><path class="cls-28" d="M567.71,830v61.52S596.78,894,588.3,817.4Z"/><ellipse class="cls-23" cx="578.61" cy="840.83" rx="6.06" ry="6.28"/><path class="cls-22" d="M518.46,695.21s-92,42.68-142.91,114.24l-29.06,33.89s-10.9,36.41,41.17,91.65,43.6,42.68,43.6,42.68L459.12,940l-40-72.81L487,800.66S547.53,729.1,518.46,695.21Z"/><ellipse class="cls-23" cx="578.61" cy="864.27" rx="6.06" ry="6.28"/><path class="cls-28" d="M617.78,732.87l15.74,33.89c-10.9,46.45-63,62.77-63,62.77-50.87-7.53-67.82-75.32-67.82-75.32l19.38-26.36-21.8-7.53,12.23-22.2a114.19,114.19,0,0,1,26.71-6.23,106,106,0,0,1,21.61-.45c17,0,31.5,2.15,43.9,6a94,94,0,0,1,30,15.29l3.62,10.1Z"/><path class="cls-29" d="M570.54,813.21c-44.78-2.16-34.95-95.26-31.3-121.32a106,106,0,0,1,21.61-.45c17,0,31.5,2.15,43.9,6C610.46,822.94,570.54,813.21,570.54,813.21Z"/><path class="cls-26" d="M547.75,643.28l-8.51,48.61s9.54,23.82,33.18,26,32.33-20.4,32.33-20.4l.55-52S565.22,634.76,547.75,643.28Z"/><path class="cls-25" d="M541.23,654.55s7.3,23.34,28.21,33.7a46.92,46.92,0,0,0,14.21,4.37c1.84.26,3.66.69,5.43.78a47.09,47.09,0,0,0,5.85-.09c27-2.11,36.34-28.46,43.54-67.14a170.13,170.13,0,0,0,2.37-19.62c.09-1.44.15-2.87.24-4.31.06-1.21.12-2.42.15-3.59,1.24-42.13-19.18-61.2-62.28-59-52.09,2.68-59,53.91-49.07,74.21,0,0-10.25-9.4-14.66.73S522.7,672.77,541.23,654.55Z"/><path class="cls-30" d="M606.32,629.92l-1.2,20.86S619.68,647.71,606.32,629.92Z"/><path class="cls-31" d="M588.87,624.92c-.67,6.74-2.93,12-5,11.82s-3.3-5.85-2.63-12.59,2.92-12,5-11.81S589.53,618.19,588.87,624.92Z"/><path class="cls-31" d="M624.32,623.61c-.6,6-2.62,10.77-4.51,10.58s-2.95-5.24-2.36-11.27,2.62-10.77,4.52-10.58S624.92,617.58,624.32,623.61Z"/><path class="cls-31" d="M606.4,672.45a16.83,16.83,0,0,1-7.88,2.4,16.61,16.61,0,0,1-8.43-1.34c-4.75-2.26-6.69-6.77-7.48-9.92a2.92,2.92,0,0,1,2.35-3.7l.44,0,24.73-2.42.5,0a2.74,2.74,0,0,1,2.8,3.31C612.9,664.19,611.26,669.41,606.4,672.45Z"/><path class="cls-13" d="M604.39,663.2l-12,1.6a6.46,6.46,0,0,1-7-5l24.73-2.42A7,7,0,0,1,604.39,663.2Z"/><path class="cls-32" d="M606.4,672.45a16.83,16.83,0,0,1-7.88,2.4,16.61,16.61,0,0,1-8.43-1.34,10.32,10.32,0,0,1,7.75-4.56A9.57,9.57,0,0,1,606.4,672.45Z"/><path class="cls-31" d="M580.2,611.69a10.66,10.66,0,0,1,11.54-1.43,1.13,1.13,0,0,0,1.46-.7,1.26,1.26,0,0,0-.64-1.56,12.83,12.83,0,0,0-13.77,1.83c-1.15,1,.26,2.82,1.41,1.86Z"/><path class="cls-31" d="M615.63,610.8a7.73,7.73,0,0,1,9.84-1.47,1.11,1.11,0,0,0,1.57-.27,1.27,1.27,0,0,0-.24-1.69,9.94,9.94,0,0,0-13,2,1.28,1.28,0,0,0,.24,1.69,1.11,1.11,0,0,0,1.57-.28Z"/><path class="cls-33" d="M529.88,613.86l8.62,24.63,7.71,4.79S536.45,601.2,557,596.94c-.62-8.57.84-17.32,5.55-24.4a22.26,22.26,0,0,0,11.4,7.58c-.4-2.33-.81-4.66-1.21-7a32.7,32.7,0,0,0,20,9.36,8.54,8.54,0,0,1-4.33-8.33l23.49,7.4-3.06-8.13a135.53,135.53,0,0,1,17.51,12.67,14.2,14.2,0,0,0,1-12.35,26.86,26.86,0,0,1,8.92,17.32,13,13,0,0,0,5.38-10.64,58.94,58.94,0,0,1,2.07,14.23c9.72-9.72,11-26.36,5-38.91s-18-21.18-30.9-25.4-26.64-4.5-40.14-3.9c-9.46.42-19.12,1.31-27.77,5.29s-16.26,11.61-18.1,21.24c-7.3-.51-13.95,5.42-16.54,12.51s-1.87,15-.28,22.43,4,14.65,4.73,22.19C523.12,610.19,527.68,611.15,529.88,613.86Z"/><polygon class="cls-34" points="451.91 1121.54 549.72 1121.54 546.33 1136.99 450.64 1136.99 451.91 1121.54"/><polygon class="cls-34" points="677.25 1136.99 594.18 1136.99 590.12 1121.54 675.39 1121.54 677.25 1136.99"/><path class="cls-35" d="M974,1153.51H814.93L779,611.32H924.53c10.17,0,18.58,8.22,19.18,18.73Z"/><path class="cls-29" d="M1142.59,1143.38H832a9.79,9.79,0,0,1-9.61-9.31L783.75,527.69a9.84,9.84,0,0,1,9.6-10.64h310.58a9.77,9.77,0,0,1,9.6,9.32l15.91,249.52,22.76,356.86A9.83,9.83,0,0,1,1142.59,1143.38Z"/><path class="cls-35" d="M1142.59,1143.38H986.8L963.44,786.69a10.1,10.1,0,0,1,10-10.8h156l22.76,356.86A9.83,9.83,0,0,1,1142.59,1143.38Z"/><path class="cls-29" d="M1263.73,1181.73H1010.19a9.77,9.77,0,0,1-9.6-9.32l-24.2-379.49a9.83,9.83,0,0,1,9.6-10.63h253.54a9.76,9.76,0,0,1,9.6,9.31l24.2,379.5A9.82,9.82,0,0,1,1263.73,1181.73Z"/><rect class="cls-19" x="818.53" y="541.02" width="269.75" height="27.16" rx="12.48"/><rect class="cls-36" x="830.86" y="612.92" width="158.67" height="27.16" rx="12.48"/><rect class="cls-36" x="837.02" y="659.26" width="158.67" height="27.16" rx="12.48"/><rect class="cls-36" x="841.65" y="710.39" width="158.67" height="27.16" rx="12.48"/><rect class="cls-19" x="1003.49" y="804.65" width="223.5" height="23.97" rx="8.08"/><rect class="cls-36" x="1006.58" y="870.16" width="183.43" height="17.58" rx="8.08"/><rect class="cls-36" x="1009.66" y="913.3" width="183.43" height="17.58" rx="8.08"/><rect class="cls-36" x="1012.74" y="956.44" width="183.43" height="17.58" rx="8.08"/><rect class="cls-36" x="1015.83" y="999.58" width="183.43" height="17.58" rx="8.08"/><rect class="cls-36" x="1017.71" y="1042.72" width="183.43" height="17.58" rx="8.08"/><rect class="cls-36" x="1020.79" y="1085.86" width="183.43" height="17.58" rx="8.08"/><path class="cls-37" d="M306.4,1076l-.93-1.69c3.84-2.12,7.83-4.15,11.86-6l.81,1.74C314.15,1071.91,310.2,1073.91,306.4,1076Z"/><path class="cls-38" d="M380,1254.76c-19.9.64-23.11-1.93-35.95-16.06-7.05-7.75-14.49-6.41-21.89-2.46-6.08,3.25-12.13,8.27-17.92,11.45-12.85,7.07-33.85,17.34-51,8a30,30,0,0,1-5.33-13c-2.09-12.45,1.93-32.61,35.74-54.76a84.09,84.09,0,0,1,19.88-9.74c46.74-15.32,83.48,24.84,88,41.2C396.71,1238.06,399.92,1254.11,380,1254.76Z"/><path class="cls-38" d="M155.15,1232c-53.44,12.52-52.52-22.79-74.35-51-24.19-31.3-27-4.49-43.66-.64-9,2.08-18.19-4.24-20.12-14.54h0c-1.64-8.8,2-20.49,15.62-32.32,29.54-25.68,84.76-19.26,114.94,25.68S155.15,1232,155.15,1232Z"/><path class="cls-39" d="M303.58,1178.24c-2.06,25.6-42.57,55.5-55.62,64.5-2.09-12.45,1.93-32.61,35.74-54.76A84.09,84.09,0,0,1,303.58,1178.24Z"/><path class="cls-40" d="M380,1254.76c-19.91.64-23.12-1.93-36-16.06-7.05-7.75-14.49-6.41-21.88-2.46,8.88-6.67,20.09-14.28,30.87-19.37,23.11-10.91,38.52,2.57,38.52,2.57C396.71,1238.06,399.92,1254.11,380,1254.76Z"/><path class="cls-19" d="M231.68,1306.58l-1.9-.27c.06-.43,1.55-10.6,9.15-26.45,7-14.57,20.72-36.85,46.37-60.17,25.81-23.46,50.75-26.26,67.13-24.48,17.76,1.93,29.24,9.31,29.72,9.62l-1.06,1.61a72.18,72.18,0,0,0-29-9.33c-16-1.71-40.29,1.06-65.53,24C238,1265.32,231.74,1306.17,231.68,1306.58Z"/><path class="cls-19" d="M180.35,1309.22c-.18-.81-18.39-81.27-57-130.6-38.36-49-70.65-43.37-71-43.31l-.37-1.89c.35-.07,8.6-1.6,21.78,3.09,12.06,4.29,30.71,14.87,51.08,40.92,38.85,49.68,57.15,130.56,57.33,131.37Z"/><path class="cls-38" d="M205.78,1250.12s-44.4-9.81-3.94-105.48,144.47-120.72,154.1-98.89-1.93,33.39-17.34,52.66-32.1,44.3-48.8,83.47S232.84,1259.94,205.78,1250.12Z"/><path class="cls-40" d="M80.8,1180.91c-24.19-31.3-27-4.49-43.66-.64-9,2.08-18.19-4.24-20.12-14.54h0c1.18-7.32,5.49-15.8,18.83-17.55C60.25,1145,80.8,1180.91,80.8,1180.91Z"/><ellipse class="cls-21" cx="196.45" cy="1405.65" rx="70.71" ry="16.71"/><path class="cls-19" d="M202.48,1303.64c0-.39-3.47-39.41,6.36-86.27,5.77-27.53,14.93-52.36,27.22-73.78,15.38-26.8,35.72-48.32,60.46-64l1,1.63c-55.45,35-77.82,93.58-86.83,136.51-9.77,46.57-6.36,85.31-6.32,85.7Z"/><path class="cls-16" d="M225,1405.65H176.81a18.28,18.28,0,0,1-18.07-15.52l-10.47-68.6h105.3l-10.47,68.6A18.29,18.29,0,0,1,225,1405.65Z"/><path class="cls-17" d="M251.64,1324.74H150.19a12.2,12.2,0,0,1-12.2-12.2h0a12.2,12.2,0,0,1,12.2-12.2H251.64a12.2,12.2,0,0,1,12.2,12.2h0A12.2,12.2,0,0,1,251.64,1324.74Z"/><rect class="cls-41" x="1312.61" y="781.55" width="20.65" height="272.3"/><polygon class="cls-10" points="1382.35 806.6 1258.44 806.6 1288.2 696.25 1358.66 696.25 1382.35 806.6"/><polygon class="cls-4" points="1372.71 1078.76 1269.46 1078.76 1290.11 1037.83 1353.65 1037.83 1372.71 1078.76"/><rect class="cls-14" x="1502.81" y="1116.42" width="47.03" height="410.97"/><rect class="cls-17" x="1768.05" y="910.58" width="174.07" height="248.43" rx="25.79"/><rect class="cls-14" x="1780.48" y="1270.44" width="24.87" height="213.6"/><path class="cls-42" d="M1724.53,1217h138.84a43.52,43.52,0,0,1,43.52,43.52v19.16a0,0,0,0,1,0,0H1681a0,0,0,0,1,0,0v-19.16A43.52,43.52,0,0,1,1724.53,1217Z"/><rect class="cls-14" x="1726.6" y="1481.72" width="130.56" height="30.18" rx="11.32"/><path class="cls-25" d="M1544.15,1375.64l-12.8,21.5-7.27,12.22c-31.35,21.08-35.12-14-35.12-14l9.06-15.84,11-19.28Z"/><path class="cls-26" d="M1509,1360.19l35.12,15.45-12.8,21.5c-17.65.32-27.92-9.6-33.33-17.67Z"/><path class="cls-43" d="M1761.1,1119.93l-133,28.26a29,29,0,0,0-19.12,14.74l-108.72,197.26s-1.25,37.93,50.17,29.5L1642,1229.52s247.06,8.43,234.52-85.71Z"/><path class="cls-44" d="M1493.32,1391.1l-39.57-3.25-7.13-4.18c-9.87-5.79-22.33-1.8-27.38,9.32-2.51,5.53-2,10.85,6.52,13.25,3.86,1.08,50.19,24.87,50.19,24.87l15.44-2.16,4.83,8.65,10.34,4.88s24.33-28.32,19.76-36.89Z"/><path class="cls-25" d="M1610.86,988.46c-4.09.67-7,1.41-7,1.41s-35.79-2.59-32.32-22,3.47-44,31.16-37.49a55.69,55.69,0,0,1,25.58,14C1620.29,952.81,1609.49,968.11,1610.86,988.46Z"/><path class="cls-26" d="M1637.36,991.15c-5.37-5.14-18.38-4-26.5-2.69-1.37-20.35,9.43-35.65,17.46-44.09A64,64,0,0,1,1642,962.72C1643.13,971.76,1637.36,991.15,1637.36,991.15Z"/><path class="cls-9" d="M1820,916.69s-56.43-11.24-75.24,45-21.32,67.44-21.32,67.44l-82.77-78.68s-22.57,14.05-17.56,45l98.62,102c8.29,10,29.81,5.5,32.85-2.27l39.09-99.74Z"/><path class="cls-31" d="M1770.38,785.26s-18.91,3.54-16.53,44-17.11,65.63-10.55,88.39c14.82,51.47,140.77,57.65,158.3,14.06,10.89-27.1-15-30.45-12.94-60.78,3.4-49.38-25.26-99.68-72-99.34C1779.79,771.9,1770.38,785.26,1770.38,785.26Z"/><path class="cls-8" d="M1853.9,930.74s-58.94-33.72-87.78,14c0,0-21.32,43.55-18.81,70.25s25.08,42.15,13.79,75.87c0,0,31.35,45,120.39,21.08C1881.49,1112,1924.13,939.17,1853.9,930.74Z"/><path class="cls-26" d="M1846.22,883.52l2,48.46s-12.54,17.55-47.78,6.82a5.59,5.59,0,0,1-3.62-7c2.62-8.43,6.66-24.91,1.37-33.3C1798.15,898.45,1824.23,878.73,1846.22,883.52Z"/><path class="cls-25" d="M1845.91,885s-8,20.77-27.64,28.87a42.45,42.45,0,0,1-13.19,3.08c-1.69.11-3.37.4-5,.36a44.86,44.86,0,0,1-5.32-.45c-24.38-3.62-31.38-28.18-35.65-63.82a155,155,0,0,1-1-18c0-1.32,0-2.63,0-3.95,0-1.1,0-2.2.08-3.27,1.36-38.4,21-54.45,60.12-49.72,47.23,5.73,50.47,52.76,40.27,70.6,0,0,6.78-3.27,10.2,6.22S1868,887.24,1845.91,885Z"/><path class="cls-30" d="M1788.16,858.49l-.14,19.06S1775,873.83,1788.16,858.49Z"/><path class="cls-31" d="M1785.57,897.17a15.46,15.46,0,0,0,7,2.68,15,15,0,0,0,7.75-.68c4.45-1.76,6.49-5.74,7.39-8.55a2.68,2.68,0,0,0-1.93-3.52l-.39-.07-22.35-3.76-.45-.08a2.49,2.49,0,0,0-2.75,2.84C1780.15,889.25,1781.33,894.1,1785.57,897.17Z"/><path class="cls-13" d="M1788,888.89l10.84,2.21a5.84,5.84,0,0,0,6.63-4.07l-22.35-3.76A6.41,6.41,0,0,0,1788,888.89Z"/><path class="cls-32" d="M1785.57,897.17a15.46,15.46,0,0,0,7,2.68,15,15,0,0,0,7.75-.68,9.46,9.46,0,0,0-6.78-4.64A8.72,8.72,0,0,0,1785.57,897.17Z"/><path class="cls-26" d="M1766.28,801.68s3.45,29.8,54.42,45.72c11,3.42,24.09,8.48,29.15,18.8,0,0,55-80.51-39.83-90.9C1775.82,771.56,1766.28,801.68,1766.28,801.68Z"/><path class="cls-31" d="M1768.05,794.57s5.71,34.18,56.69,50.1a41.9,41.9,0,0,1,25.11,21.53h0s59.06-83.23-35.79-93.62C1779.86,768.83,1768.05,794.57,1768.05,794.57Z"/><path class="cls-31" d="M1782.26,794.57s-22.59,10.72-24.14,52.75c0,0-9.72-56.36,17.18-58.74S1782.26,794.57,1782.26,794.57Z"/><path class="cls-31" d="M1804.14,857.3c.13,3.79,1.81,6.82,3.75,6.76s3.4-3.19,3.27-7-1.81-6.81-3.75-6.75S1804,853.51,1804.14,857.3Z"/><path class="cls-31" d="M1772,855.6c.11,3.39,1.62,6.1,3.35,6s3-2.85,2.93-6.24-1.62-6.1-3.35-6S1771.91,852.2,1772,855.6Z"/><path class="cls-31" d="M1812.26,846.29a9.75,9.75,0,0,0-10.41-2,1,1,0,0,1-1.28-.73,1.12,1.12,0,0,1,.67-1.37,11.69,11.69,0,0,1,12.42,2.53c1,.95-.41,2.55-1.4,1.6Z"/><path class="cls-31" d="M1780.09,843.24a7.06,7.06,0,0,0-8.86-2,1,1,0,0,1-1.41-.35,1.15,1.15,0,0,1,.31-1.51,9.07,9.07,0,0,1,11.69,2.66,1.14,1.14,0,0,1-.32,1.51,1,1,0,0,1-1.41-.35Z"/><path class="cls-45" d="M1858.92,932.14s35.12-7,43.89,39.34,7.53,137.7,7.53,137.7-40.13,14-76.5-21.08-57.69-43.55-57.69-43.55l7.53-32.32,86.53,32.32S1826.32,951.81,1858.92,932.14Z"/><path class="cls-25" d="M1783.68,1012.22l-7.53,32.33-10.56.87-23.3,1.94-26.34-7c-5-18.26,6.27-40.73,17.57-42.15,7.56-.93,27.51,5.68,39.84,10.16C1779.44,1010.54,1783.68,1012.22,1783.68,1012.22Z"/><path class="cls-26" d="M1783.68,1012.22l-7.53,32.33-10.56.87c.16-12.48,4.24-26.92,7.77-37.09C1779.44,1010.54,1783.68,1012.22,1783.68,1012.22Z"/><path class="cls-25" d="M1611.86,1406.55l-9.17,33.83-5.68,21c-16,25.28-36.57-2.8-36.57-2.8l5.82-24,6.75-28Z"/><path class="cls-26" d="M1611.86,1406.55l-9.17,33.83c-20.34,5.35-31.17-.63-36.43-5.88l6.75-28Z"/><path class="cls-19" d="M1876.48,1143.81,1764.86,1134l-125.32,41.37c-9.43,3.11-16.78,11.39-19.51,22l-55.82,216.26s7.53,40.74,51.42,9.83l58.94-186.87S1882.75,1274.48,1876.48,1143.81Z"/><path class="cls-46" d="M1563.25,1447l-37.48,12.21-7.85-1.12c-10.88-1.55-21.15,6.92-22.4,19.12-.62,6.06,1.25,13.69,9.87,12.61,3.89-.48,54.09.75,54.09.75l13.58-7.93,7.1,6.13,13.63.65s13.55-31.18,5-37.18Z"/><rect class="cls-14" x="1297.7" y="1131.81" width="45.4" height="396.7"/><rect class="cls-14" x="1913.47" y="1116.42" width="47.03" height="410.97"/><rect class="cls-14" x="2081.63" y="1116.42" width="47.03" height="410.97"/><rect class="cls-24" x="1268.42" y="1090.91" width="878.72" height="56.9"/><rect class="cls-14" x="1913.11" y="1090.65" width="228.62" height="56.9"/><rect class="cls-17" x="1244.39" y="1074.77" width="940.6" height="16.86"/><path class="cls-13" d="M2069.79,971.07c0-7.61-5.5-13.77-12.29-13.77h-73.92v27.53h73.92C2064.29,984.83,2069.79,978.67,2069.79,971.07Z"/><path class="cls-8" d="M2088.22,951.46H1973.16v5.84h73.91c6.79,0,12.29,6.16,12.29,13.77s-5.5,13.76-12.29,13.76h-73.91v6.68h115.06c9.25,0,16.76-8.41,16.76-18.77v-2.51C2105,959.86,2097.47,951.46,2088.22,951.46Z"/><path class="cls-13" d="M2069.79,1012c0-7.6-5.5-13.77-12.29-13.77h-73.92v27.54h73.92C2064.29,1025.72,2069.79,1019.55,2069.79,1012Z"/><path class="cls-10" d="M2088.22,992.34H1973.16v5.84h73.91c6.79,0,12.29,6.17,12.29,13.77s-5.5,13.77-12.29,13.77h-73.91v6.67h115.06c9.25,0,16.76-8.4,16.76-18.77v-2.5C2105,1000.75,2097.47,992.34,2088.22,992.34Z"/><path class="cls-13" d="M2069.79,1052.83c0-7.6-5.5-13.76-12.29-13.76h-73.92v27.53h73.92C2064.29,1066.6,2069.79,1060.44,2069.79,1052.83Z"/><path class="cls-8" d="M2088.22,1033.23H1973.16v5.84h73.91c6.79,0,12.29,6.16,12.29,13.76s-5.5,13.77-12.29,13.77h-73.91v6.68h115.06c9.25,0,16.76-8.41,16.76-18.78V1052C2105,1041.63,2097.47,1033.23,2088.22,1033.23Z"/><rect class="cls-14" x="1385.45" y="1060.7" width="271.03" height="19.77"/><path class="cls-17" d="M1608.58,900.92v158.56a8.15,8.15,0,0,1-8,8.29h-216a8.14,8.14,0,0,1-8-8.29V900.92a8.14,8.14,0,0,1,8-8.29h216A8.15,8.15,0,0,1,1608.58,900.92Z"/><path class="cls-47" d="M1608.58,1037.48v22a8.15,8.15,0,0,1-8,8.29h-216a8.14,8.14,0,0,1-8-8.29V900.92a8.14,8.14,0,0,1,8-8.29h12.82C1396.16,936.26,1415.42,1032.39,1608.58,1037.48Z"/><path class="cls-21" d="M2254.34,1517.37c0,27.29-232.55,49.42-519.4,49.42s-519.4-22.13-519.4-49.42c0-10,31.35-19.35,85.24-27.14H2169.1C2223,1498,2254.34,1507.35,2254.34,1517.37Z"/><polygon class="cls-13" points="1378.84 892.07 1370.87 864.34 1361.43 891.6 1333.71 899.58 1360.97 909.01 1368.95 936.74 1378.38 909.47 1406.1 901.5 1378.84 892.07"/><polygon class="cls-13" points="1424.26 853.22 1421.06 842.06 1417.26 853.03 1406.1 856.24 1417.08 860.04 1420.28 871.19 1424.08 860.22 1435.23 857.01 1424.26 853.22"/><polygon class="cls-13" points="1437.31 922.92 1434.1 911.76 1430.3 922.73 1419.15 925.94 1430.12 929.73 1433.33 940.89 1437.12 929.92 1448.28 926.71 1437.31 922.92"/><polygon class="cls-13" points="144.93 604.78 132.89 562.9 118.64 604.08 76.77 616.12 117.94 630.36 129.99 672.24 144.23 631.06 186.1 619.02 144.93 604.78"/><polygon class="cls-13" points="213.53 546.11 208.68 529.26 202.95 545.83 186.1 550.67 202.67 556.41 207.51 573.25 213.25 556.69 230.09 551.84 213.53 546.11"/><polygon class="cls-13" points="233.22 651.37 228.38 634.52 222.65 651.09 205.8 655.93 222.37 661.66 227.21 678.51 232.94 661.94 249.79 657.1 233.22 651.37"/><path class="cls-38" d="M2163.62,1514.64a11.92,11.92,0,0,0,1.9,1.78c4.08,3.06,9.71,3.2,14.58,1.83s9.28-4,13.84-6.23a80.06,80.06,0,0,1,30.44-7.85c8.6-.46,17.33.47,25.8-1.09s17.06-6.29,20.09-14.39c1.3-3.49,1.69-7.68,4.61-10,1.86-1.45,4.32-1.76,6.65-2l15.74-1.76c7-.78,14.57-1.87,19.31-7,3.05-3.33,4.45-7.91,7.3-11.42,4.41-5.42,11.56-7.51,17.75-10.71s12.31-9.12,11.22-16.08c-.79-5-5.13-8.73-9.55-11.26a50.32,50.32,0,0,0-29.87-6.33c-8.46.86-17,3.88-25.25,1.55-4.26-1.21-8.06-3.8-12.36-4.86a23,23,0,0,0-13.32,1.07c-11.5,4-22.57,13.92-34.85,12.44-3-.35-5.81-1.37-8.77-1.58-7.55-.54-14.41,4.14-20.06,9.16-18.14,16.14-28.06,35.85-35.74,58.46-1.6,4.77-3.24,9.63-3.31,14.67A17.54,17.54,0,0,0,2163.62,1514.64Z"/><path class="cls-4" d="M2318.76,1429.42c-3.56.24-7.12.63-10.67,1.13a22.7,22.7,0,0,0,7-8.12c.25-.51-.53-.92-.85-.48a31.6,31.6,0,0,1-9.42,9.08c-6.58,1-13.12,2.42-19.59,3.92h-.11a1.33,1.33,0,0,0-.88.24c-1.77.41-3.53.84-5.29,1.26a1.25,1.25,0,0,0-.78.55h0c-5.16,1-10.1,3.31-15.2,4.64-3.81,1-7.58,2.21-11.34,3.42,5.8-5.18,9.84-11.87,9.63-20.39a1,1,0,0,0-2.06-.23,29.81,29.81,0,0,1-5.89,14.36c-3.26,4.06-7.62,6.73-11.86,9.6,0,0,0,0-.06,0-8.27,2.89-16.45,6.28-24.37,9.91a153.87,153.87,0,0,0-22,12.33,62.69,62.69,0,0,0,8.86-25.14c.15-1.25-1.66-1.4-1.9-.21a71.69,71.69,0,0,1-14.25,30.68,102,102,0,0,0-22.69,24.17,1.63,1.63,0,0,0,2.62,2c12.88-16.47,29-28.92,47.36-38.35h.18a103.26,103.26,0,0,1,33.94,1.61c1.14.23,1.55-1.59.48-2a63.15,63.15,0,0,0-26.3-3.6c8.63-3.84,17.53-6.94,26.24-10.62,4.94-2.09,10.08-3.69,15-5.71,4.62-1.87,9.58-2.61,14.14-4.53h0a1.24,1.24,0,0,0,.61,0c1.84-.44,3.67-.86,5.51-1.27a86.13,86.13,0,0,1,21.92,4.25,1,1,0,0,0,.73-1.86,54.23,54.23,0,0,0-14-4.2c8.47-1.69,17-3.17,25.5-4.64A.92.92,0,0,0,2318.76,1429.42Z"/><path class="cls-48" d="M2163.62,1514.64c5.2-5.78,21-21.78,25.83-26.89,20.21-21.42,43.81-29.06,62.2-42.68,12.87-9.55,12.33-26.13,10.85-35.21-11.5,4-22.57,13.92-34.85,12.44-3-.35-5.81-1.37-8.77-1.58-7.55-.54-14.41,4.14-20.06,9.16-18.14,16.14-28.06,35.85-35.74,58.46-1.6,4.77-3.24,9.63-3.31,14.67A17.54,17.54,0,0,0,2163.62,1514.64Z"/><path class="cls-38" d="M2108.77,1380c3.91-11.66,9.77-23.82,20.78-29.17,4.32-2.1,9.14-3,13.55-4.86,25.37-10.84,30.21-50.38,56.71-58.07,6.87-2,14.27-1.41,21.22-3.15,13.34-3.34,23-14.56,34.13-22.63a80.87,80.87,0,0,1,46.93-15.22c8.2,0,17.25,1.69,22.38,8.17,7.07,8.94,3.26,22.26-2.87,31.79s-14.48,18.28-16.33,29.51c-1.2,7.26.52,14.85-1.1,22-2.5,11.15-12.29,18.84-21.44,25.59l-20.64,15.22c-3.06,2.26-6.27,4.69-7.71,8.23-2.26,5.59.54,11.82,1.5,17.8,2.22,13.9-6,27.53-16.65,36.59s-23.59,14.81-35.28,22.43a129.77,129.77,0,0,0-36.39,35.73c-4.62,6.81-8.65,14.12-14.4,20s-13.75,10.24-21.92,9.22-14.82-7.13-18.76-14.3-5.53-15.36-7.07-23.39C2098.09,1453.38,2096.24,1417.51,2108.77,1380Z"/><path class="cls-4" d="M2276.47,1282.29c-4.79,3.22-9.46,6.66-14,10.23a37.44,37.44,0,0,0,3.39-17.17c-.06-.92-1.48-.86-1.58,0-.81,7.26-2.32,14.07-5.95,20.45-8.38,6.79-16.45,14-24.31,21.38l-.16.08a2.16,2.16,0,0,0-1,1q-3.22,3-6.42,6.07a2.07,2.07,0,0,0-.65,1.41l0,0c-6.42,5.62-11.51,12.86-17.6,18.88-4.53,4.48-8.86,9.24-13.15,14,4-12,4.31-24.73-2.79-36.6a1.68,1.68,0,0,0-3.08,1.34c3.05,8,4.57,16.52,3.22,25-1.32,8.37-5.3,15.67-9,23.17a.76.76,0,0,1,0,.11c-9.28,10.78-18,22.19-26.23,33.73a249.65,249.65,0,0,0-21,35.21,102.75,102.75,0,0,0-7.69-42.68c-.78-1.88-3.43-.63-2.83,1.24a117.28,117.28,0,0,1,4.55,54.87c-6.83,16.9-11.41,34.65-12.49,52.5-.21,3.41,4.75,4,5.25.65,4.88-33.7,17.46-64.29,35.72-92.52l.24-.15c14.67-11.26,31.36-19.36,48.84-25.2,1.78-.6.91-3.5-.91-3.18a101.35,101.35,0,0,0-39.73,16.2c9-12.41,19-24,28.29-36.23,5.26-7,11.18-13.39,16.54-20.26,5-6.37,11.32-11.44,16.19-17.84v0a1.9,1.9,0,0,0,.87-.48q3.33-3.16,6.72-6.25c10.63-5.16,22.46-9.57,34.11-11.74a1.62,1.62,0,0,0-.47-3.21,86.75,86.75,0,0,0-23,5.4c10.52-9.25,21.28-18.22,32-27.19C2279.85,1283.38,2278,1281.24,2276.47,1282.29Z"/></g></g></svg>